<svg xmlns="http://www.w3.org/2000/svg" viewBox="0 0 280.1 24.44"><defs><style>.cls-1{fill:#007cd0;}</style></defs><title>アセット 27</title><g id="レイヤー_2" data-name="レイヤー 2"><g id="レイヤー_1-2" data-name="レイヤー 1"><path class="cls-1" d="M19.84,14.59a2.11,2.11,0,0,1-1.95,2.08c-.6,0-.73-.13-2-1.23a26,26,0,0,0-2.52-1.82,22.55,22.55,0,0,1-3.15,3.83A23.27,23.27,0,0,1,.83,22.83.84.84,0,0,1,0,21.94c0-.49.18-.59,1.74-1.4a18.43,18.43,0,0,0,8.63-8.61,26.09,26.09,0,0,0-4.44-1.66c-.44-.1-1-.29-1-1a.93.93,0,0,1,.86-1,44,44,0,0,1,5.61,1.35,25,25,0,0,0,1.43-6.19C13,2,13.08,1,14.69,1c.49,0,2.37.24,2.37,1.82a28.85,28.85,0,0,1-2.19,8.09C19.34,12.74,19.84,13.78,19.84,14.59Z"/><path class="cls-1" d="M49.92,11.08A1.06,1.06,0,0,1,51,12.17a1,1,0,0,1-1.07,1.12H28.86a1,1,0,0,1-1.07-1.1,1,1,0,0,1,1.07-1.11Z"/><path class="cls-1" d="M65.31,10c0,4.5-.73,7.9-3.72,10.58a12.29,12.29,0,0,1-4.39,2.58.91.91,0,0,1-.88-.91c0-.42.15-.52,1.43-1.43,3.61-2.55,3.82-7.21,3.82-10.56V3.09a1.62,1.62,0,0,1,1.84-1.82c1.9,0,1.9,1.36,1.9,1.82Zm6.37,6.63c0,.23,0,.68.47.68.29,0,3.25-1.1,5.83-5.59.31-.55.46-.81.91-.81a.85.85,0,0,1,.83.78,18.36,18.36,0,0,1-3.3,6c-1.69,2.05-5,4.68-6.66,4.68a1.81,1.81,0,0,1-1.85-1.95V3.09a1.63,1.63,0,0,1,1.87-1.82c1.9,0,1.9,1.33,1.9,1.82Z"/><path class="cls-1" d="M96.85,6c3.93,0,5.07,1.87,5.07,6s-1,11.24-5.17,11.24a9,9,0,0,1-3.49-1.07c-1.12-.55-1.48-.86-1.48-1.38a1,1,0,0,1,.94-.94,4,4,0,0,1,1,.45,3.69,3.69,0,0,0,1.67.67c1.32,0,2.86-4,2.86-9.28,0-3-.29-4.13-2.29-4.13a13.94,13.94,0,0,0-1.77.15c-1.45,4.42-2.91,8.82-4.31,13.24-.32,1-.65,2-2,2-.6,0-2.08-.34-2.08-1.71a11,11,0,0,1,.7-2.53c1-2.78,2.21-6.18,3.56-10.16-2.24.67-2.5.75-2.78.86a3.27,3.27,0,0,1-1.09.28,1,1,0,0,1-.94-1c0-.78.65-1,1-1.06.91-.26,2.86-.7,4.48-1,.26-.75,1.37-4.1,1.63-4.78A1.53,1.53,0,0,1,94,.62c.86,0,2,.55,2,1.54A6.14,6.14,0,0,1,95.45,4c0,.11-.65,1.85-.76,2.19C95.08,6.11,96.59,6,96.85,6Zm9.46.42c.89,1.14,2.4,3.12,2.4,4.18a2.17,2.17,0,0,1-2.21,2c-1.17,0-1.3-.49-1.9-2.57a16.42,16.42,0,0,0-2-4.68c-.49-.78-.55-.86-.55-1.2a1,1,0,0,1,1.07-1C103.82,3.17,105.4,5.23,106.31,6.4Z"/><path class="cls-1" d="M127.63,9.18c3.57,0,7.49,1.74,7.49,6.5,0,4.26-3.07,6.73-8.5,7.75a32.76,32.76,0,0,1-5.2.54c-.34,0-1.17,0-1.17-.93s.86-.94,1.53-1c1.82,0,9.31-.23,9.31-6.37a4.27,4.27,0,0,0-4.57-4.52c-2.84,0-6.48,2.6-7.73,5.2a1.71,1.71,0,0,1-3.32-.39c0-.6,1.06-7.44,1.19-8.35.42-2.6.57-3.43,2.16-3.43,1.12,0,2.11.5,2.11,1.59,0,.18-.5,2.34-.58,2.68-.28,1.24-.49,2.39-.75,3.69A13.1,13.1,0,0,1,127.63,9.18Zm1.9-3.62c-.54,0-.78-.13-1.79-.72a21.13,21.13,0,0,0-6.37-2.58c-.5-.13-1.17-.28-1.17-1s.8-.85,1.09-.85a51.5,51.5,0,0,1,7,1c1.82.46,2.76.7,2.76,2.28C131.07,4.08,130.78,5.56,129.53,5.56Z"/><path class="cls-1" d="M153.63,16.2c-1.14,3.4-2.49,5.46-5.3,5.46-3.8,0-6.06-3.93-6.06-7.93,0-5.41,3.95-11.52,12.25-11.52,5.67,0,10.89,2.94,10.89,9.85,0,9.36-9.25,10.48-9.8,10.48a.87.87,0,0,1-.88-.88c0-.63.26-.7,1.35-1.09,3.59-1.3,5.43-5.7,5.43-9,0-5.26-3.59-6.66-5.95-7.34C155,10.53,154.86,12.61,153.63,16.2Zm-5.82-8.82a14.81,14.81,0,0,0-2.24,7.75c0,3.88,1.67,4.53,2.29,4.53,1.15,0,1.95-2.53,2.24-3.49a51.85,51.85,0,0,0,1.71-11.91A7.31,7.31,0,0,0,147.81,7.38Z"/><path class="cls-1" d="M186.94,4.81c.18,0,.7,0,.86,0a.77.77,0,0,1,.73.83c0,.83-.63.88-1,.91-1.56.1-1.93.13-5.18.26,0,.47,0,2.52,0,2.94.33,0,1.27-.11,1.56-.11,2.26,0,9.15.42,9.15,6.84,0,3.95-2.83,5.51-5.93,6.32a17.78,17.78,0,0,1-2.63.47.82.82,0,0,1-.85-.86c0-.62.39-.73,1.43-1a4.83,4.83,0,0,0,4.18-5c0-4.65-4.76-4.94-5.87-4.94-.16,0-.91,0-1,.05,0,1.46,0,7.65-.08,8.74-.16,1.82-1,3.15-4,3.15-2.39,0-6.34-1.1-6.34-5.21A7.71,7.71,0,0,1,175.37,12a13,13,0,0,1,3.46-1.64V6.89c-.68,0-1.72.05-3.59.05-.29,0-2,0-2.21,0a.82.82,0,0,1-.65-.84.79.79,0,0,1,.91-.85h5.56v-3c0-.89,0-1.88,1.77-1.88,1.25,0,1.77.58,1.77,1.62,0,.49-.08,2.67-.08,3.12ZM174.85,17.94c0,2.13,1,3.69,2.42,3.69s1.51-1.27,1.53-2.94c0-.39,0-5.43,0-6.44A6.64,6.64,0,0,0,174.85,17.94ZM191,6.58a19.63,19.63,0,0,0-2.68-4.53c-.36-.49-.47-.65-.47-.93a.93.93,0,0,1,1-.89c.78,0,2.78,1.77,4.09,3.18,1.56,1.71,1.79,2.28,1.79,2.88a1.94,1.94,0,0,1-1.82,1.8C191.67,8.09,191.41,7.57,191,6.58Z"/><path class="cls-1" d="M212.76,21.94c0,1.23,0,2.5-1.8,2.5s-1.79-1.22-1.79-2.5V18.12H202.7c-2,0-2.71-1.09-2.71-2.49V6c0-1.35.68-2.49,2.71-2.49h6.47v-1c0-1.23,0-2.5,1.77-2.5s1.82,1.25,1.82,2.5v1h6.5c2,0,2.7,1.09,2.7,2.49v9.6c0,1.37-.67,2.49-2.7,2.49h-6.5ZM209.17,5h-4.81c-.6,0-.75.26-.75.76v4.31h5.56Zm0,6.5h-5.56v4.45c0,.49.15.75.75.75h4.81Zm3.59-1.43h5.54V5.75c0-.5-.16-.76-.76-.76h-4.78Zm0,6.63h4.78c.6,0,.76-.26.76-.75V11.49h-5.54Z"/><path class="cls-1" d="M230.31,13.18c0-.49-.11-.67-.68-.67h-1.45c-.32,0-.89-.08-.89-.73s.6-.7.89-.7h3.35c1.33,0,2.29.54,2.29,2v6.63c.31,2.26,2.68,2.78,5,2.78h11.91c.31,0,.88.08.88.71s-.59.72-.88.72h-12c-4.34,0-5.79-.28-7-2.41-1,1.06-2.58,2.67-3.41,2.67-1.06,0-1.27-1.19-1.27-1.79a1.33,1.33,0,0,1,1-1.46,16.58,16.58,0,0,0,2.24-.85Zm1.95-5.09c-1,0-1.2-.47-1.85-2.14a21.79,21.79,0,0,0-2-3.82,3.71,3.71,0,0,1-.57-1,.7.7,0,0,1,.73-.7A11.06,11.06,0,0,1,231,2c1.4,1.12,3.35,2.81,3.35,3.77A2.31,2.31,0,0,1,232.26,8.09Zm4.6-5.49c-.29,0-.88-.05-.88-.7s.62-.73.88-.73h5.51c2.55,0,2.58,1.46,2.6,2.94.16,6.5,2.55,11.78,6.27,15.31.26.24.44.42.44.73a.73.73,0,0,1-.73.73c-1,0-5.59-4.27-7.51-8.61a20.88,20.88,0,0,1-5.93,7.18,7.35,7.35,0,0,1-2.39,1.4.72.72,0,0,1-.73-.7c0-.36.21-.55.57-.83,5.88-4.81,6.55-11.26,6.55-16.07,0-.62-.57-.65-.88-.65Z"/><path class="cls-1" d="M270.4,22.59a13.51,13.51,0,0,1-3.59,1.3.91.91,0,0,1-.88-.93c0-.63.26-.73,1.32-1.12,3.54-1.35,4.45-4.21,5.41-8.11a22.38,22.38,0,0,0-5.33-2c-2.68,6.81-4.73,9.57-7.93,9.57-2.75,0-3.14-2.44-3.14-3.87a7.6,7.6,0,0,1,3.92-6.76,8.75,8.75,0,0,1,4.14-1.07,42,42,0,0,0,2.08-6.76,35.45,35.45,0,0,1-4.55.47c-.29,0-1.23,0-1.23-.91s.6-.91,1.54-.94c1.95-.08,2.68-.1,4.57-.28.45-.06,2.53-.39,2.76-.39a1.27,1.27,0,0,1,1.2,1.24c0,.47-1.49,4.71-2.68,7.88a23.47,23.47,0,0,1,5.17,1.43c.16-.75.52-2.7.68-4.39.1-1.15.23-2.26,1.87-2.26.39,0,2.16.13,2.16,1.66a56.15,56.15,0,0,1-1.3,6.42c3.48,1.67,3.51,2.26,3.51,3s-.5,2-1.56,2c-.44,0-.68-.08-1.48-.83-.37-.34-.86-.76-1.36-1.15A11,11,0,0,1,270.4,22.59Zm-9.65-9.8A7.57,7.57,0,0,0,258.44,18c0,.52.05,1.22.73,1.22,1.3,0,3.46-5.25,4.44-7.77A4.79,4.79,0,0,0,260.75,12.79Z"/></g></g></svg>