<svg xmlns="http://www.w3.org/2000/svg" viewBox="0 0 452.12 24.52"><defs><style>.cls-1{fill:#ff9d25;}</style></defs><title>アセット 28</title><g id="レイヤー_2" data-name="レイヤー 2"><g id="レイヤー_1-2" data-name="レイヤー 1"><path class="cls-1" d="M19.21,6.53c.53,0,2.34.18,2.34,2.65a53.91,53.91,0,0,1-1,9.62c-.57,2.78-1.14,4.39-3.46,4.39a17.65,17.65,0,0,1-4.91-1.43c-.42-.21-.86-.41-.86-1a.87.87,0,0,1,.86-.89,6.85,6.85,0,0,1,1.22.42,6.25,6.25,0,0,0,1.82.44c.73,0,1.33-.1,1.93-4.21a56.92,56.92,0,0,0,.54-6.79c0-.72,0-1.53-.91-1.53H11.7c-.23,3.15-.62,8.37-5.07,12A17.44,17.44,0,0,1,.86,23.25.9.9,0,0,1,0,22.36c0-.52.26-.65,1-1.09C5.38,18.9,7.67,15.05,7.85,8.19H2c-.57,0-1-.29-1-.81s.42-.85,1-.85H7.85V2.6c0-1.22.7-1.82,1.93-1.82,1.92,0,1.92,1,1.92,1.82V6.53Z"/><path class="cls-1" d="M32.84,18.9a24.41,24.41,0,0,0,13.57-7.1A18.18,18.18,0,0,0,49.25,8c.18-.33.36-.65.83-.65a.83.83,0,0,1,.83.78c0,.16-1.41,4.66-6.55,9-4.74,4-11.44,5.9-12.46,5.9A2,2,0,0,1,30.06,21C30.06,19.42,31,19.24,32.84,18.9ZM36,6.08a16.58,16.58,0,0,0-4.26-3.27c-.65-.39-.88-.52-.88-.94a.79.79,0,0,1,.78-.78,20.63,20.63,0,0,1,4.7,1.54C40.12,4.29,40.2,5,40.2,5.69a2.08,2.08,0,0,1-1.87,2C37.47,7.72,37.34,7.57,36,6.08Z"/><path class="cls-1" d="M67,6.37a18.28,18.28,0,0,1-6,6,7.55,7.55,0,0,1-2.16,1.09,1,1,0,0,1-.86-.93c0-.37.11-.44,1-1.09a14.41,14.41,0,0,0,5.3-8.19c.36-1.33.39-1.41.6-1.69A1.87,1.87,0,0,1,66.35,1c1,0,2.24.52,2.24,1.69a5.63,5.63,0,0,1-.73,2.06H76.7a1.92,1.92,0,0,1,2,2c0,.16-1.09,9.26-8.76,13.65a26.37,26.37,0,0,1-9.31,2.92,8.45,8.45,0,0,1-1.12.13.92.92,0,0,1-.94-.94c0-.7.45-.81,1.38-1,6.45-1.17,9.26-4,10.32-5-.64,0-.8-.24-1.76-1.43a12.32,12.32,0,0,0-3.41-3.12c-.29-.21-.52-.37-.52-.78a.91.91,0,0,1,.86-.91c.49,0,6.27,2.31,6.65,3.77a18.15,18.15,0,0,0,2.42-6.76c0-.18,0-.86-.72-.86Z"/><path class="cls-1" d="M90,18.9a24.41,24.41,0,0,0,13.57-7.1A18.18,18.18,0,0,0,106.45,8c.18-.33.36-.65.83-.65a.83.83,0,0,1,.83.78c0,.16-1.4,4.66-6.55,9-4.74,4-11.44,5.9-12.46,5.9A2,2,0,0,1,87.26,21C87.26,19.42,88.22,19.24,90,18.9ZM93.18,6.08a16.58,16.58,0,0,0-4.26-3.27c-.65-.39-.88-.52-.88-.94a.79.79,0,0,1,.78-.78,20.63,20.63,0,0,1,4.7,1.54C97.32,4.29,97.4,5,97.4,5.69a2.08,2.08,0,0,1-1.88,2C94.67,7.72,94.54,7.57,93.18,6.08Z"/><path class="cls-1" d="M116.79,7.12h-2.36c-.32,0-.89-.1-.89-.72s.6-.73.89-.73h2.36V2.29c0-1,0-2.21,1.74-2.21s1.77,1.19,1.77,2.21V5.67H122c.29,0,.89.08.89.73s-.63.72-.89.72H120.3v5c.29-.15,1.54-.86,1.8-1a.86.86,0,0,1,.39-.1.72.72,0,0,1,.7.73c0,.41-.47.78-2.89,2.49v7.94c0,1.53-1.14,2-2.29,2h-3.48c-.31,0-.88-.08-.88-.7s.59-.73.88-.73h1.59c.57,0,.67-.16.67-.7V16.46c-1.84,1-2.13,1-2.42,1-.8,0-1.32-.86-1.32-1.64a1.1,1.1,0,0,1,.8-1.14c.47-.19,2.53-.89,2.94-1Zm10.46,1.43h9.56c.31,0,.89.06.89.71s-.55.72-.89.72h-2.68V22.15c0,1,0,2.24-1.82,2.24s-1.84-1.41-1.84-2.24V10h-3.22v2a15.72,15.72,0,0,1-3,9.65c-.57.75-2.26,2.6-2.83,2.6a.75.75,0,0,1-.73-.73,11,11,0,0,1,1.06-1.77c1.88-3.28,2-7.64,2-9V4A2,2,0,0,1,124.9,2c.47-.24.86-.24,2.29-.24a26.87,26.87,0,0,0,6.3-.85A15.88,15.88,0,0,1,135.8.23c1,0,1.53,1.12,1.53,1.77,0,.34-.15.81-1.09,1a56.64,56.64,0,0,1-7.93.29c-.6,0-1.06,0-1.06.67Z"/><path class="cls-1" d="M165.41,22.54c.32,0,.89.08.89.71s-.6.72-.89.72H152.57c-4,0-5.15-.67-6.42-2.47-.91,1.15-2.29,2.73-3.1,2.73s-1.27-.8-1.27-1.77a1.32,1.32,0,0,1,.62-1.29c.21-.11,2-.89,2.34-1.07V13.39c0-.49-.1-.68-.67-.68h-1.23c-.31,0-.88-.07-.88-.72s.6-.73.88-.73h2.92c1.32,0,2.28.57,2.28,2v6.4c.34,2,1.54,2.91,5.57,2.91ZM146.28,8c-1.07,0-1.36-.94-1.56-1.67A18.81,18.81,0,0,0,142.9,2a4.32,4.32,0,0,1-.52-1,.73.73,0,0,1,.72-.73c.6,0,5.18,4,5.18,5.41A2.11,2.11,0,0,1,146.28,8Zm7.8,1c0,3.49-.52,6.69-2.37,9.42-.54.8-1.87,2.41-2.47,2.41a.7.7,0,0,1-.73-.7,10.64,10.64,0,0,1,.76-1.61c1.11-2.47,1.32-5.46,1.32-8.81V3.54c0-1.36.68-2.5,2.71-2.5h11.52c.31,0,.88.1.88.73s-.6.73-.88.73h-10c-.62,0-.75.26-.75.75V6.63h8.37c2.44,0,2.47,1.64,2.47,2,0,.57-.26,4.14-3.8,8.09a11.78,11.78,0,0,0,4.32,3.48.82.82,0,0,1,.47.73.75.75,0,0,1-.7.78,16,16,0,0,1-5.88-3.28,15.81,15.81,0,0,1-6.74,3.25.74.74,0,0,1-.7-.78.75.75,0,0,1,.52-.75,14,14,0,0,0,5.23-3.46,11.65,11.65,0,0,1-2.89-6.47,1.69,1.69,0,0,1,1.85-1.64,1.39,1.39,0,0,1,1.53,1.22,16.44,16.44,0,0,0,1.43,4.45,11.86,11.86,0,0,0,1.82-5.44c0-.72-.52-.72-.83-.72h-6.47Z"/><path class="cls-1" d="M192.69,13.68a17.26,17.26,0,0,1-1.9,4.94A9.47,9.47,0,0,1,182,23.45c-6.92,0-7.2-4.52-7.2-7.75,0-2,.44-13,.44-13.07a2,2,0,1,1,3.93.18c0,.62-.55,10.5-.55,12.5,0,2.42.23,5.15,4.73,5.15,1.23,0,5.39-.13,7.57-6.42.29-.86.39-1.09,1-1.09A.75.75,0,0,1,192.69,13.68Z"/><path class="cls-1" d="M209.61,2.42h-7.1c-.31,0-.88-.11-.88-.73s.6-.73.88-.73h17.66c.31,0,.88.11.88.73s-.59.73-.88.73h-7V4h7.49C222,4,223,4.58,223,6V8.16c0,.71,0,2-1.67,2s-1.64-1.12-1.64-2V6.21c0-.49-.13-.75-.75-.75h-5.75V9.7c0,1,0,2.29-1.74,2.29s-1.82-1.23-1.82-2.29V5.46h-5.74c-.6,0-.76.26-.76.75v2c0,.81,0,2-1.61,2s-1.66-1.14-1.66-2V6c0-1.53,1.11-2,2.28-2h7.49Zm11.73,16.2a3.1,3.1,0,0,1-.1.75,1.31,1.31,0,0,1,.38,0c.79,0,1.83.42,1.83,1.46a4.54,4.54,0,0,1-.66,2c-.51.83-1.42,1.17-3,1.17h-8c-1.17,0-2.29-.44-2.29-2V20.59h-5.91c-1.14,0-2.28-.41-2.28-2V14.35c0-1.43,1-2,2.28-2h15.37c1.17,0,2.29.44,2.29,2ZM208.16,6.76c.31,0,.85.1.85.73s-.57.73-.85.73h-3.62c-.31,0-.88-.11-.88-.73s.6-.73.88-.73Zm0,2.76c.31,0,.85.1.85.72s-.57.73-.85.73h-3.62c-.31,0-.88-.08-.88-.73s.6-.72.88-.72Zm1.43,6.11V13.81h-4.06c-.57,0-.68.18-.68.7v1.12Zm-4.74,1.45v1.41c0,.52.11.67.68.67h4.06V17.08Zm13-1.45V14.51c0-.52-.13-.7-.7-.7h-4.11v1.82Zm-4.81,1.45v2.08h4.11c.57,0,.7-.15.7-.67V17.08Zm0,3.51v1.28c0,.52.1.7.68.7h4.11c1.66,0,1.87-.57,2.34-2.13a4.27,4.27,0,0,1-1.15.15Zm5.2-13.83c.31,0,.89.1.89.73s-.6.73-.89.73h-3.66c-.32,0-.89-.11-.89-.73s.6-.73.89-.73Zm0,2.76c.31,0,.89.1.89.72s-.6.73-.89.73h-3.66c-.32,0-.89-.08-.89-.73s.6-.72.89-.72Z"/><path class="cls-1" d="M236.94,4.68c.31,0,.88.1.88.73s-.6.73-.88.73h-8.19c-.31,0-.89-.11-.89-.73s.6-.73.89-.73ZM237,22c0,1.53-1.12,2-2.29,2h-3.85c-1.33,0-2.29-.57-2.29-2V17.58c0-1.54,1.15-2,2.29-2h3.85c1.32,0,2.29.55,2.29,2Zm-.89-21c.31,0,.89.1.89.73s-.6.72-.89.72H229.5c-.31,0-.88-.1-.88-.72s.6-.73.88-.73Zm0,7.38c.31,0,.89.08.89.7s-.6.73-.89.73H229.5c-.31,0-.88-.08-.88-.7s.6-.73.88-.73Zm0,3.67c.31,0,.89.08.89.7s-.6.73-.89.73H229.5c-.31,0-.88-.08-.88-.7s.6-.73.88-.73ZM234,17.73c0-.52-.13-.7-.68-.7h-.75c-.6,0-.7.18-.7.7v4.11c0,.52.13.68.7.68h.75c.58,0,.68-.16.68-.68ZM243.05,9h-4.58c-.34,0-.88-.1-.88-.73s.57-.72.88-.72h4.58V3.2c-2,.08-4.08,0-4.42,0a.72.72,0,0,1-.73-.7c0-.26.1-.65.88-.71A42.71,42.71,0,0,0,247.23.65c.45-.1,2.32-.65,2.71-.65a1.72,1.72,0,0,1,1.64,1.64,1,1,0,0,1-.94,1c-.7.13-2.47.26-4.08.39V7.57h4.63c.31,0,.88.1.88.72s-.6.73-.88.73h-4.63v4.81h1.64c2,0,2.7,1.09,2.7,2.5v5.15c0,1.35-.68,2.49-2.7,2.49h-6.82c-2,0-2.7-1.09-2.7-2.49V16.33c0-1.35.7-2.5,2.7-2.5h1.67Zm4.42,7c0-.49-.16-.75-.76-.75h-3.82c-.62,0-.75.26-.75.75v5.72c0,.5.15.76.75.76h3.82c.6,0,.76-.26.76-.76Z"/><path class="cls-1" d="M268.87,6.06c3.92,0,5.07,1.87,5.07,6s-1,11.23-5.18,11.23a9.17,9.17,0,0,1-3.48-1.06c-1.12-.55-1.48-.86-1.48-1.38a.94.94,0,0,1,.93-.94,4,4,0,0,1,1,.44,3.67,3.67,0,0,0,1.66.68c1.33,0,2.87-4,2.87-9.28,0-3-.29-4.14-2.29-4.14a14,14,0,0,0-1.77.16c-1.46,4.42-2.91,8.81-4.32,13.23-.31,1-.65,2-1.95,2-.6,0-2.08-.34-2.08-1.72a11.56,11.56,0,0,1,.7-2.52c1-2.78,2.21-6.19,3.57-10.16-2.24.67-2.5.75-2.79.85a3.39,3.39,0,0,1-1.09.29,1,1,0,0,1-.93-1c0-.78.65-1,1-1.06.91-.26,2.86-.71,4.47-1,.26-.75,1.38-4.11,1.64-4.78A1.53,1.53,0,0,1,266,.7c.86,0,2,.55,2,1.54a6.4,6.4,0,0,1-.5,1.79c0,.1-.65,1.85-.75,2.18C267.1,6.19,268.61,6.06,268.87,6.06Zm9.46.41c.88,1.15,2.39,3.12,2.39,4.19a2.16,2.16,0,0,1-2.21,2c-1.17,0-1.3-.5-1.89-2.58a17.26,17.26,0,0,0-2-4.68c-.5-.78-.55-.85-.55-1.19a1,1,0,0,1,1.07-1C275.83,3.25,277.42,5.3,278.33,6.47Z"/><path class="cls-1" d="M299.65,9.26c3.56,0,7.49,1.74,7.49,6.5,0,4.26-3.07,6.73-8.5,7.74a31.77,31.77,0,0,1-5.2.55c-.34,0-1.17,0-1.17-.94s.85-.93,1.53-1c1.82,0,9.31-.23,9.31-6.37a4.28,4.28,0,0,0-4.58-4.52c-2.83,0-6.47,2.6-7.72,5.2a1.72,1.72,0,0,1-3.33-.39c0-.6,1.07-7.44,1.2-8.35.41-2.6.57-3.43,2.16-3.43,1.11,0,2.1.49,2.1,1.59,0,.18-.49,2.34-.57,2.67-.29,1.25-.49,2.4-.75,3.7A13.08,13.08,0,0,1,299.65,9.26Zm1.9-3.62c-.55,0-.78-.13-1.8-.73a21.32,21.32,0,0,0-6.37-2.57c-.49-.13-1.17-.29-1.17-1,0-.86.81-.86,1.1-.86a53.36,53.36,0,0,1,7,1c1.82.47,2.75.71,2.75,2.29C303.08,4.16,302.8,5.64,301.55,5.64Z"/><path class="cls-1" d="M325.65,16.28c-1.14,3.4-2.5,5.46-5.3,5.46-3.8,0-6.06-3.93-6.06-7.93,0-5.41,3.95-11.52,12.25-11.52,5.66,0,10.89,2.94,10.89,9.85,0,9.36-9.26,10.48-9.8,10.48a.88.88,0,0,1-.89-.88c0-.63.26-.71,1.35-1.1,3.59-1.3,5.44-5.69,5.44-9,0-5.25-3.59-6.65-5.95-7.33C327.05,10.61,326.87,12.69,325.65,16.28Zm-5.82-8.82a14.72,14.72,0,0,0-2.24,7.75c0,3.87,1.66,4.52,2.29,4.52,1.14,0,1.95-2.52,2.23-3.48a51.91,51.91,0,0,0,1.72-11.91A7.27,7.27,0,0,0,319.83,7.46Z"/><path class="cls-1" d="M359,4.89c.18,0,.7,0,.86,0a.77.77,0,0,1,.72.83c0,.83-.62.88-1,.91-1.56.1-1.92.13-5.17.26,0,.47,0,2.52,0,2.94.34,0,1.28-.11,1.56-.11,2.26,0,9.16.42,9.16,6.84,0,3.95-2.84,5.51-5.93,6.32a18.24,18.24,0,0,1-2.63.47.82.82,0,0,1-.86-.86c0-.63.39-.73,1.43-1a4.85,4.85,0,0,0,4.19-5c0-4.66-4.76-4.94-5.88-4.94-.15,0-.91,0-1,.05,0,1.46,0,7.64-.08,8.74-.15,1.82-1,3.14-4,3.14-2.4,0-6.35-1.09-6.35-5.2a7.72,7.72,0,0,1,3.49-6.13,12.76,12.76,0,0,1,3.45-1.64V7c-.67,0-1.71,0-3.58,0-.29,0-2,0-2.21,0a.8.8,0,0,1-.65-.83.79.79,0,0,1,.91-.86h5.56v-3c0-.88,0-1.87,1.77-1.87,1.25,0,1.77.57,1.77,1.61,0,.5-.08,2.68-.08,3.12ZM346.87,18c0,2.13,1,3.69,2.42,3.69s1.5-1.27,1.53-2.94c0-.39,0-5.43,0-6.45A6.67,6.67,0,0,0,346.87,18ZM363,6.66a18.75,18.75,0,0,0-2.68-4.53c-.36-.49-.46-.65-.46-.93a.93.93,0,0,1,1-.89c.78,0,2.78,1.77,4.08,3.17,1.56,1.72,1.8,2.29,1.8,2.89a1.94,1.94,0,0,1-1.82,1.79C363.69,8.16,363.43,7.64,363,6.66Z"/><path class="cls-1" d="M384.77,22c0,1.23,0,2.5-1.79,2.5s-1.79-1.22-1.79-2.5V18.2h-6.48c-2,0-2.7-1.09-2.7-2.5V6.11c0-1.35.67-2.5,2.7-2.5h6.48v-1c0-1.22,0-2.49,1.76-2.49s1.82,1.25,1.82,2.49v1h6.5c2,0,2.71,1.1,2.71,2.5V15.7c0,1.38-.68,2.5-2.71,2.5h-6.5ZM381.19,5.07h-4.81c-.6,0-.76.26-.76.75v4.32h5.57Zm0,6.5h-5.57V16c0,.49.16.75.76.75h4.81Zm3.58-1.43h5.54V5.82c0-.49-.15-.75-.75-.75h-4.79Zm0,6.63h4.79c.6,0,.75-.26.75-.75V11.57h-5.54Z"/><path class="cls-1" d="M402.32,13.26c0-.49-.1-.68-.67-.68h-1.46c-.31,0-.88-.07-.88-.72s.6-.71.88-.71h3.36c1.32,0,2.28.55,2.28,2v6.63c.32,2.26,2.68,2.78,5.05,2.78h11.91c.31,0,.88.08.88.71s-.6.72-.88.72h-12c-4.34,0-5.8-.28-7.05-2.42-1,1.07-2.57,2.68-3.4,2.68-1.07,0-1.28-1.19-1.28-1.79a1.32,1.32,0,0,1,1-1.46,14.72,14.72,0,0,0,2.23-.86Zm1.95-5.1c-1,0-1.19-.46-1.84-2.13a21.79,21.79,0,0,0-2-3.82,3.83,3.83,0,0,1-.58-1,.71.71,0,0,1,.73-.7A10.87,10.87,0,0,1,403,2.11c1.4,1.11,3.35,2.8,3.35,3.77A2.31,2.31,0,0,1,404.27,8.16Zm4.61-5.48c-.29,0-.89-.05-.89-.7s.63-.73.89-.73h5.51c2.55,0,2.57,1.45,2.6,2.94.15,6.5,2.55,11.77,6.26,15.31.26.23.45.42.45.73A.73.73,0,0,1,423,21c-1,0-5.59-4.27-7.51-8.61a20.88,20.88,0,0,1-5.93,7.18,7.28,7.28,0,0,1-2.4,1.4.71.71,0,0,1-.72-.7c0-.37.2-.55.57-.83,5.87-4.81,6.55-11.26,6.55-16.07,0-.63-.57-.65-.88-.65Z"/><path class="cls-1" d="M442.42,22.67a13.51,13.51,0,0,1-3.59,1.3.92.92,0,0,1-.89-.93c0-.63.27-.73,1.33-1.12,3.54-1.35,4.45-4.21,5.41-8.11a22.38,22.38,0,0,0-5.33-2c-2.68,6.81-4.73,9.57-7.93,9.57-2.76,0-3.15-2.45-3.15-3.88a7.63,7.63,0,0,1,3.93-6.76,8.81,8.81,0,0,1,4.13-1.06,41,41,0,0,0,2.08-6.76,35.13,35.13,0,0,1-4.55.47c-.28,0-1.22,0-1.22-.91s.6-.91,1.53-.94c1.95-.08,2.68-.1,4.58-.29.44-.05,2.52-.39,2.76-.39a1.27,1.27,0,0,1,1.19,1.25A80.55,80.55,0,0,1,440,10a23.51,23.51,0,0,1,5.18,1.43c.15-.75.52-2.7.68-4.39.1-1.15.23-2.27,1.87-2.27.39,0,2.16.13,2.16,1.67a56.15,56.15,0,0,1-1.3,6.42c3.48,1.66,3.51,2.26,3.51,3s-.5,2-1.57,2c-.44,0-.67-.08-1.48-.84-.36-.33-.86-.75-1.35-1.14A11.11,11.11,0,0,1,442.42,22.67Zm-9.65-9.8a7.52,7.52,0,0,0-2.31,5.23c0,.52.05,1.22.72,1.22,1.3,0,3.46-5.25,4.45-7.78A4.79,4.79,0,0,0,432.77,12.87Z"/></g></g></svg>