<svg xmlns="http://www.w3.org/2000/svg" viewBox="0 0 234.75 24.44"><defs><style>.cls-1{fill:#ff422e;}</style></defs><title>アセット 26</title><g id="レイヤー_2" data-name="レイヤー 2"><g id="レイヤー_1-2" data-name="レイヤー 1"><path class="cls-1" d="M12,10.76a.82.82,0,0,1,.86.81.83.83,0,0,1-.86.86H4v8.11a1.83,1.83,0,0,1-2,1.95,1.81,1.81,0,0,1-2-1.95V4.13C0,2.34.94,1.4,2.89,1.4H13a.87.87,0,0,1,.86.84.84.84,0,0,1-.86.85h-8A1,1,0,0,0,4,4v6.76Z"/><path class="cls-1" d="M19.73,21.87A.89.89,0,0,1,18,21.61a.58.58,0,0,1,.05-.29L24.18,2.89A2.82,2.82,0,0,1,26.94,1a2.75,2.75,0,0,1,2.73,1.88l6.13,17a1.62,1.62,0,0,1,.13.62,2.05,2.05,0,0,1-2.26,2c-1.25,0-1.48-.73-1.72-1.38l-1.58-4.44H21.48ZM22,15h7.75L26.31,5.33c-.15-.44-.28-.68-.52-.68s-.41.34-.54.71Z"/><path class="cls-1" d="M56.19,19.27a1.75,1.75,0,0,1,.44,1.09,2.35,2.35,0,0,1-2.34,2.13,1.64,1.64,0,0,1-1.43-.88L47.71,14.2l-5.56,7.9a.86.86,0,0,1-.73.39.9.9,0,0,1-.91-.91.84.84,0,0,1,.18-.49l5.93-8.45-5.83-8.4a1.68,1.68,0,0,1-.46-1.07A2.38,2.38,0,0,1,42.67,1a1.63,1.63,0,0,1,1.43.91l5,7.18,5.38-7.7A1,1,0,0,1,55.22,1a.9.9,0,0,1,.89.91.87.87,0,0,1-.16.52l-5.77,8.22Z"/><path class="cls-1" d="M73.29,5c-.59,0-3.25.33-3.66.33a.89.89,0,0,1-.89-.93c0-.89.52-.91,2.27-1,5.72-.39,11.49-.6,14.11-.7.06,0,3.72-.21,4.32-.21a.9.9,0,0,1,1,1c0,.86-.75.86-1.25.86a12,12,0,0,0-6.16,1.19,8.47,8.47,0,0,0-4.5,7.88c0,2.6.86,7.2,7.26,7.44.8,0,1.48.05,1.48,1s-.83,1-1.22,1c-4.32,0-11.63-1.53-11.63-8.79,0-5.77,4.61-8.32,6.82-9.54C78.6,4.52,76,4.76,73.29,5ZM90,10.48a1.06,1.06,0,0,1-1.07,1c-.46,0-.59-.23-1-1a10.38,10.38,0,0,0-1.17-1.72.89.89,0,0,1-.26-.57.73.73,0,0,1,.94-.7C87.88,7.62,90,9.83,90,10.48ZM92.38,9a1,1,0,0,1-1,1c-.44,0-.54-.18-1.06-.93a11.77,11.77,0,0,0-1.15-1.41.88.88,0,0,1-.2-.52.75.75,0,0,1,.91-.7C90.19,6.47,92.38,8.22,92.38,9Z"/><path class="cls-1" d="M108.29,16.2c-1.14,3.4-2.5,5.46-5.3,5.46-3.8,0-6.06-3.93-6.06-7.93,0-5.41,3.95-11.52,12.24-11.52,5.67,0,10.9,2.94,10.9,9.85,0,9.36-9.26,10.48-9.8,10.48a.88.88,0,0,1-.89-.88c0-.63.26-.7,1.35-1.09,3.59-1.3,5.44-5.7,5.44-9,0-5.26-3.59-6.66-6-7.34C109.69,10.53,109.51,12.61,108.29,16.2Zm-5.82-8.82a14.72,14.72,0,0,0-2.24,7.75c0,3.88,1.66,4.53,2.29,4.53,1.14,0,2-2.53,2.23-3.49a51.91,51.91,0,0,0,1.72-11.91A7.27,7.27,0,0,0,102.47,7.38Z"/><path class="cls-1" d="M141.6,4.81c.18,0,.7,0,.85,0a.77.77,0,0,1,.73.83c0,.83-.62.88-1,.91-1.56.1-1.92.13-5.17.26,0,.47,0,2.52,0,2.94.34,0,1.28-.11,1.56-.11,2.26,0,9.15.42,9.15,6.84,0,3.95-2.83,5.51-5.92,6.32a18.24,18.24,0,0,1-2.63.47.82.82,0,0,1-.86-.86c0-.62.39-.73,1.43-1a4.84,4.84,0,0,0,4.19-5c0-4.65-4.76-4.94-5.88-4.94-.15,0-.91,0-1,.05,0,1.46,0,7.65-.08,8.74-.15,1.82-1,3.15-4,3.15-2.4,0-6.35-1.1-6.35-5.21A7.72,7.72,0,0,1,130,12a13.07,13.07,0,0,1,3.45-1.64V6.89c-.67,0-1.71.05-3.58.05-.29,0-2,0-2.21,0a.82.82,0,0,1-.65-.84.79.79,0,0,1,.91-.85h5.56v-3c0-.89,0-1.88,1.77-1.88,1.25,0,1.77.58,1.77,1.62,0,.49-.08,2.67-.08,3.12ZM129.51,17.94c0,2.13,1,3.69,2.41,3.69s1.51-1.27,1.54-2.94c0-.39,0-5.43,0-6.44A6.65,6.65,0,0,0,129.51,17.94ZM145.65,6.58A19.28,19.28,0,0,0,143,2.05c-.36-.49-.46-.65-.46-.93a.93.93,0,0,1,1-.89c.78,0,2.78,1.77,4.08,3.18,1.56,1.71,1.79,2.28,1.79,2.88a1.94,1.94,0,0,1-1.82,1.8C146.33,8.09,146.07,7.57,145.65,6.58Z"/><path class="cls-1" d="M167.41,21.94c0,1.23,0,2.5-1.79,2.5s-1.79-1.22-1.79-2.5V18.12h-6.48c-2,0-2.7-1.09-2.7-2.49V6c0-1.35.67-2.49,2.7-2.49h6.48v-1c0-1.23,0-2.5,1.76-2.5s1.82,1.25,1.82,2.5v1h6.5c2,0,2.71,1.09,2.71,2.49v9.6c0,1.37-.68,2.49-2.71,2.49h-6.5ZM163.83,5H159c-.6,0-.76.26-.76.76v4.31h5.57Zm0,6.5h-5.57v4.45c0,.49.16.75.76.75h4.81Zm3.58-1.43H173V5.75c0-.5-.15-.76-.75-.76h-4.79Zm0,6.63h4.79c.6,0,.75-.26.75-.75V11.49h-5.54Z"/><path class="cls-1" d="M185,13.18c0-.49-.1-.67-.67-.67h-1.46c-.31,0-.88-.08-.88-.73s.6-.7.88-.7h3.36c1.32,0,2.28.54,2.28,2v6.63c.32,2.26,2.68,2.78,5.05,2.78h11.91c.31,0,.88.08.88.71s-.6.72-.88.72h-12c-4.34,0-5.8-.28-7.05-2.41-1,1.06-2.57,2.67-3.4,2.67-1.07,0-1.28-1.19-1.28-1.79a1.33,1.33,0,0,1,1-1.46,16.28,16.28,0,0,0,2.23-.85Zm1.95-5.09c-1,0-1.19-.47-1.84-2.14a21.79,21.79,0,0,0-2-3.82,3.83,3.83,0,0,1-.58-1,.71.71,0,0,1,.73-.7A10.87,10.87,0,0,1,185.67,2C187.07,3.15,189,4.84,189,5.8A2.32,2.32,0,0,1,186.91,8.09Zm4.61-5.49c-.29,0-.89-.05-.89-.7s.63-.73.89-.73H197c2.55,0,2.57,1.46,2.6,2.94.15,6.5,2.55,11.78,6.26,15.31.26.24.45.42.45.73a.73.73,0,0,1-.73.73c-1,0-5.59-4.27-7.52-8.61a20.83,20.83,0,0,1-5.92,7.18,7.28,7.28,0,0,1-2.4,1.4.71.71,0,0,1-.72-.7c0-.36.2-.55.57-.83,5.87-4.81,6.55-11.26,6.55-16.07,0-.62-.57-.65-.88-.65Z"/><path class="cls-1" d="M225.06,22.59a13.51,13.51,0,0,1-3.59,1.3.92.92,0,0,1-.89-.93c0-.63.26-.73,1.33-1.12,3.54-1.35,4.45-4.21,5.41-8.11a22.38,22.38,0,0,0-5.33-2c-2.68,6.81-4.73,9.57-7.93,9.57-2.76,0-3.15-2.44-3.15-3.87a7.61,7.61,0,0,1,3.93-6.76A8.71,8.71,0,0,1,219,9.62a41,41,0,0,0,2.08-6.76,35.13,35.13,0,0,1-4.55.47c-.28,0-1.22,0-1.22-.91s.6-.91,1.53-.94c1.95-.08,2.68-.1,4.58-.28.44-.06,2.52-.39,2.76-.39a1.27,1.27,0,0,1,1.19,1.24,80.55,80.55,0,0,1-2.68,7.88,23.51,23.51,0,0,1,5.18,1.43c.15-.75.52-2.7.67-4.39.11-1.15.24-2.26,1.88-2.26.39,0,2.15.13,2.15,1.66a56.15,56.15,0,0,1-1.3,6.42c3.49,1.67,3.51,2.26,3.51,3s-.49,2-1.56,2c-.44,0-.67-.08-1.48-.83-.36-.34-.86-.76-1.35-1.15A11.08,11.08,0,0,1,225.06,22.59Zm-9.65-9.8A7.52,7.52,0,0,0,213.1,18c0,.52.05,1.22.72,1.22,1.3,0,3.46-5.25,4.45-7.77A4.77,4.77,0,0,0,215.41,12.79Z"/></g></g></svg>