<svg xmlns="http://www.w3.org/2000/svg" viewBox="0 0 223.68 24.52"><defs><style>.cls-1{fill:#20b97b;}</style></defs><title>アセット 25</title><g id="レイヤー_2" data-name="レイヤー 2"><g id="レイヤー_1-2" data-name="レイヤー 1"><path class="cls-1" d="M9.78,2.42H2.68c-.31,0-.89-.11-.89-.73S2.39,1,2.68,1H20.33c.31,0,.89.11.89.73s-.6.73-.89.73h-7V4h7.49c1.32,0,2.31.58,2.31,2V8.16c0,.71,0,2-1.66,2s-1.64-1.12-1.64-2V6.21c0-.49-.13-.75-.76-.75H13.34V9.7c0,1,0,2.29-1.74,2.29S9.78,10.76,9.78,9.7V5.46H4c-.6,0-.75.26-.75.75v2c0,.81,0,2-1.62,2S0,9,0,8.16V6C0,4.45,1.12,4,2.29,4H9.78ZM21.5,18.62a2.67,2.67,0,0,1-.1.75,1.39,1.39,0,0,1,.39,0c.78,0,1.82.42,1.82,1.46a4.53,4.53,0,0,1-.65,2c-.52.83-1.43,1.17-3,1.17H12c-1.17,0-2.29-.44-2.29-2V20.59H3.85c-1.15,0-2.29-.41-2.29-2V14.35c0-1.43,1-2,2.29-2H19.21c1.17,0,2.29.44,2.29,2ZM8.32,6.76c.31,0,.86.1.86.73s-.57.73-.86.73H4.71c-.32,0-.89-.11-.89-.73s.6-.73.89-.73Zm0,2.76c.31,0,.86.1.86.72s-.57.73-.86.73H4.71c-.32,0-.89-.08-.89-.73s.6-.72.89-.72Zm1.43,6.11V13.81H5.69c-.57,0-.67.18-.67.7v1.12ZM5,17.08v1.41c0,.52.1.67.67.67H9.75V17.08Zm13-1.45V14.51c0-.52-.13-.7-.7-.7H13.23v1.82Zm-4.81,1.45v2.08h4.11c.57,0,.7-.15.7-.67V17.08Zm0,3.51v1.28c0,.52.11.7.68.7H18c1.66,0,1.87-.57,2.34-2.13a4.27,4.27,0,0,1-1.15.15Zm5.2-13.83c.32,0,.89.1.89.73s-.6.73-.89.73H14.77c-.31,0-.89-.11-.89-.73s.6-.73.89-.73Zm0,2.76c.32,0,.89.1.89.72s-.6.73-.89.73H14.77c-.31,0-.89-.08-.89-.73s.6-.72.89-.72Z"/><path class="cls-1" d="M37.1,4.68c.31,0,.89.1.89.73s-.6.73-.89.73H28.91C28.6,6.14,28,6,28,5.41s.6-.73.88-.73ZM37.18,22c0,1.53-1.12,2-2.29,2H31c-1.32,0-2.28-.57-2.28-2V17.58c0-1.54,1.14-2,2.28-2h3.85c1.33,0,2.29.55,2.29,2ZM36.3,1c.31,0,.88.1.88.73s-.6.72-.88.72H29.67c-.32,0-.89-.1-.89-.72s.6-.73.89-.73Zm0,7.38c.31,0,.88.08.88.7s-.6.73-.88.73H29.67c-.32,0-.89-.08-.89-.7s.6-.73.89-.73Zm0,3.67c.31,0,.88.08.88.7s-.6.73-.88.73H29.67c-.32,0-.89-.08-.89-.7s.6-.73.89-.73Zm-2.14,5.69c0-.52-.13-.7-.67-.7h-.76c-.59,0-.7.18-.7.7v4.11c0,.52.13.68.7.68h.76c.57,0,.67-.16.67-.68ZM43.21,9H38.64c-.34,0-.89-.1-.89-.73s.57-.72.89-.72h4.57V3.2c-2,.08-4.08,0-4.42,0a.72.72,0,0,1-.73-.7c0-.26.11-.65.89-.71A42.85,42.85,0,0,0,47.4.65C47.84.55,49.71,0,50.1,0a1.72,1.72,0,0,1,1.64,1.64,1,1,0,0,1-.94,1c-.7.13-2.47.26-4.08.39V7.57h4.63c.31,0,.88.1.88.72s-.59.73-.88.73H46.72v4.81h1.64c2,0,2.7,1.09,2.7,2.5v5.15c0,1.35-.67,2.49-2.7,2.49H41.55c-2,0-2.71-1.09-2.71-2.49V16.33c0-1.35.71-2.5,2.71-2.5h1.66Zm4.42,7c0-.49-.15-.75-.75-.75H43.06c-.63,0-.76.26-.76.75v5.72c0,.5.16.76.76.76h3.82c.6,0,.75-.26.75-.76Z"/><path class="cls-1" d="M62.22,5c-.6.06-3.25.34-3.67.34a.88.88,0,0,1-.88-.93c0-.89.52-.91,2.26-1,5.72-.39,11.49-.6,14.12-.71,0,0,3.72-.2,4.31-.2a.9.9,0,0,1,1,1c0,.86-.75.86-1.24.86A12.08,12.08,0,0,0,72,5.51a8.47,8.47,0,0,0-4.49,7.88c0,2.6.85,7.2,7.25,7.44.81,0,1.48.05,1.48,1s-.83,1-1.22,1c-4.32,0-11.62-1.54-11.62-8.79,0-5.77,4.6-8.32,6.81-9.54C67.52,4.6,64.87,4.84,62.22,5Zm16.66,5.52a1.06,1.06,0,0,1-1.06,1c-.47,0-.6-.23-1-1a10,10,0,0,0-1.17-1.72.92.92,0,0,1-.26-.57.72.72,0,0,1,.93-.7C76.8,7.7,78.88,9.91,78.88,10.56ZM81.3,9.07a1,1,0,0,1-1,1c-.44,0-.55-.18-1.07-.93a11.71,11.71,0,0,0-1.14-1.41.91.91,0,0,1-.21-.52.75.75,0,0,1,.91-.7C79.12,6.55,81.3,8.29,81.3,9.07Z"/><path class="cls-1" d="M97.21,16.28c-1.14,3.4-2.49,5.46-5.3,5.46-3.8,0-6.06-3.93-6.06-7.93,0-5.41,4-11.52,12.25-11.52,5.67,0,10.89,2.94,10.89,9.85,0,9.36-9.25,10.48-9.8,10.48a.87.87,0,0,1-.88-.88c0-.63.26-.71,1.35-1.1,3.59-1.3,5.43-5.69,5.43-9,0-5.25-3.59-6.65-6-7.33C98.62,10.61,98.44,12.69,97.21,16.28ZM91.39,7.46a14.81,14.81,0,0,0-2.24,7.75c0,3.87,1.67,4.52,2.29,4.52,1.15,0,2-2.52,2.24-3.48A51.85,51.85,0,0,0,95.39,4.34,7.31,7.31,0,0,0,91.39,7.46Z"/><path class="cls-1" d="M130.52,4.89c.18,0,.7,0,.86,0a.77.77,0,0,1,.73.83c0,.83-.63.88-1,.91-1.56.1-1.93.13-5.18.26,0,.47,0,2.52,0,2.94.33,0,1.27-.11,1.56-.11,2.26,0,9.15.42,9.15,6.84,0,3.95-2.84,5.51-5.93,6.32a17.78,17.78,0,0,1-2.63.47.82.82,0,0,1-.85-.86c0-.63.39-.73,1.43-1a4.85,4.85,0,0,0,4.18-5c0-4.66-4.76-4.94-5.87-4.94-.16,0-.91,0-1,.05,0,1.46,0,7.64-.08,8.74-.16,1.82-1,3.14-4,3.14-2.39,0-6.34-1.09-6.34-5.2A7.71,7.71,0,0,1,119,12.12a12.7,12.7,0,0,1,3.46-1.64V7c-.68,0-1.72,0-3.59,0-.29,0-2,0-2.21,0a.8.8,0,0,1-.65-.83.79.79,0,0,1,.91-.86h5.56v-3c0-.88,0-1.87,1.77-1.87C125.45.44,126,1,126,2.05c0,.5-.08,2.68-.08,3.12ZM118.43,18c0,2.13,1,3.69,2.42,3.69s1.51-1.27,1.53-2.94c0-.39,0-5.43,0-6.45A6.67,6.67,0,0,0,118.43,18ZM134.58,6.66a19.41,19.41,0,0,0-2.68-4.53c-.37-.49-.47-.65-.47-.93a.93.93,0,0,1,1-.89c.78,0,2.78,1.77,4.08,3.17,1.56,1.72,1.8,2.29,1.8,2.89a1.94,1.94,0,0,1-1.82,1.79C135.25,8.16,135,7.64,134.58,6.66Z"/><path class="cls-1" d="M156.34,22c0,1.23,0,2.5-1.8,2.5s-1.79-1.22-1.79-2.5V18.2h-6.47c-2,0-2.71-1.09-2.71-2.5V6.11c0-1.35.68-2.5,2.71-2.5h6.47v-1c0-1.22,0-2.49,1.77-2.49s1.82,1.25,1.82,2.49v1h6.5c2,0,2.7,1.1,2.7,2.5V15.7c0,1.38-.67,2.5-2.7,2.5h-6.5ZM152.75,5.07h-4.81c-.6,0-.75.26-.75.75v4.32h5.56Zm0,6.5h-5.56V16c0,.49.15.75.75.75h4.81Zm3.59-1.43h5.54V5.82c0-.49-.16-.75-.76-.75h-4.78Zm0,6.63h4.78c.6,0,.76-.26.76-.75V11.57h-5.54Z"/><path class="cls-1" d="M173.89,13.26c0-.49-.11-.68-.68-.68h-1.45c-.32,0-.89-.07-.89-.72s.6-.71.89-.71h3.35c1.33,0,2.29.55,2.29,2v6.63c.31,2.26,2.68,2.78,5,2.78h11.91c.31,0,.88.08.88.71s-.59.72-.88.72h-12c-4.34,0-5.79-.28-7-2.42-1,1.07-2.58,2.68-3.41,2.68-1.06,0-1.27-1.19-1.27-1.79a1.33,1.33,0,0,1,1-1.46,15,15,0,0,0,2.24-.86Zm2-5.1c-1,0-1.2-.46-1.85-2.13a21.79,21.79,0,0,0-2-3.82,3.71,3.71,0,0,1-.57-1,.7.7,0,0,1,.73-.7,11.06,11.06,0,0,1,2.44,1.64c1.4,1.11,3.35,2.8,3.35,3.77A2.3,2.3,0,0,1,175.84,8.16Zm4.6-5.48c-.29,0-.88-.05-.88-.7s.62-.73.88-.73H186c2.55,0,2.58,1.45,2.6,2.94.16,6.5,2.55,11.77,6.27,15.31a1,1,0,0,1,.44.73.73.73,0,0,1-.73.73c-1,0-5.59-4.27-7.51-8.61a20.88,20.88,0,0,1-5.93,7.18,7.35,7.35,0,0,1-2.39,1.4.72.72,0,0,1-.73-.7c0-.37.21-.55.57-.83,5.88-4.81,6.55-11.26,6.55-16.07,0-.63-.57-.65-.88-.65Z"/><path class="cls-1" d="M214,22.67a13.51,13.51,0,0,1-3.59,1.3.92.92,0,0,1-.88-.93c0-.63.26-.73,1.32-1.12,3.54-1.35,4.45-4.21,5.41-8.11a22.38,22.38,0,0,0-5.33-2c-2.68,6.81-4.73,9.57-7.93,9.57-2.75,0-3.14-2.45-3.14-3.88a7.61,7.61,0,0,1,3.92-6.76A8.85,8.85,0,0,1,207.9,9.7,42,42,0,0,0,210,2.94a35.45,35.45,0,0,1-4.55.47c-.29,0-1.23,0-1.23-.91s.6-.91,1.54-.94c1.95-.08,2.68-.1,4.57-.29.45-.05,2.53-.39,2.76-.39a1.28,1.28,0,0,1,1.2,1.25c0,.47-1.49,4.71-2.68,7.88a23.47,23.47,0,0,1,5.17,1.43c.16-.75.52-2.7.68-4.39.1-1.15.23-2.27,1.87-2.27.39,0,2.16.13,2.16,1.67a56.15,56.15,0,0,1-1.3,6.42c3.48,1.66,3.51,2.26,3.51,3s-.49,2-1.56,2c-.44,0-.68-.08-1.48-.84-.37-.33-.86-.75-1.36-1.14A11.07,11.07,0,0,1,214,22.67Zm-9.65-9.8A7.57,7.57,0,0,0,202,18.1c0,.52,0,1.22.73,1.22,1.3,0,3.46-5.25,4.44-7.78A4.82,4.82,0,0,0,204.33,12.87Z"/></g></g></svg>