<svg xmlns="http://www.w3.org/2000/svg" viewBox="0 0 70 71.44"><defs><style>.cls-1{fill:#ff422e;}</style></defs><title>アセット 31</title><g id="レイヤー_2" data-name="レイヤー 2"><g id="レイヤー_1-2" data-name="レイヤー 1"><path class="cls-1" d="M7.43,53.68h2.62a7.43,7.43,0,0,0,7.43-7.43V28.83a7.43,7.43,0,0,0-7.43-7.43H7.43A7.43,7.43,0,0,0,0,28.83V46.25A7.43,7.43,0,0,0,7.43,53.68Z"/><path class="cls-1" d="M62.56,24.09V12.42L50.14,0h-29V46.25A11.19,11.19,0,0,1,9.92,57.43H7.31A11.12,11.12,0,0,1,0,54.69v7.55a9.2,9.2,0,0,0,9.2,9.2H60.8a9.2,9.2,0,0,0,9.2-9.2V33.13A9.22,9.22,0,0,0,62.56,24.09ZM24.85,3.75H48.59l.19.19v9.91H58.7l.11.12v10h-34Zm7.22,56.3a2.43,2.43,0,1,1,2.43-2.42A2.42,2.42,0,0,1,32.07,60.05Zm0-7.91a2.43,2.43,0,1,1,2.43-2.42A2.42,2.42,0,0,1,32.07,52.14Zm0-7.91a2.43,2.43,0,1,1,2.43-2.42A2.42,2.42,0,0,1,32.07,44.23ZM44.56,60.05A2.43,2.43,0,1,1,47,57.63,2.42,2.42,0,0,1,44.56,60.05Zm0-7.91A2.43,2.43,0,1,1,47,49.72,2.42,2.42,0,0,1,44.56,52.14Zm0-7.91A2.43,2.43,0,1,1,47,41.81,2.42,2.42,0,0,1,44.56,44.23ZM57.05,60.05a2.43,2.43,0,1,1,2.43-2.42A2.42,2.42,0,0,1,57.05,60.05Zm0-7.91a2.43,2.43,0,1,1,2.43-2.42A2.42,2.42,0,0,1,57.05,52.14Zm0-7.91a2.43,2.43,0,1,1,2.43-2.42A2.42,2.42,0,0,1,57.05,44.23Zm.12-8.53h-25a2.5,2.5,0,1,1,0-5h25a2.5,2.5,0,1,1,0,5Z"/></g></g></svg>