<svg xmlns="http://www.w3.org/2000/svg" viewBox="0 0 70 52.63"><defs><style>.cls-1{fill:#007cd0;}</style></defs><title>アセット 32</title><g id="レイヤー_2" data-name="レイヤー 2"><g id="レイヤー_1-2" data-name="レイヤー 1"><polygon class="cls-1" points="70 31.68 60.97 22.29 70 14.5 70 31.68"/><polygon class="cls-1" points="9.04 22.29 0 31.69 0 14.5 9.04 22.29"/><path class="cls-1" d="M70,40.21v8.64a3.78,3.78,0,0,1-3.78,3.78H3.78A3.78,3.78,0,0,1,0,48.85V40.21l13.53-14L29,39.47a9.52,9.52,0,0,0,12.05,0L56.47,26.16Z"/><path class="cls-1" d="M70,3.77V7.56L37,36a3.24,3.24,0,0,1-4,0L0,7.56V3.77A3.77,3.77,0,0,1,3.78,0H66.22A3.77,3.77,0,0,1,70,3.77Z"/></g></g></svg>