<svg xmlns="http://www.w3.org/2000/svg" viewBox="0 0 273.34 30.11"><defs><style>.cls-1{fill:#0069d0;}</style></defs><title>アセット 23</title><g id="レイヤー_2" data-name="レイヤー 2"><g id="レイヤー_1-2" data-name="レイヤー 1"><path class="cls-1" d="M4.22,14.62c-.51.07-2.84.36-3.13.36A1.09,1.09,0,0,1,0,13.82c0-1.08.16-1.08,5.86-1.53.67-.07,3.64-.23,4.22-.32,3.33-.48,6.37-7,6.85-8.1C17.92,1.76,18.27,1,19.61,1c1.09,0,2.53.9,2.53,2.15,0,1-1.76,3.42-2.78,4.76-2.08,2.76-2.88,3.27-3.65,3.72,1.6-.13,9.5-.58,10-.58a1,1,0,0,1,1.12,1.09c0,1.09-.9,1.09-1.25,1.09a23.73,23.73,0,0,0-6.85.83c-5.28,1.73-7.33,4.89-7.33,8,0,3.94,2.88,5,6.27,5,.58,0,3-.26,3.52-.26A1.15,1.15,0,0,1,22.33,28c0,1.25-.89,1.25-3.61,1.25-3.87,0-11.81-.29-11.81-6.95,0-5.24,5.31-7.74,7.46-8.51C10.78,14.05,8.8,14.18,4.22,14.62Zm3.56-11c3.07,2.24,3.9,3,3.9,4.07a2.65,2.65,0,0,1-2.5,2.4c-1,0-1.21-.35-2.49-2.63A20.13,20.13,0,0,0,3.94,3.65C3.36,3,3.26,2.88,3.26,2.5a1,1,0,0,1,1.06-1C4.83,1.47,7.07,3.07,7.78,3.58Z"/><path class="cls-1" d="M48.48,20c-1.41,4.19-3.07,6.72-6.53,6.72-4.67,0-7.45-4.84-7.45-9.76,0-6.66,4.86-14.18,15.07-14.18,7,0,13.4,3.62,13.4,12.13C63,26.4,51.58,27.77,50.91,27.77a1.07,1.07,0,0,1-1.09-1.08c0-.77.32-.87,1.67-1.35,4.41-1.6,6.68-7,6.68-11,0-6.46-4.41-8.19-7.32-9C50.21,13,50,15.55,48.48,20ZM41.31,9.12a18.13,18.13,0,0,0-2.75,9.54c0,4.76,2,5.56,2.82,5.56,1.4,0,2.4-3.1,2.75-4.29,1.57-5,1.85-10.71,2.11-14.65A9,9,0,0,0,41.31,9.12Z"/><path class="cls-1" d="M72.32,13.34C71.33,14.46,70,16,69.38,16a.86.86,0,0,1-.9-.83,1.22,1.22,0,0,1,.35-.77A37,37,0,0,0,74.27,2.66C74.82.64,75,0,76.54,0s2.82,1,2.82,2.18c0,1-2,4.32-2.88,5.76l0,19.42c0,1.21,0,2.75-2.08,2.75s-2.05-1.57-2.05-2.75Zm6.27.71a1.51,1.51,0,0,1-.45.06.84.84,0,0,1-.8-.83c0-.54.39-.74.84-.86l2.43-.64V5.57c0-1.09,0-2.82,2.11-2.82s2.18,1.7,2.18,2.82v5.12L87.49,10V2.62c0-1.15,0-2.62,2-2.62s2.08,1.44,2.08,2.62V9l3.78-1a2.91,2.91,0,0,1,.77-.1,2.3,2.3,0,0,1,2.3,2.47,50,50,0,0,1-.77,7.93c-.57,2.11-1.63,2.27-3.49,2.27H92.61a.91.91,0,0,1-1-.61v1.16c0,1.15,0,2.62-2,2.62s-2-1.44-2-2.62V11.74l-2.59.68V26.85c0,.57.15.92.92.92h5.83c1.18,0,2.27,0,2.81-3.26.35-2,.45-2.56,1.89-2.56,1.79,0,2.37.93,2.37,1.66a10.61,10.61,0,0,1-1.28,4.52c-.8,1.15-2.15,1.4-3.91,1.4H83.94c-2.44,0-3.33-1.34-3.33-3.07V13.54Zm13-3.36v8.7a.91.91,0,0,1,1-.61c.41,0,.57,0,.8-.32.51-.67.73-6.49.73-7.48,0-.77-.45-.8-.73-.74Z"/><path class="cls-1" d="M118.88,20c-1.41,4.19-3.07,6.72-6.53,6.72-4.67,0-7.45-4.84-7.45-9.76,0-6.66,4.86-14.18,15.07-14.18,7,0,13.4,3.62,13.4,12.13,0,11.52-11.39,12.89-12.06,12.89a1.07,1.07,0,0,1-1.09-1.08c0-.77.32-.87,1.67-1.35,4.41-1.6,6.68-7,6.68-11,0-6.46-4.41-8.19-7.32-9C120.61,13,120.38,15.55,118.88,20ZM111.71,9.12A18.13,18.13,0,0,0,109,18.66c0,4.76,2.05,5.56,2.82,5.56,1.4,0,2.4-3.1,2.75-4.29,1.57-5,1.85-10.71,2.11-14.65A9,9,0,0,0,111.71,9.12Z"/><path class="cls-1" d="M157.79,8.74V3.36c0-.54,0-2.18,2.37-2.18s2.37,1.57,2.37,2.18V8.74h4.28c.68,0,1.22.32,1.22,1,0,.22,0,1-1.22,1h-4.28c0,7,0,11.72-4.61,15-3.59,2.49-8.86,3-9,3a1.05,1.05,0,0,1-1-1.05c0-.83.51-.93,1.76-1.19,8.16-1.69,8.16-7.16,8.16-15.71h-7v6.66c0,.61,0,2.24-2.36,2.24s-2.37-1.51-2.37-2.24V10.78h-4.48c-.64,0-1.25-.25-1.25-1,0-1,.9-1,1.25-1h4.48V3.42c0-.6,0-2.24,2.33-2.24s2.4,1.51,2.4,2.24V8.74Z"/><path class="cls-1" d="M202.43,13.66A1.3,1.3,0,0,1,203.74,15a1.26,1.26,0,0,1-1.31,1.37H176.51A1.27,1.27,0,0,1,175.2,15a1.29,1.29,0,0,1,1.31-1.38Z"/><path class="cls-1" d="M219,22.88C219,26,220.38,26,226.37,26a39.77,39.77,0,0,0,6.59-.38c.35,0,2-.39,2.33-.39a1.22,1.22,0,0,1,1.19,1.25c0,1.12-1.09,1.22-1.89,1.31a53.76,53.76,0,0,1-6.21.23c-11.87,0-14.08,0-14.08-5.54V3.87c0-.64,0-2.24,2.37-2.24S219,3.14,219,3.87v8.48a35.82,35.82,0,0,0,11.71-3.87c1.34-.7,1.66-.86,2.27-.86a2.31,2.31,0,0,1,2.27,2.2c0,1.32-.8,1.51-5.18,2.76A72.32,72.32,0,0,1,219,14.66ZM236.8,5.12a1.33,1.33,0,0,1-1.28,1.28c-.51,0-.64-.19-1.31-1.15a13.77,13.77,0,0,0-1.67-1.95,1,1,0,0,1-.35-.74,1,1,0,0,1,1.06-.9C233.76,1.76,236.8,4.13,236.8,5.12Zm2.75-2a1.25,1.25,0,0,1-1.22,1.19c-.48,0-.57-.13-1.31-1-.29-.32-1-1-1.53-1.6a.87.87,0,0,1-.36-.7.94.94,0,0,1,1-.9C236.51.06,239.55,2.05,239.55,3.1Z"/><path class="cls-1" d="M249.41,6c-.35,0-1.22,0-1.22-1s.87-1,1.22-1h16.83A2.42,2.42,0,0,1,268.7,6.4c0,1.66-2.27,6.59-4.93,10.3a49.57,49.57,0,0,1,7.49,4.87c1.73,1.37,2.08,1.92,2.08,2.59a2.57,2.57,0,0,1-2.59,2.43c-1.06,0-1.38-.45-2.75-2.4a25.1,25.1,0,0,0-5.7-5.66c-5.12,6.14-14.14,8.57-14.78,8.57a1,1,0,0,1-1-1.05,1.12,1.12,0,0,1,.86-1.06,23,23,0,0,0,12.93-10.4,21.27,21.27,0,0,0,2.85-7.74.76.76,0,0,0-.83-.83Z"/></g></g></svg>