<svg xmlns="http://www.w3.org/2000/svg" viewBox="0 0 345.6 30.21"><defs><style>.cls-1{fill:#20b97b;}</style></defs><title>アセット 22</title><g id="レイヤー_2" data-name="レイヤー 2"><g id="レイヤー_1-2" data-name="レイヤー 1"><path class="cls-1" d="M14.75,4.48C8,11.87,1,13.7.86,13.7A.92.92,0,0,1,0,12.8a1,1,0,0,1,.64-.9C7.46,8.16,9.7,4.7,11.36,2.14,12.29.7,13.06,0,15.33,0c2.62,0,3,.58,4.86,3.52S26.37,10.14,30,11.9a1,1,0,0,1,.67.9.91.91,0,0,1-.86.9c-.51,0-7.14-2.28-12.61-7.84-.25-.26-1.28-1.35-1.5-1.57-.07-.1-.22-.07-.35-.07C14.91,4.22,14.91,4.32,14.75,4.48ZM7.84,13.41c0-1.19,0-2.79,2.24-2.79s2.3,1.67,2.3,2.79v2.36c0,5.67-1.24,9.41-6.17,12.32a16.36,16.36,0,0,1-4.8,2,.9.9,0,0,1-.87-.9c0-.57.42-.77.87-1,5.92-2.88,6.43-7.84,6.43-11.46Zm14.88,14c0,1,0,2.69-2.18,2.69s-2.17-1.5-2.17-2.69V13.31c0-1.15,0-2.69,2.14-2.69s2.21,1.6,2.21,2.69Z"/><path class="cls-1" d="M45.44,5.89c.42,0,1.09.13,1.09.89s-.74.9-1.09.9H36.77c-.42,0-1.09-.13-1.09-.9s.7-.89,1.09-.89Zm-.8-4.55c.42,0,1.09.1,1.09.9s-.71.86-1.09.86h-7.3c-.38,0-1.08-.09-1.08-.86s.73-.9,1.08-.9Zm0,9.09c.42,0,1.09.1,1.09.86s-.71.9-1.09.9h-7.3c-.38,0-1.08-.1-1.08-.9s.73-.86,1.08-.86Zm0,4.51c.42,0,1.09.1,1.09.9s-.71.86-1.09.86h-7.3c-.38,0-1.08-.09-1.08-.86s.73-.9,1.08-.9Zm1,12.23c0,1.88-1.37,2.43-2.81,2.43H39.07c-1.63,0-2.81-.71-2.81-2.43V21.76c0-1.89,1.4-2.43,2.81-2.43h3.75c1.63,0,2.81.7,2.81,2.43ZM42.08,22c0-.64-.13-.83-.83-.83-1,0-1.25,0-1.25.83v5c0,.64.16.84.86.84,1,0,1.22,0,1.22-.84Zm16.8-5.73v1.63h5.53c.32,0,1.06.07,1.06.84s-.74.86-1.06.86H50.3c-1.4,0-2.81-.54-2.81-2.43v-4c-1,.83-1.22.83-1.41.83a.9.9,0,0,1-.9-.9.7.7,0,0,1,.2-.54A24.16,24.16,0,0,0,48.32,7.1a1.71,1.71,0,0,1,2-1.24,3.37,3.37,0,0,1-.16-1.51H47.46c-.36,0-1.09-.09-1.09-.89s.7-.9,1.09-.9h2.65c0-1.06,0-2.4,2.08-2.4s2,1.41,2,2.4h3.48c0-1,0-2.4,2.08-2.4s2.08,1.54,2.08,2.4h2.47c.32,0,1.09.06,1.09.9s-.74.89-1.09.89H61.85c0,.9,0,2.4-2.11,2.4a2.19,2.19,0,0,1-1.18-.29,1.24,1.24,0,0,1,.09.48,2,2,0,0,1-.54,1.22h6c.28,0,1,.06,1,.83a.89.89,0,0,1-1,.87H58.88v1.5h4.29c.28,0,1,.06,1,.83s-.74.83-1,.83H58.88v1.54h4.29c.28,0,1,0,1,.83s-.74.83-1,.83ZM47.46,22.59c-.39,0-1.09-.1-1.09-.86s.73-.9,1.09-.9H61.89c1.88,0,1.88,1.31,1.88,1.44,0,1.54-4.28,3.87-5.15,4.32,1.7.74,2.15.83,6.18,1.79a.85.85,0,0,1,.7.87.87.87,0,0,1-.89.89,37.26,37.26,0,0,1-9.19-2.08,39.53,39.53,0,0,1-9.34,2.15.9.9,0,0,1-.9-.9.88.88,0,0,1,.8-.86,31.75,31.75,0,0,0,6.31-1.83c-2-1.09-2.5-1.6-2.5-2.33a1.91,1.91,0,0,1,1.54-1.7Zm7.42-11.23V9.86H52.42c-.71,0-.84.19-.84.83v.67ZM51.58,13v1.54h3.3V13Zm0,3.2V17c0,.64.13.86.84.86h2.46V16.22ZM54.21,4.35c0,1,0,2.63-2.27,2.47a1.64,1.64,0,0,1,.31,1.34h2.21c.1-.26.61-1.57.74-1.86a1.45,1.45,0,0,1,1.34-.76,3.82,3.82,0,0,1,1.35.28,2.82,2.82,0,0,1-.2-1.47ZM52.45,22.59c.22.06.28.1.61.45A18.22,18.22,0,0,0,55.45,25c.64-.39,2.21-1.38,2.21-1.92,0-.19-.13-.45-.61-.45Z"/><path class="cls-1" d="M74.05,13.41a32.94,32.94,0,0,1-2.21,2.49,1,1,0,0,1-.77.35.85.85,0,0,1-.86-.83,1.2,1.2,0,0,1,.29-.73,37.49,37.49,0,0,0,5-11.94C75.94.74,76.1,0,77.76,0c1.47,0,2.78,1,2.78,2.14,0,1-1.6,4-2.27,5.15V27.36c0,1.34,0,2.78-2.14,2.78s-2.08-1.5-2.08-2.78Zm18,14c0,1.25,0,2.75-2.14,2.75s-2.11-1.47-2.11-2.75v-6c-3.55,4.77-7.62,6.76-8.1,6.76a.84.84,0,0,1-.86-.87c0-.45.26-.67.61-1A21,21,0,0,0,86,16.8H80.1c-.36,0-1.09-.13-1.09-.9S79.78,15,80.1,15h7.74V12H84.16c-1.63,0-2.82-.68-2.82-2.43V3.62c0-1.89,1.38-2.44,2.82-2.44H95.84c1.63,0,2.81.71,2.81,2.44V9.54c0,1.88-1.37,2.43-2.81,2.43H92.09v3h7.43c.35,0,1.09.09,1.09.89s-.77.9-1.09.9H94a22.19,22.19,0,0,0,6.5,9.25,1,1,0,0,1,.51.83.92.92,0,0,1-.93.89c-.45,0-4.64-2.3-8-6.49ZM94.24,3.81c0-.64-.13-.83-.83-.83H86.53c-.71,0-.87.19-.87.83V9.34c0,.64.16.83.87.83h6.88c.67,0,.83-.12.83-.83Z"/><path class="cls-1" d="M110.56,28c0,.61,0,2.11-1.89,2.11s-1.92-1.25-1.92-2.11V3.62c0-1.48.87-2.44,2.72-2.44h5.12c1.22,0,2.4.71,2.4,1.83a5.34,5.34,0,0,1-.35,1.57l-2.82,7.26a.9.9,0,0,0-.09.38c0,.1,0,.13.32.48a12.63,12.63,0,0,1,3,7.84c0,1.25-.22,4.26-3.45,4.26h-2a.86.86,0,0,1-.89-.87.85.85,0,0,1,.8-.89c.83,0,1.56,0,1.56-2.88a13.85,13.85,0,0,0-1.85-7c-.29-.61-.32-.64-.32-.93a2.16,2.16,0,0,1,.09-.7l2-7.39a2.94,2.94,0,0,0,.13-.52.56.56,0,0,0-.64-.6h-1.12c-.67,0-.8.19-.8.83ZM128,12.22h3.52c1.63,0,2.81.67,2.81,2.44v3.71c0,1.88-1.37,2.43-2.81,2.43h-2.91a12.43,12.43,0,0,0,6.62,7.33A1,1,0,0,1,136,29a.89.89,0,0,1-.87.9,16.43,16.43,0,0,1-9.37-6.05,16.4,16.4,0,0,1-9.34,6.05.87.87,0,0,1-.87-.9c0-.54.42-.73.74-.89a12.43,12.43,0,0,0,6.65-7.33h-2.72c-1.63,0-2.81-.71-2.81-2.43V14.66c0-1.89,1.37-2.44,2.81-2.44h3.43V10h-2.82c-1.12,0-1.15-.77-1.06-1.18a12.69,12.69,0,0,1-2.87,1.5.9.9,0,0,1-.93-.89,1,1,0,0,1,.48-.8,20.41,20.41,0,0,0,6.27-6.95C123.42.48,124.19.1,126,.1c2.08,0,2.69.54,3.43,1.79a21.77,21.77,0,0,0,6.11,6.69.91.91,0,0,1,.48.8.89.89,0,0,1-.9.89,16.17,16.17,0,0,1-3.29-1.73,1,1,0,0,1,.19.52c0,.83-.8.89-1.09.89H128Zm3.29-4a27,27,0,0,1-5-4.16.43.43,0,0,0-.32-.19.45.45,0,0,0-.32.19,26.94,26.94,0,0,1-4.93,4.13h10.18C131.07,8.16,131.17,8.19,131.29,8.19ZM123.65,14h-1.38c-.7,0-.86.23-.86.87v3.32c0,.64.16.84.86.84h1.38ZM128,19h1.47c.7,0,.83-.2.83-.84V14.85c0-.64-.13-.87-.83-.87H128Z"/><path class="cls-1" d="M169.89,27.74c.41,0,1.08.1,1.08.87s-.73.89-1.08.89H154c-4.92,0-6.33-.83-7.9-3-1.12,1.44-2.78,3.36-3.81,3.36s-1.57-1-1.57-2.17a1.61,1.61,0,0,1,.71-1.57c.38-.29,2.33-1.15,2.72-1.35V16.48c0-.61-.13-.83-.83-.83H142c-.39,0-1.09-.1-1.09-.9s.73-.9,1.09-.9h3.29c1.63,0,2.82.71,2.82,2.44v7.87c.45,2.46,1.92,3.58,6.88,3.58ZM144,6.85A17.75,17.75,0,0,0,141.44,2a.91.91,0,0,1-.26-.61.9.9,0,0,1,.9-.9c.83,0,6.75,4.77,6.75,6.88a2.73,2.73,0,0,1-2.4,2.53C145,9.92,144.86,9.57,144,6.85Zm13.85,4h-2.68c-.71,0-.84.19-.84.83V23.65c0,1.15,0,2.52-2.11,2.52s-2-1.44-2-2.52V11.52c0-1.73,1.18-2.43,2.82-2.43h1.66a1.55,1.55,0,0,1-.32-.42c-.1-.16-.45-1-.55-1.21a9.94,9.94,0,0,1-1.12-2,.77.77,0,0,1,.13-.42h-2.81C149.66,5,149,4.9,149,4.1s.67-.9,1.09-.9h7.68v-1a2.13,2.13,0,0,1,4.25,0v1h7.68c.35,0,1.09.1,1.09.9s-.7.89-1.09.89h-4a1.7,1.7,0,0,1,1,1.51c0,1.28-2.46,2.3-3.13,2.59h2.84c1.44,0,2.82.54,2.82,2.43V23.65c0,1.76-1.18,2.43-2.82,2.43H163.1c-.38,0-1.09-.1-1.09-.9s.68-.89,1.09-.89h1.19c.7,0,.83-.2.83-.84V11.71c0-.64-.16-.83-.83-.83h-2.66v2.17h2.27c.35,0,1.09.07,1.09.87s-.7.89-1.09.89h-2.27v2a2.37,2.37,0,0,1,1.66.61,2.19,2.19,0,0,1,.61,1.7v2.08a2.23,2.23,0,0,1-2.56,2.3h-3.26c-1.44,0-2.56-.64-2.56-2.3V19.17c0-1.44.8-2.21,2.33-2.31v-2h-2.3c-.35,0-1.09-.09-1.09-.89s.71-.87,1.09-.87h2.3Zm-3-5.89c3.2,1.31,3.32,2.24,3.32,2.82a1.41,1.41,0,0,1-.7,1.28h3.68a.74.74,0,0,1-.06-.35,3.36,3.36,0,0,1,.57-1.12A23,23,0,0,1,163.29,5Zm5.88,14.43c0-.8-.06-.8-1.34-.8-.64,0-.67.32-.67.8V21c0,.77.09.77,1.37.77.64,0,.64-.32.64-.77Z"/><path class="cls-1" d="M193.63,26.62c0,1.25,0,2.82-2.14,2.82s-2.24-1.6-2.24-2.82V19h-6.56c-.9,5.64-3.07,8.39-4.61,10-.64.64-.77.8-1.18.8a.88.88,0,0,1-.87-.83c0-.26,0-.32.48-1.19,1.76-3.36,2.15-7.13,2.15-12.67V4.51c0-1.66.83-3.07,3.32-3.07h19.43c2.43,0,3.32,1.34,3.32,3.07V26.59c0,1.7-.83,3.07-3.32,3.07h-4.48c-.39,0-1.09-.13-1.09-.89s.73-.9,1.09-.9h2.2c1,0,1.25-.45,1.25-1.25V19h-6.75Zm-4.38-15.55H183v3c0,1-.06,2.27-.13,3.16h6.34Zm0-7.84H184c-.74,0-.93.32-.93.93V9.31h6.21Zm4.38,6.08h6.75V4.16c0-.61-.19-.93-.93-.93h-5.82Zm0,7.9h6.75V11.07h-6.75Z"/><path class="cls-1" d="M230.05,8.8V3.42c0-.54,0-2.17,2.36-2.17s2.37,1.57,2.37,2.17V8.8h4.29c.67,0,1.22.32,1.22,1,0,.23,0,1-1.22,1h-4.29c0,6.94,0,11.71-4.61,14.94-3.58,2.5-8.86,3-9,3a1.06,1.06,0,0,1-1-1.06c0-.83.51-.93,1.76-1.18,8.16-1.7,8.16-7.17,8.16-15.71h-7V17.5c0,.61,0,2.24-2.37,2.24s-2.37-1.5-2.37-2.24V10.85h-4.48c-.64,0-1.24-.26-1.24-1,0-1,.89-1.06,1.24-1.06h4.48V3.49c0-.61,0-2.24,2.34-2.24s2.4,1.5,2.4,2.24V8.8Z"/><path class="cls-1" d="M274.69,13.73A1.3,1.3,0,0,1,276,15.07a1.26,1.26,0,0,1-1.31,1.38H248.77a1.27,1.27,0,0,1-1.31-1.35,1.28,1.28,0,0,1,1.31-1.37Z"/><path class="cls-1" d="M291.3,22.94c0,3.07,1.34,3.07,7.32,3.07a39.7,39.7,0,0,0,6.59-.38c.36,0,2-.38,2.34-.38a1.21,1.21,0,0,1,1.18,1.24c0,1.12-1.08,1.22-1.88,1.32a58.5,58.5,0,0,1-6.21.22c-11.87,0-14.08,0-14.08-5.54V3.94c0-.64,0-2.24,2.37-2.24s2.37,1.5,2.37,2.24v8.48A36.23,36.23,0,0,0,303,8.54c1.34-.7,1.66-.86,2.27-.86a2.31,2.31,0,0,1,2.27,2.21c0,1.31-.8,1.5-5.18,2.75a71.09,71.09,0,0,1-11.07,2.08ZM309.05,5.18a1.32,1.32,0,0,1-1.28,1.28c-.51,0-.64-.19-1.31-1.15a13.88,13.88,0,0,0-1.66-1.95,1,1,0,0,1-.35-.74,1,1,0,0,1,1.05-.89C306,1.82,309.05,4.19,309.05,5.18Zm2.76-2a1.26,1.26,0,0,1-1.22,1.18c-.48,0-.58-.13-1.31-1-.29-.32-1-1-1.54-1.6a.89.89,0,0,1-.35-.71.93.93,0,0,1,1-.89C308.77.13,311.81,2.11,311.81,3.17Z"/><path class="cls-1" d="M321.66,6.08c-.35,0-1.21,0-1.21-1s.86-1,1.21-1h16.83A2.43,2.43,0,0,1,341,6.46c0,1.67-2.27,6.59-4.93,10.31a50.29,50.29,0,0,1,7.49,4.86c1.73,1.38,2.08,1.92,2.08,2.59A2.58,2.58,0,0,1,343,26.65c-1.06,0-1.38-.44-2.76-2.4a25.26,25.26,0,0,0-5.69-5.66c-5.12,6.14-14.14,8.58-14.78,8.58a1,1,0,0,1-1-1.06,1.11,1.11,0,0,1,.86-1.06,23.08,23.08,0,0,0,12.93-10.39,21.28,21.28,0,0,0,2.84-7.75.77.77,0,0,0-.83-.83Z"/></g></g></svg>