<svg xmlns="http://www.w3.org/2000/svg" viewBox="0 0 347.9 74.76"><defs><style>.cls-1{fill:#434343;}</style></defs><title>アセット 29</title><g id="レイヤー_2" data-name="レイヤー 2"><g id="レイヤー_1-2" data-name="レイヤー 1"><path class="cls-1" d="M5.1,7.08c-1,.08-2,.16-3.36.16-.34,0-.44-.12-.48-.42s-.14-1-.22-1.74a10.22,10.22,0,0,0,1.56.1c.84,0,1.7-.08,2.54-.16,0-.66,0-1.42,0-2.28A7.39,7.39,0,0,0,5,1.12a11.33,11.33,0,0,1,2.38.36c.24.06.4.2.4.38a.71.71,0,0,1-.12.32A2.45,2.45,0,0,0,7.4,3c-.06.52-.08,1-.1,1.66a19.61,19.61,0,0,0,2.56-.74c.18-.06.32,0,.34.18a10.05,10.05,0,0,1,.12,1.56c0,.2-.06.26-.26.32A20.38,20.38,0,0,1,7.2,6.7c0,1,0,1.94,0,2.9a12.62,12.62,0,0,1,4.92-1.1,4,4,0,0,1,4.26,4c0,2.56-1.64,4.06-4.34,4.06a7.75,7.75,0,0,1-1.64-.18.54.54,0,0,1-.44-.6,3.49,3.49,0,0,0-.6-1.7,7.46,7.46,0,0,0,2.5.36A2,2,0,0,0,14,12.38c0-1.3-.8-2-2.2-2A9.89,9.89,0,0,0,7.2,11.72c0,.84,0,1.52.08,2.4s.16,2.14.16,2.6c0,.28,0,.58-.3.66a8.13,8.13,0,0,1-1.48.24c-.22,0-.3-.14-.48-.4a12.3,12.3,0,0,0-2.84-2.56,3.62,3.62,0,0,0-.64.44.5.5,0,0,1-.34.14.56.56,0,0,1-.44-.32C.7,14.56.3,13.72,0,13.06a7.38,7.38,0,0,0,1.84-.7c.86-.48,1.8-1,3.26-1.86ZM3.24,14a20.51,20.51,0,0,0,1.88.9c.16,0,.22,0,.2-.16,0-.52-.08-1.44-.12-2.1C4.64,13,4,13.44,3.24,14ZM12.8,3.46c.14-.22.2-.28.34-.24a9.51,9.51,0,0,1,4.24,2.44c.08.08.12.14.12.2a.52.52,0,0,1-.08.2c-.26.4-.78,1-1.08,1.42-.06.08-.34.1-.4,0A9.23,9.23,0,0,0,11.88,5,12.27,12.27,0,0,1,12.8,3.46Z"/><path class="cls-1" d="M36.26,1.82c1.86,0,2.52,0,2.64,0s.22,0,.22.22,0,.46,0,1v.82c0,1.7,0,2,0,2.14s0,.22-.22.22H37.26c-.2,0-.22,0-.22-.22V3.58h-8.5c.56.1,1.12.26,1.62.4.18.06.28.12.28.24s-.1.2-.24.28a1.47,1.47,0,0,0-.38.4l-.16.2H33.9A1.27,1.27,0,0,0,34.4,5a.86.86,0,0,1,.28-.08c.12,0,.3.08.8.62s.56.68.56.88-.06.26-.26.34a3.55,3.55,0,0,0-.7.58,20.91,20.91,0,0,1-2.46,2,30.57,30.57,0,0,0,7.44,1.68,4.81,4.81,0,0,0-.76,1.5c-.16.5-.16.5-.78.38s-1.48-.3-2.16-.48c0,.24,0,.68,0,1.42v1.58c0,2.08,0,2.6,0,2.7s0,.22-.22.22H34.52c-.2,0-.22,0-.22-.22v-.62H27.18v.58c0,.22,0,.24-.22.24h-1.6c-.22,0-.24,0-.24-.24s0-.62,0-2.66V14.1c0-.68,0-1.14,0-1.42-.64.18-1.28.34-2,.5s-.62.14-.84-.38a4.49,4.49,0,0,0-.76-1.26A28.18,28.18,0,0,0,29,9.46,19.12,19.12,0,0,1,26.82,7.8a18.77,18.77,0,0,1-2.44,1.48,1.7,1.7,0,0,1-.48.2c-.12,0-.18-.1-.32-.32a3.6,3.6,0,0,0-1-1.06,13.39,13.39,0,0,0,5.16-3.58,5.48,5.48,0,0,0,.6-.94H24.3V5.92c0,.2,0,.22-.22.22H22.44c-.2,0-.22,0-.22-.22s0-.44,0-2.14V3.12c0-.66,0-1,0-1.12s0-.22.22-.22.78,0,2.64,0h4.4V1.5A6.26,6.26,0,0,0,29.34,0c.7,0,1.46.06,2.14.12.22,0,.32.1.32.2a.93.93,0,0,1-.12.38,2.39,2.39,0,0,0-.1.82v.3ZM35.1,12.14a23.82,23.82,0,0,1-4.3-1.64,23.83,23.83,0,0,1-3.86,1.64ZM27.18,15.9H34.3V13.76H27.18Zm.94-9.18A15.09,15.09,0,0,0,30.74,8.5,17.25,17.25,0,0,0,33.1,6.68H28.16Z"/><path class="cls-1" d="M52.84,10c-1.92,0-2.6,0-2.72,0s-.22,0-.22-.22V9.72a5.09,5.09,0,0,0-.54,1c-.1.24-.16.36-.24.36s-.14-.1-.26-.32a11.48,11.48,0,0,1-1-2.46c0,5.22.14,9.46.14,9.78s0,.22-.22.22H46.22c-.2,0-.22,0-.22-.22s.1-4.14.12-8.72a14.94,14.94,0,0,1-1.68,4c-.12.2-.22.32-.3.32s-.14-.1-.2-.32a5.54,5.54,0,0,0-.7-1.5A17,17,0,0,0,46,5.68h-.22c-1.32,0-1.72,0-1.84,0s-.22,0-.22-.24V4.1c0-.22,0-.24.22-.24s.52,0,1.84,0h.3V2.72A14.54,14.54,0,0,0,45.92,0a17.62,17.62,0,0,1,1.94.14c.2,0,.32.1.32.22a.84.84,0,0,1-.12.42,5.79,5.79,0,0,0-.12,1.88V3.9c1.16,0,1.54,0,1.66,0s.2,0,.2.24V5.48c0,.22,0,.24-.2.24s-.5,0-1.62,0a13.52,13.52,0,0,0,1.92,3.7V8.46c0-.2,0-.22.22-.22s.8,0,2.72,0h1.48V7.06H53.4c-1.78,0-2.38,0-2.5,0s-.22,0-.22-.22V5.64c0-.22,0-.24.22-.24s.72,0,2.5,0h.92V4.24h-1.2c-1.88,0-2.52,0-2.64,0s-.22,0-.22-.2V2.8c0-.2,0-.22.22-.22s.66,0,2.08,0a16.58,16.58,0,0,0-.9-1.68C51.54.76,51.58.7,51.8.6L53,.14c.22-.08.24-.08.38.1a10.72,10.72,0,0,1,1,1.64c.1.2.06.24-.18.34l-1.08.4h3c.28-.54.6-1.18.82-1.7A4.4,4.4,0,0,0,57.14,0a15.7,15.7,0,0,1,1.72.4c.2.06.32.14.32.28A.39.39,0,0,1,59,1a.81.81,0,0,0-.28.36c-.18.36-.42.82-.68,1.24h.12c1.86,0,2.5,0,2.62,0s.24,0,.24.22V4.08c0,.18,0,.2-.24.2s-.76,0-2.62,0H56.22v1.2h1.42c1.8,0,2.38,0,2.5,0s.22,0,.22.24V6.88c0,.2,0,.22-.22.22s-.7,0-2.5,0H56.22V8.28h2.44c1.92,0,2.58,0,2.7,0s.22,0,.22.22V9.78c0,.2,0,.22-.22.22s-.78,0-2.7,0H56.58a14.74,14.74,0,0,0,1.28,2.2A13.88,13.88,0,0,0,59.14,11a3.13,3.13,0,0,0,.5-.7,10.79,10.79,0,0,1,1.28,1c.14.12.22.22.22.34s-.08.2-.26.26a1.62,1.62,0,0,0-.6.38c-.38.36-.8.76-1.36,1.22A13.56,13.56,0,0,0,62.1,15.8a4.35,4.35,0,0,0-1,1.18c-.16.28-.24.4-.34.4s-.22-.1-.44-.26a11.74,11.74,0,0,1-4.16-5c0,1.72.08,3.08.08,4a1.88,1.88,0,0,1-.64,1.7c-.38.28-.88.38-2.18.4-.64,0-.64,0-.78-.62a4.9,4.9,0,0,0-.52-1.28,13.16,13.16,0,0,0,1.42.08c.6,0,.74-.14.74-.66v-1.4a36.21,36.21,0,0,1-3.62,2,1.93,1.93,0,0,0-.62.4.45.45,0,0,1-.28.18c-.08,0-.14-.06-.22-.22-.22-.48-.44-1-.7-1.7A7.12,7.12,0,0,0,50,14.6a36.34,36.34,0,0,0,4.28-2.2V10Zm-.64,3.1c-.2.2-.28.22-.4.06a7.69,7.69,0,0,0-1.66-1.66c-.18-.12-.16-.18,0-.36l.76-.76c.2-.18.26-.18.42-.08A7.89,7.89,0,0,1,53,11.78c.12.16.1.22-.06.38Z"/><path class="cls-1" d="M76,4.52a25,25,0,0,1-2.5,8.62,3.8,3.8,0,0,1-3.4,2.3c-1.76,0-3.54-1.88-3.54-5.14a7.37,7.37,0,0,1,2.26-5.2,8.75,8.75,0,0,1,6.5-2.56c4.8,0,7.62,3,7.62,6.94,0,3.72-2.1,6.06-6.16,7.28-.42.12-.6,0-.86-.36a4.24,4.24,0,0,0-1.4-1.26c3.38-.8,6-2.2,6-6A4.54,4.54,0,0,0,76,4.52ZM70.22,6.46a5.76,5.76,0,0,0-1.56,3.7C68.66,12,69.4,13,70,13s1-.26,1.5-1.22a22.85,22.85,0,0,0,2.12-7.16A6,6,0,0,0,70.22,6.46Z"/><path class="cls-1" d="M99.1,2.88a2.94,2.94,0,0,0,1.38-.18.33.33,0,0,1,.22-.08.66.66,0,0,1,.34.16,7.29,7.29,0,0,1,1.3,1.4.53.53,0,0,1,.1.26.55.55,0,0,1-.26.4,3.66,3.66,0,0,0-.74.88,31.56,31.56,0,0,1-2.56,3.74,47,47,0,0,1,5.54,4.84.45.45,0,0,1,.16.28.49.49,0,0,1-.14.3,10.72,10.72,0,0,1-1.34,1.36.35.35,0,0,1-.24.12.41.41,0,0,1-.28-.16,36.41,36.41,0,0,0-5.2-5,28.77,28.77,0,0,1-6.72,5.28,1.27,1.27,0,0,1-.46.16.45.45,0,0,1-.34-.18,5.48,5.48,0,0,0-1.68-1.3,24.29,24.29,0,0,0,7-5.1,24.53,24.53,0,0,0,3.76-5l-5.16,0c-1,0-2.08,0-3.16.12-.16,0-.22-.12-.26-.34a11.65,11.65,0,0,1-.18-2.08c1.08.08,2.08.08,3.38.08Z"/><path class="cls-1" d="M123.1,4.12a3.68,3.68,0,0,0,1.66-.18.6.6,0,0,1,.28-.1.49.49,0,0,1,.34.16,9.22,9.22,0,0,1,1.44,1.6A.85.85,0,0,1,127,6a.5.5,0,0,1-.26.42,6,6,0,0,0-1,.76,71.5,71.5,0,0,1-5.38,5.36,21.31,21.31,0,0,1,1.76,2,.45.45,0,0,1,.14.3.48.48,0,0,1-.18.32,14.7,14.7,0,0,1-1.3,1.18.53.53,0,0,1-.26.1q-.12,0-.24-.18a30,30,0,0,0-6.42-6.22c.4-.38,1.08-1,1.44-1.34a.42.42,0,0,1,.22-.1.6.6,0,0,1,.28.14A31.25,31.25,0,0,1,118.66,11a44.83,44.83,0,0,0,4.62-4.72l-8.42,0c-1.16,0-2.64,0-3.72.14-.26,0-.32-.12-.36-.36A18.42,18.42,0,0,1,110.54,4c1.36.14,3,.14,4.36.14Z"/><path class="cls-1" d="M136.94,9.68c.18.12.3.24.3.38s-.06.2-.22.32a1.88,1.88,0,0,0-.5.68,15.41,15.41,0,0,1-2.22,3.34.55.55,0,0,1-.4.24.58.58,0,0,1-.3-.12,5.83,5.83,0,0,0-1.7-.84,13.36,13.36,0,0,0,2.42-3.3,4.43,4.43,0,0,0,.54-1.62A9.32,9.32,0,0,1,136.94,9.68Zm2.66-5.5a15.42,15.42,0,0,0-.22-3.08c.94.08,2,.2,2.48.3q.36.06.36.3a.76.76,0,0,1-.12.36,4.65,4.65,0,0,0-.2,2V5.12h2.46c1.74,0,3.1-.08,4.08-.12.18,0,.26.1.26.32a13.53,13.53,0,0,1,0,1.56c0,.26-.08.4-.28.38-1.24,0-2.76-.1-4.12-.1h-2.36l0,4c0,1.06,0,1.92,0,3.48a2.08,2.08,0,0,1-1.18,2.06,6.21,6.21,0,0,1-2.56.66c-.24,0-.36-.12-.48-.42a4.68,4.68,0,0,0-1.34-1.8,10,10,0,0,0,2.72-.24c.32-.14.46-.36.46-.88V7.16h-3.14c-1.14,0-2.52.06-3.46.14-.18,0-.26-.16-.26-.4s-.08-1.26-.08-1.92c1.52.12,2.74.14,3.76.14h3.18ZM145.48,9a.39.39,0,0,1,.26-.1A.38.38,0,0,1,146,9a15.42,15.42,0,0,1,2.86,3.66.53.53,0,0,1,.1.3.39.39,0,0,1-.2.32,11.12,11.12,0,0,1-1.34,1,.66.66,0,0,1-.24.12c-.08,0-.14-.06-.22-.2a19.39,19.39,0,0,0-3-4.2C144.5,9.64,145,9.3,145.48,9Z"/><path class="cls-1" d="M160,3.08a13.61,13.61,0,0,0,.2-2.22,14.64,14.64,0,0,1,2.4.66.42.42,0,0,1,.32.4.42.42,0,0,1-.14.3,2.53,2.53,0,0,0-.4.76c-.26.82-.46,1.56-.72,2.4a15.08,15.08,0,0,1,1.56-.08c1.88,0,2.9,1.28,2.9,3.7A17.17,17.17,0,0,1,165,15.42a2.86,2.86,0,0,1-2.7,1.88,6.53,6.53,0,0,1-2-.22.52.52,0,0,1-.36-.56,5.71,5.71,0,0,0-.38-1.86,6,6,0,0,0,2.2.44c.66,0,1-.24,1.28-1.06a15.41,15.41,0,0,0,.78-5c0-1.42-.26-1.86-1.14-1.86a13.25,13.25,0,0,0-1.68.14,55.23,55.23,0,0,1-4,9.4.33.33,0,0,1-.52.18,9.1,9.1,0,0,1-1.38-.88.41.41,0,0,1-.16-.3.37.37,0,0,1,.08-.22,42.17,42.17,0,0,0,3.66-7.84c-.78.12-1.42.24-2,.34a5.88,5.88,0,0,0-1.1.32A.44.44,0,0,1,155,8.1,18.27,18.27,0,0,1,154.36,6c.88,0,1.76-.06,2.64-.14s1.58-.18,2.36-.3C159.68,4.46,159.82,3.76,160,3.08Zm8.14,1.34c.14-.08.24,0,.38.1a13.38,13.38,0,0,1,3.32,4.86.29.29,0,0,1-.08.4,8.16,8.16,0,0,1-1.5,1c-.2.1-.4.08-.46-.16a13.54,13.54,0,0,0-3.28-5.18A17,17,0,0,1,168.1,4.42Z"/><path class="cls-1" d="M181.28,5.56c.22.1.32.22.32.38a.6.6,0,0,1-.1.3,3.75,3.75,0,0,0-.4,1.06,33.38,33.38,0,0,0-.48,3.64,9.75,9.75,0,0,1,6.68-3.16c2.92,0,4.66,1.7,4.66,4.28a4.9,4.9,0,0,1-3,4.48,17.34,17.34,0,0,1-5.12,1.38c-.44.06-.62,0-.8-.26a5.12,5.12,0,0,0-1.36-1.7,16.6,16.6,0,0,0,5.5-1.12c1.62-.7,2.36-1.74,2.36-3,0-1.08-.68-2.06-2.4-2.06s-3.88,1.14-5.76,3a5.47,5.47,0,0,0-.86,1.1c-.12.2-.2.2-.46.14a13.75,13.75,0,0,1-1.36-.54c-.2-.08-.28-.12-.28-.4.12-2.32.38-4.68.62-6.46a12.46,12.46,0,0,0,.18-1.8A11.25,11.25,0,0,1,181.28,5.56Zm.5-5.06a.33.33,0,0,1,.38-.1,13.12,13.12,0,0,1,3.92,2.38c.1.08.14.14.14.22a.55.55,0,0,1-.1.24,13.1,13.1,0,0,1-1,1.4c-.08.1-.16.16-.22.16s-.14,0-.24-.14a16,16,0,0,0-4-2.6A11,11,0,0,1,181.78.5Z"/><path class="cls-1" d="M215,20.37a15.88,15.88,0,0,1-2.12.13c-2.3,0-3.16-.58-3.8-2.32L208.68,17c-3.6-.26-6-3.12-6-7.94,0-5.12,2.7-8,6.66-8S216,3.9,216,9c0,4.3-1.9,7.08-4.82,7.78l.26.76c.3.76.76,1.06,1.94,1.06a9.5,9.5,0,0,0,2-.22ZM205.54,9c0,3.94,1.52,6,3.8,6s3.78-2,3.78-6-1.5-5.92-3.78-5.92S205.54,5.06,205.54,9Z"/><path class="cls-1" d="M226.42,1.3c3.78,0,5.5,1.52,5.5,4.22a3.94,3.94,0,0,1-3.08,3.94l3.58,7.36h-2.9l-3.14-7-.7,0h-2.2v6.94h-2.64V1.3Zm-2.94,6.58h2.7c2.12,0,3-.88,3-2.32s-.78-2.24-2.92-2.24h-2.82Z"/><path class="cls-1" d="M253.86,5.9h-7a27.52,27.52,0,0,0-3,.12c-.22,0-.3-.1-.3-.34-.06-.54-.1-1.48-.1-2.14a28.61,28.61,0,0,0,3.34.14h5.94c1,0,2.1,0,3.16-.08.32,0,.42.08.4.34,0,1.06,0,2.1,0,3.16v4.78c0,1.46.06,3.06.08,3.62,0,.2-.08.26-.36.28a12.92,12.92,0,0,1-1.76,0c-.32,0-.38,0-.38-.34v-.8H247c-1.26,0-2.32.06-3.28.08-.18,0-.26-.08-.28-.3a19,19,0,0,1-.1-2.08c.94.06,2.1.1,3.68.1h6.86Z"/><path class="cls-1" d="M267.76,10.6a16,16,0,0,0-2.94.24c-.24,0-.4-.12-.46-.42a21.71,21.71,0,0,1-.3-2.42,25.69,25.69,0,0,0,4.32.24h6.44c1.52,0,3.06,0,4.6-.06.3,0,.36,0,.36.28a14.74,14.74,0,0,1,0,1.88c0,.24-.08.32-.36.3-1.5,0-3,0-4.46,0Z"/><path class="cls-1" d="M292.86,6.5a28.21,28.21,0,0,1,6.36,2.72c.22.12.32.26.22.52a11.75,11.75,0,0,1-.86,1.74c-.08.14-.16.22-.26.22a.31.31,0,0,1-.22-.1A22.15,22.15,0,0,0,292.84,9v4.42c0,1.3,0,2.48.08,3.92,0,.24-.08.3-.36.3a13.22,13.22,0,0,1-1.78,0c-.28,0-.38-.06-.38-.3.06-1.48.08-2.66.08-3.94V3.6a15.26,15.26,0,0,0-.2-3,14.76,14.76,0,0,1,2.5.32c.28.06.38.18.38.34a1.05,1.05,0,0,1-.16.46,5.21,5.21,0,0,0-.14,1.88Zm4.66-4.92c.1-.08.18-.06.3,0a9.2,9.2,0,0,1,1.9,2.14.2.2,0,0,1-.06.32l-.84.62a.21.21,0,0,1-.34-.06,9.92,9.92,0,0,0-2-2.32ZM299.3.28c.12-.08.18-.06.3,0a8.35,8.35,0,0,1,1.9,2.06.23.23,0,0,1-.06.36l-.8.62a.21.21,0,0,1-.34-.06,9.46,9.46,0,0,0-2-2.3Z"/><path class="cls-1" d="M318.12,13.9c0,.22-.12.32-.38.36a10.82,10.82,0,0,1-1.42.1c-.18,0-.26-.12-.26-.32,0-.72,0-1.72,0-2.44-1.78.92-2.42,1.7-2.42,2.66s.68,1.38,2.78,1.38a34.18,34.18,0,0,0,5-.4c.18,0,.26,0,.28.22a9,9,0,0,1,.18,1.64c0,.24-.06.38-.22.38a35.57,35.57,0,0,1-5,.26c-3.28,0-5-1-5-3.3,0-1.92,1.2-3.32,4.22-4.88-.06-1-.3-1.42-1.2-1.38a4.83,4.83,0,0,0-2.76,1.44,27,27,0,0,0-2,2.18c-.1.12-.16.18-.24.18a.4.4,0,0,1-.22-.14,9.51,9.51,0,0,1-1.14-1.32.33.33,0,0,1-.08-.18c0-.08,0-.14.14-.22a20.44,20.44,0,0,0,4.18-5c-.94,0-2,.06-3.2.06-.18,0-.24-.1-.28-.32s-.14-1.06-.2-1.66a44.11,44.11,0,0,0,4.6,0,15.41,15.41,0,0,0,.6-1.72,4.87,4.87,0,0,0,.14-1.22,12.63,12.63,0,0,1,2.28.56.36.36,0,0,1,.24.34.39.39,0,0,1-.14.3,1.56,1.56,0,0,0-.34.48c-.12.28-.22.54-.46,1.08a32.17,32.17,0,0,0,3.64-.62c.22,0,.28,0,.32.2a6.74,6.74,0,0,1,.2,1.44c0,.2-.06.28-.34.32-1.5.22-3.22.44-4.68.6a20.64,20.64,0,0,1-1.5,2.22l0,0a4,4,0,0,1,2-.62,2.21,2.21,0,0,1,2.44,2.16c.78-.36,1.92-.88,2.94-1.4a6,6,0,0,0,1.52-1.08,12.32,12.32,0,0,1,1.4,1.76.79.79,0,0,1,.16.44c0,.16-.1.24-.3.28a6.4,6.4,0,0,0-1.22.3c-1.3.46-2.6.9-4.3,1.6Z"/><path class="cls-1" d="M11.1,30.88a2.94,2.94,0,0,0,1.38-.18.33.33,0,0,1,.22-.08.66.66,0,0,1,.34.16,7.29,7.29,0,0,1,1.3,1.4.53.53,0,0,1,.1.26.55.55,0,0,1-.26.4,3.66,3.66,0,0,0-.74.88,31.56,31.56,0,0,1-2.56,3.74,47,47,0,0,1,5.54,4.84.45.45,0,0,1,.16.28.49.49,0,0,1-.14.3,10.72,10.72,0,0,1-1.34,1.36.35.35,0,0,1-.24.12.41.41,0,0,1-.28-.16,36.41,36.41,0,0,0-5.2-5,28.77,28.77,0,0,1-6.72,5.28,1.27,1.27,0,0,1-.46.16.45.45,0,0,1-.34-.18A5.48,5.48,0,0,0,.18,43.2a24.29,24.29,0,0,0,7-5.1,24.53,24.53,0,0,0,3.76-5l-5.16,0c-1,0-2.08,0-3.16.12-.16,0-.22-.12-.26-.34a11.65,11.65,0,0,1-.18-2.08c1.08.08,2.08.08,3.38.08Z"/><path class="cls-1" d="M28.3,31.56a9.66,9.66,0,0,0-.8-2.5A18.82,18.82,0,0,1,30.1,29c.26,0,.4.1.4.3a4.35,4.35,0,0,0,0,1.44l.3,1.68,1.64-.28c1.14-.2,2.54-.44,3.58-.72.1,0,.18.08.22.22a13.78,13.78,0,0,1,.4,1.72c0,.14-.1.2-.3.22-.92.16-2.34.38-3.34.56l-1.76.32.5,2.56,2.9-.5c1.42-.24,2.4-.46,3.14-.66.26-.06.32,0,.34.22a11.22,11.22,0,0,1,.34,1.6.32.32,0,0,1-.3.34c-.6.08-1.8.28-3.22.52L32.22,39l.46,2.22c.28,1.34.62,2.62.88,3.62,0,.1-.08.16-.26.22a13.6,13.6,0,0,1-1.82.42c-.26,0-.38-.08-.4-.24-.14-.74-.36-2.14-.64-3.42l-.5-2.36L27.22,40c-1.36.24-2.48.48-3.24.68a.31.31,0,0,1-.46-.22c-.2-.58-.4-1.34-.56-2,1.22-.14,2.28-.3,3.72-.54l2.8-.46L29,34.86l-1.88.3c-1.1.18-2.44.46-3,.6-.2.06-.3,0-.38-.2a17,17,0,0,1-.56-2c1.08-.08,2.18-.22,3.56-.44l1.82-.28Z"/><path class="cls-1" d="M49.44,38.74a16.23,16.23,0,0,0-2.2.78,1.1,1.1,0,0,1-.36.1c-.14,0-.24-.08-.34-.28a11.21,11.21,0,0,1-.7-1.76,23.87,23.87,0,0,0,3-.66l1.2-.32-.44-1.68a7.61,7.61,0,0,0-.82-2c.82-.1,1.82-.22,2.34-.22.32,0,.46.12.42.4a3.26,3.26,0,0,0,.12,1.44l.38,1.5,4.34-1.1a2.2,2.2,0,0,0,1-.44.35.35,0,0,1,.24-.12.63.63,0,0,1,.34.18,10.79,10.79,0,0,1,1.18,1,.45.45,0,0,1,.16.3.58.58,0,0,1-.22.4,1.54,1.54,0,0,0-.32.42,23.72,23.72,0,0,1-2.26,3.76.38.38,0,0,1-.3.18.57.57,0,0,1-.3-.1,5.35,5.35,0,0,0-1.6-.6,14.44,14.44,0,0,0,2.12-3.06l-3.86,1,.92,3.62c.34,1.26.62,2.24.92,3.36a.39.39,0,0,1-.26.54,6.76,6.76,0,0,1-1.32.4c-.26.06-.42,0-.5-.3-.24-1.12-.52-2.22-.8-3.34l-.94-3.7Z"/><path class="cls-1" d="M68.76,30.76A.37.37,0,0,1,69,30.6a.53.53,0,0,1,.26.1,20.86,20.86,0,0,1,3.82,2.84c.12.12.18.2.18.28a.43.43,0,0,1-.12.26c-.3.4-1,1.2-1.24,1.5-.1.1-.16.16-.24.16s-.16-.06-.26-.16a21.17,21.17,0,0,0-4.08-3.26C67.8,31.78,68.38,31.16,68.76,30.76ZM70.5,41.3a29.65,29.65,0,0,0,5.76-3.72,30,30,0,0,0,5.48-5.44,8.93,8.93,0,0,0,.56,2.34,1,1,0,0,1,.1.38c0,.18-.1.34-.32.6a32.69,32.69,0,0,1-4.6,4.24,43,43,0,0,1-6,3.92,6.9,6.9,0,0,0-1.34.92.55.55,0,0,1-.36.2.52.52,0,0,1-.34-.22,13.86,13.86,0,0,1-1.6-2.22A12,12,0,0,0,70.5,41.3Z"/><path class="cls-1" d="M93.28,43.88A2.9,2.9,0,1,1,90.38,41,2.89,2.89,0,0,1,93.28,43.88Zm-4.56,0a1.66,1.66,0,1,0,1.66-1.66A1.63,1.63,0,0,0,88.72,43.88Z"/><path class="cls-1" d="M111,35.92c0-1.22,0-2,0-2.46-.12,0-.24-.12-.48-.34a6,6,0,0,0-1.14-.82A10.41,10.41,0,0,0,112,28.94a4.21,4.21,0,0,0,.38-1.06c.72.1,1.26.2,1.86.32.22.06.3.12.3.28s-.1.24-.24.34-.18.18-.3.48l-.12.28H116c1.7,0,2.28,0,2.4,0s.22,0,.22.22V31c0,.2,0,.22-.22.22s-.7,0-2.4,0h-.08c.22.34.38.66.58,1,.1.2.08.24-.2.3l-1.3.3c-.3.06-.34,0-.4-.18a8.33,8.33,0,0,0-.58-1.44h-1a12.49,12.49,0,0,1-1.28,1.64c.36,0,.92,0,1.7,0h2.44c1.24,0,1.74,0,1.86,0s.24,0,.24.24,0,.58,0,1.62v1.52c0,1.06,0,1.54,0,1.66s0,.22-.24.22-.62,0-1.86,0h-2.9v5.3c0,1.88,0,2.74,0,2.86s0,.22-.24.22h-1.58c-.2,0-.22,0-.22-.22s0-1,0-2.86Zm2-1.84v.72h3.14v-.72ZM116.08,36h-3.14v.72h3.14Zm-.68,9.64c-.2,0-.22,0-.22-.22s0-.6,0-3.12V41c0-1.32,0-1.84,0-2s0-.22.22-.22.58,0,2,0h2.46c1.46,0,1.92,0,2,0s.22,0,.22.22,0,.64,0,1.66v1.48c0,2.44,0,2.92,0,3s0,.22-.22.22h-1.36c-.2,0-.22,0-.22-.22v-.48H117v.7c0,.2,0,.22-.22.22Zm1.6-4.48h3.36v-1H117Zm3.36,2.22v-1H117v1Zm-1.08-10.5a1.21,1.21,0,0,1-.16-.16,3.49,3.49,0,0,0-1.08-.66A9.26,9.26,0,0,0,120,29a6.33,6.33,0,0,0,.32-1.08c.64.1,1.22.24,1.72.36.22.06.32.12.32.26s-.08.24-.24.34-.16.22-.28.54l-.06.16h3c1.9,0,2.56,0,2.66,0s.22,0,.22.22V31c0,.2,0,.22-.22.22s-.76,0-2.66,0h-.68a10.62,10.62,0,0,1,.64,1.06c.1.18,0,.22-.2.28l-1.22.32h.84c1.48,0,2,0,2.1,0s.22,0,.22.24,0,.76,0,2.14v5.34c0,1.3.08,2.74.08,3.64A2,2,0,0,1,126,45.8c-.36.32-1,.48-2.52.48-.62,0-.62,0-.74-.6a5.43,5.43,0,0,0-.44-1.36,10.42,10.42,0,0,0,1.44.1c.64,0,.8-.16.8-.74V38h-2.92c-1.46,0-2,0-2.08,0s-.22,0-.22-.22,0-.5,0-1.52v-1.8c0-1,0-1.36,0-1.48ZM123,32.8s-.06-.1-.08-.18a10.2,10.2,0,0,0-.74-1.48h-1.12A8.85,8.85,0,0,1,120,32.68l-.08.1c.32,0,.84,0,1.66,0Zm-1.86,1.28v.72h3.36v-.72Zm3.36,2.64V36h-3.36v.72Z"/><path class="cls-1" d="M134.46,43.2c-1.78,0-2.38,0-2.5,0s-.2,0-.2-.22v-1.5c0-.2,0-.22.2-.22s.72,0,2.5,0h5.08V40H137c-2,0-2.66,0-2.8,0s-.22,0-.22-.22,0-.68,0-2V34.3c0-1.3,0-1.84,0-2s0-.2.22-.2.84,0,2.8,0h7.38c2,0,2.66,0,2.78,0s.22,0,.22.2,0,.68,0,2v3.52c0,1.3,0,1.86,0,2s0,.22-.22.22-.82,0-2.78,0h-2.78v1.36h5.32c1.78,0,2.38,0,2.5,0s.2,0,.2.22V43c0,.2,0,.22-.2.22s-.72,0-2.5,0h-5.32v.44c0,1.64,0,2.4,0,2.5s0,.22-.22.22h-1.7c-.18,0-.2,0-.2-.22s0-.86,0-2.5V43.2Zm.48-14.86c.22-.08.28-.08.42.08a16.11,16.11,0,0,1,1.56,2.42c.08.16.06.2-.16.3l-1.46.62c-.26.1-.32.1-.42-.1a13.49,13.49,0,0,0-1.5-2.46c-.14-.16-.1-.22.14-.32Zm4.6,6.9V33.8H136v1.44Zm0,3.08v-1.5H136v1.5Zm.68-10.26c.26-.08.3-.08.42.1a10.55,10.55,0,0,1,1.3,2.6c.08.2.06.22-.18.32l-1.4.54c-.3.12-.32.1-.4-.12a11.79,11.79,0,0,0-1.24-2.68c-.12-.18-.08-.24.18-.32Zm1.36,5.74v1.44h3.72V33.8Zm3.72,3h-3.72v1.5h3.72Zm-.16-7.46a5.33,5.33,0,0,0,.52-1.22c.64.2,1.34.46,1.9.7.14.08.24.18.24.3s-.14.26-.22.34a1.79,1.79,0,0,0-.4.46c-.34.54-.76,1.16-1.16,1.7-.14.18-.24.26-.4.26a1.49,1.49,0,0,1-.48-.12,12.09,12.09,0,0,0-1.38-.42A12.77,12.77,0,0,0,145.14,29.36Z"/><path class="cls-1" d="M163.66,31.52c.18-.06.26-.06.3.16a10.85,10.85,0,0,1,.18,1.62c0,.18-.08.22-.24.24-1.08.22-2.06.36-3.3.54a55.26,55.26,0,0,1-3.9,8.58c-.08.14-.14.2-.22.2a.55.55,0,0,1-.24-.1,9.49,9.49,0,0,1-1.38-1c-.1-.08-.14-.14-.14-.22a.38.38,0,0,1,.1-.24,40.35,40.35,0,0,0,3.46-7c-.76,0-1.38,0-2,0-.44,0-.6,0-1.1,0-.2,0-.24-.06-.28-.32a10.45,10.45,0,0,1-.2-1.7c.82.06,1.28.08,1.86.08.78,0,1.38,0,2.3-.1.24-.84.38-1.52.52-2.24a7.74,7.74,0,0,0,.12-1.62,18.49,18.49,0,0,1,2.34.42c.2,0,.32.16.32.3a.49.49,0,0,1-.18.38,2.2,2.2,0,0,0-.32.74c-.14.48-.3,1.1-.48,1.7A21.49,21.49,0,0,0,163.66,31.52Zm.56,5.36a7,7,0,0,0-.16-1.42,10.81,10.81,0,0,1,2.18.38.31.31,0,0,1,.28.32,2.51,2.51,0,0,1-.12.42,2.08,2.08,0,0,0-.08.82,26.12,26.12,0,0,0,.22,3.4,15.68,15.68,0,0,1,3.6,1.86c.2.14.22.22.12.42a12.31,12.31,0,0,1-.92,1.62c-.06.1-.12.14-.18.14s-.12,0-.2-.12A14.88,14.88,0,0,0,166.52,43c0,2-1.44,2.92-3.72,2.92s-3.68-1.12-3.68-2.84,1.44-2.92,3.7-2.92a10.31,10.31,0,0,1,1.58.12C164.28,39,164.24,37.82,164.22,36.88Zm-1.42,5c-1,0-1.78.4-1.78,1.16s.56,1,1.7,1,1.74-.58,1.74-1.42a2.3,2.3,0,0,0,0-.4A5.1,5.1,0,0,0,162.8,41.92Zm3.72-9.62a.28.28,0,0,1,.42-.14A15.6,15.6,0,0,1,170.86,34c.12.08.18.14.18.22a.48.48,0,0,1-.08.24,12.16,12.16,0,0,1-.84,1.48c-.06.1-.12.14-.18.14a.28.28,0,0,1-.18-.08,17.28,17.28,0,0,0-4.14-2.18C166,33.26,166.26,32.66,166.52,32.3Z"/><path class="cls-1" d="M180.12,42a3.11,3.11,0,0,0,1.74,1.64,11.92,11.92,0,0,0,3.78.4c2.58,0,5.62-.12,8.6-.42a3.11,3.11,0,0,0-.54,1.42c-.12.64-.1.64-.74.68-2.58.14-5,.18-7,.18a13.84,13.84,0,0,1-4.68-.54,4.26,4.26,0,0,1-2.12-1.8,22.3,22.3,0,0,1-1.9,1.68,1.79,1.79,0,0,0-.44.42.33.33,0,0,1-.28.2c-.12,0-.22-.14-.3-.28a15.62,15.62,0,0,1-.78-1.78,10.47,10.47,0,0,0,1.18-.64,10.92,10.92,0,0,0,1.54-1.26V37.48h-.84c-1,0-1.32,0-1.42,0s-.24,0-.24-.24V35.76c0-.2,0-.22.24-.22s.38,0,1.42,0h1.14c1,0,1.36,0,1.46,0s.22,0,.22.22,0,.7,0,1.94Zm-2.8-13.28c.22-.14.28-.14.42,0a16,16,0,0,1,2.52,3c.1.16.08.2-.12.36l-1.08.88a.44.44,0,0,1-.24.12c-.06,0-.12,0-.18-.14a15.55,15.55,0,0,0-2.46-3.12c-.16-.14-.14-.2.1-.34Zm6.5,13.16c-1.94,0-2.62,0-2.74,0s-.24,0-.24-.22V40.46c0-.2,0-.22.24-.22s.8,0,2.74,0h2.26V39.16h-1.44c-1.84,0-2.5,0-2.64,0s-.2,0-.2-.22,0-.62,0-1.8V34.5c0-1.18,0-1.68,0-1.8s0-.24.2-.24.8,0,2.64,0h1.44V31.42H183.9c-1.94,0-2.6,0-2.72,0s-.22,0-.22-.22V30c0-.2,0-.22.22-.22s.78,0,2.72,0h2.18a11.69,11.69,0,0,0-.16-1.68,15.72,15.72,0,0,1,2,.12c.2,0,.32.1.32.22a1.08,1.08,0,0,1-.12.36,2.54,2.54,0,0,0-.12,1h2.48c1.94,0,2.62,0,2.74,0s.22,0,.22.22v1.26c0,.2,0,.22-.22.22s-.8,0-2.74,0H188V32.5h1.56c1.84,0,2.48,0,2.62,0s.22,0,.22.24,0,.62,0,1.8v2.68c0,1.18,0,1.68,0,1.8s0,.22-.22.22-.78,0-2.62,0H188v1.12h2.58c2,0,2.64,0,2.76,0s.22,0,.22.22v1.28c0,.2,0,.22-.22.22s-.8,0-2.76,0H188c0,1,0,1.46,0,1.56s0,.22-.22.22h-1.54c-.18,0-.22,0-.22-.22s0-.52,0-1.56Zm2.26-6.82V33.94h-2.42V35.1Zm0,2.64V36.48h-2.42v1.26Zm1.9-3.8V35.1h2.5V33.94Zm2.5,2.54H188v1.26h2.5Z"/><path class="cls-1" d="M203.9,34.38c.2-.1.22-.08.3.12a17.79,17.79,0,0,1,1.12,3.08,15.75,15.75,0,0,0,3.7-2.14,12.3,12.3,0,0,1-1.52-2,13.34,13.34,0,0,1-1.24,1.36c-.2.2-.32.3-.4.3s-.22-.14-.42-.42a4.4,4.4,0,0,0-1-.88,12.7,12.7,0,0,0,3.38-4.54,6.52,6.52,0,0,0,.38-1.22,15.81,15.81,0,0,1,1.88.36c.2.06.26.14.26.26a.48.48,0,0,1-.2.32,1,1,0,0,0-.38.56c-.08.18-.16.36-.26.54h3.24a1.24,1.24,0,0,0,.52-.08.53.53,0,0,1,.24-.06c.18,0,.3.06.74.48s.58.66.58.82a.36.36,0,0,1-.22.34c-.16.08-.24.2-.48.6a18.53,18.53,0,0,1-2.4,3.26,13.31,13.31,0,0,0,4.64,2.08,5.28,5.28,0,0,0-.6,1.26c-.18.6-.2.6-.76.44a4.61,4.61,0,0,1-.56-.2v.08c0,.14,0,.68,0,2v1.78c0,2.74,0,3.2,0,3.3s0,.22-.24.22H212.7c-.22,0-.24,0-.24-.22v-.86H208.4v.88c0,.2,0,.22-.24.22h-1.5c-.2,0-.22,0-.22-.22s0-.58,0-3.32V41.28c0-1.22,0-1.82,0-2.08l-.44.2a1.15,1.15,0,0,1-.44.14c-.16,0-.22-.14-.36-.52l-.2-.46-.76.28c-.28.1-.32.1-.34-.14l-.18-.8-1.14.12v5.5c0,1.84,0,2.52,0,2.62s0,.22-.22.22h-1.52c-.2,0-.22,0-.22-.22s0-.78,0-2.62V38.18l-1.64.12a2.07,2.07,0,0,0-.76.16.56.56,0,0,1-.3.08c-.12,0-.2-.12-.24-.32-.1-.52-.18-1.06-.24-1.7a13.26,13.26,0,0,0,1.5.08c.38-.48.74-1,1.08-1.46a22.77,22.77,0,0,0-2.6-3,.27.27,0,0,1-.1-.18c0-.08.06-.14.14-.26l.74-1c.16-.2.22-.22.36-.06s.34.34.5.5a17.12,17.12,0,0,0,1.2-2.24,5.53,5.53,0,0,0,.36-1.06,14.27,14.27,0,0,1,1.66.72c.18.1.26.2.26.32a.31.31,0,0,1-.18.26,1.09,1.09,0,0,0-.38.48,32.1,32.1,0,0,1-1.74,2.82c.28.34.58.66.86,1q.72-1.17,1.38-2.34a8.93,8.93,0,0,0,.56-1.26,13.91,13.91,0,0,1,1.66.74c.18.1.24.16.24.28s-.06.22-.22.32a2.61,2.61,0,0,0-.62.78c-1.06,1.68-2.12,3.24-3.08,4.48.72,0,1.44-.06,2.18-.12-.14-.44-.32-.88-.5-1.3-.08-.18,0-.24.2-.34Zm-5.62,6.26a8.94,8.94,0,0,0,0-1.28c.6.1,1.2.22,1.56.32s.32.16.32.24a.54.54,0,0,1-.1.3,2.59,2.59,0,0,0-.16.74,21,21,0,0,1-.66,3.6c-.1.32-.14.48-.26.48a1.24,1.24,0,0,1-.46-.24,6.83,6.83,0,0,0-1.1-.52A11.18,11.18,0,0,0,198.28,40.64Zm5.94-1.38c.24-.08.28-.06.34.14a21.34,21.34,0,0,1,1,3.9c0,.2,0,.26-.26.36l-1,.36c-.3.08-.34.06-.36-.14a19.44,19.44,0,0,0-.82-4c-.06-.2,0-.22.2-.3Zm7.8-.38c1.26,0,1.84,0,2.08,0a14.57,14.57,0,0,1-3.72-2.12,16,16,0,0,1-3.24,2.14c.34,0,.88,0,1.74,0Zm-3.62,4.7h4.06V40.66H208.4Zm.26-11.88-.08.12a9.84,9.84,0,0,0,1.78,2.4,11.33,11.33,0,0,0,1.82-2.52Z"/><path class="cls-1" d="M231.82,42.92c0,.66,0,.82.18,1s.64.28,1.44.28c1,0,1.4-.16,1.68-.44s.48-1,.5-2.72a4.28,4.28,0,0,0,1.46.6c.5.12.5.12.48.62a4.23,4.23,0,0,1-1,3c-.56.58-1.32.86-3.3.86s-2.68-.22-3.08-.6-.48-.74-.48-1.94v-5.5H227.3a9,9,0,0,1-1.42,5,8.41,8.41,0,0,1-4.28,3.12,1.78,1.78,0,0,1-.46.14c-.16,0-.24-.14-.42-.48a6.14,6.14,0,0,0-1.06-1.3A7.22,7.22,0,0,0,224,42.06a6.63,6.63,0,0,0,1.16-4h-2.56c-1.8,0-2.4,0-2.52,0s-.24,0-.24-.22V36.34c0-.18,0-.2.24-.2s.72,0,2.52,0h4.92V33.32h-3.82a15.1,15.1,0,0,1-1.42,1.84c-.2.22-.32.34-.42.34s-.22-.12-.44-.34a5.11,5.11,0,0,0-1.18-.86,12.49,12.49,0,0,0,2.94-4.2,5.08,5.08,0,0,0,.48-1.58,12.9,12.9,0,0,1,1.86.58c.18.08.32.18.32.3a.38.38,0,0,1-.18.3,1.52,1.52,0,0,0-.36.58c-.18.4-.34.8-.52,1.16h2.74v-1.1a10.52,10.52,0,0,0-.14-2.22c.76,0,1.44.08,2.14.16.18,0,.32.1.32.22a1.13,1.13,0,0,1-.12.4,3.42,3.42,0,0,0-.12,1.32v1.22h3.16c1.94,0,2.62,0,2.74,0s.22,0,.22.24v1.5c0,.2,0,.22-.22.22s-.8,0-2.74,0h-3.16v2.86h5.18c1.78,0,2.4,0,2.52,0s.2,0,.2.2V37.9c0,.2,0,.22-.2.22s-.74,0-2.52,0h-3Z"/><path class="cls-1" d="M249.72,29.18c1.44,0,1.88,0,2,0s.26,0,.26.24a11.17,11.17,0,0,0,.12,2.22A15.66,15.66,0,0,0,259.88,44a5.89,5.89,0,0,0-1.18,1.52c-.16.32-.24.46-.36.46s-.24-.1-.46-.26A17.19,17.19,0,0,1,251,35.76a16.83,16.83,0,0,1-7.36,10c-.24.14-.36.24-.46.24s-.22-.16-.42-.48a4.79,4.79,0,0,0-1.18-1.32c5-2.44,7.78-7.22,8-12.94h-2.48c-1.44,0-1.88,0-2,0s-.24,0-.24-.22V29.36c0-.2,0-.22.24-.22s.56,0,2,0Z"/><path class="cls-1" d="M272.88,34.52a17.64,17.64,0,0,1-1,4.82,12.11,12.11,0,0,1-6,6.54,1.86,1.86,0,0,1-.48.18c-.16,0-.26-.12-.48-.42a4.47,4.47,0,0,0-1.26-1.16c3.26-1.42,5.28-3.32,6.22-5.94a15.8,15.8,0,0,0,.84-4h-3.12c-1.92,0-2.58,0-2.68,0s-.24,0-.24-.22V32.7c0-.2,0-.22.24-.22s.76,0,2.68,0h3.22c0-.58,0-1.16,0-1.74a16.35,16.35,0,0,0-.18-2.66,21.06,21.06,0,0,1,2.36.22c.3,0,.4.14.4.28a.84.84,0,0,1-.18.5,5.66,5.66,0,0,0-.16,1.7c0,.54,0,1.12,0,1.7h4.2c1.94,0,2.6,0,2.74,0s.24,0,.24.24c0,.6,0,1.28,0,1.8a57.92,57.92,0,0,1-.62,8.78c-.36,1.92-1.34,2.62-3.34,2.64a14.18,14.18,0,0,1-1.92-.08c-.62-.06-.62-.08-.74-.72a5,5,0,0,0-.58-1.58,15.7,15.7,0,0,0,3,.26c.74,0,1.26-.28,1.46-1.34a48.36,48.36,0,0,0,.52-8Z"/><path class="cls-1" d="M296.24,31.6c.22-.06.3,0,.32.2.06.44.12,1,.14,1.44,0,.26,0,.32-.3.38a31.94,31.94,0,0,1-3.48.76c-1.36,4.44-2.38,7.5-3.66,10.82-.1.28-.22.26-.44.2s-1.18-.5-1.6-.74a.32.32,0,0,1-.16-.4,75.07,75.07,0,0,0,3.46-9.48c-1.16.12-2.56.22-3.5.22-.3,0-.38-.06-.42-.32-.08-.42-.18-1.1-.28-1.82a9.23,9.23,0,0,0,1.48.06,27,27,0,0,0,3.24-.2c.2-.8.36-1.68.5-2.5a13.76,13.76,0,0,0,.12-1.84,11.66,11.66,0,0,1,2.52.56.33.33,0,0,1,.22.32.48.48,0,0,1-.1.32,3.81,3.81,0,0,0-.42.8c-.2.72-.34,1.4-.48,1.9C294.18,32.14,295.26,31.88,296.24,31.6Zm-.78,9.56c.2,0,.28.08.3.28.16,1.46,1.14,1.88,3.06,1.88a29.9,29.9,0,0,0,3.36-.28c.16,0,.22,0,.24.18a12.5,12.5,0,0,1,.16,1.74c0,.24,0,.3-.32.32a22.1,22.1,0,0,1-2.78.22c-2.56,0-3.92-.36-4.82-1.3a3.9,3.9,0,0,1-.9-2.74A10.19,10.19,0,0,1,295.46,41.16Zm-.22-5.3c0-.28.06-.34.36-.4a20.89,20.89,0,0,1,3.9-.46,14.56,14.56,0,0,1,2.34.2c.28,0,.34.06.34.3a14.11,14.11,0,0,1,0,1.6c0,.34-.1.42-.38.36a13.37,13.37,0,0,0-2.48-.24,22.13,22.13,0,0,0-4,.46C295.28,37,295.24,36.26,295.24,35.86Zm4.62-5.7c.1-.08.18-.06.3,0a9.2,9.2,0,0,1,1.9,2.14.2.2,0,0,1-.06.32l-.84.62a.21.21,0,0,1-.34-.06,9.92,9.92,0,0,0-2-2.32Zm1.78-1.3c.12-.08.18-.06.3,0a8.35,8.35,0,0,1,1.9,2.06.23.23,0,0,1-.06.36l-.8.62a.21.21,0,0,1-.34-.06,9.46,9.46,0,0,0-2-2.3Z"/><path class="cls-1" d="M312.92,44.22c0,.14-.06.2-.26.28a5,5,0,0,1-1.38.42c-.24,0-.34,0-.46-.26a17.1,17.1,0,0,1-1.18-6.2,45.59,45.59,0,0,1,.6-6.4,21.62,21.62,0,0,0,.22-3,9.81,9.81,0,0,1,2.1.7c.32.16.44.3.44.44a.72.72,0,0,1-.12.4,11.36,11.36,0,0,0-.38,1.48,37.27,37.27,0,0,0-.76,6,17,17,0,0,0,.2,3.16c.5-1.06.86-1.74,1.34-2.86a5.81,5.81,0,0,0,.66,1.34.6.6,0,0,1,.18.38,1.5,1.5,0,0,1-.24.66,15,15,0,0,0-.9,2.44,2.44,2.44,0,0,0-.06.52Zm6.92-9.06c-1.06.08-1.82.12-2.4.12-.42,0-.94,0-1.68,0-.28,0-.44-.1-.46-.32-.08-.4-.12-.94-.22-1.82.74.08,1.74.1,2.48.1.56,0,1.5,0,2.22-.08,0-1,0-1.9-.12-2.66a6.24,6.24,0,0,0-.34-1.64,12.19,12.19,0,0,1,2.58.28c.22.06.32.16.32.32a.81.81,0,0,1-.14.4,2.44,2.44,0,0,0-.1.84v2.22c.86-.12,1.72-.26,2.56-.44.24-.06.34,0,.36.18.08.5.12,1,.16,1.5,0,.26-.08.34-.26.36-1,.18-1.84.3-2.76.4l0,3.08a10.44,10.44,0,0,1-.88,4.64,7,7,0,0,1-2.86,3.1.89.89,0,0,1-.5.18.42.42,0,0,1-.4-.18,6.6,6.6,0,0,0-1.56-1,6.49,6.49,0,0,0,3.38-3.32,11.05,11.05,0,0,0,.62-4.46Z"/><path class="cls-1" d="M339.9,32.78c-2.44.46-4.58.88-6.72,1.32-.76.18-1,.22-1.26.32a1.17,1.17,0,0,1-.44.16.47.47,0,0,1-.38-.3,13.94,13.94,0,0,1-.74-2.16,27.59,27.59,0,0,0,3.18-.34c2.46-.36,6.86-1,12-1.7.3,0,.4.08.42.22a11.43,11.43,0,0,1,.22,1.76c0,.24-.12.3-.38.3a8.92,8.92,0,0,0-2.44.44c-3.4,1.16-5.1,3.5-5.1,5.9,0,2.58,1.84,4,5.32,4.2.32,0,.44.08.44.3a7.11,7.11,0,0,1-.22,1.72c-.06.3-.14.42-.38.42-3.52,0-7.38-2-7.38-6.18,0-2.84,1.42-4.76,3.84-6.34Zm4,2.16c.1-.08.18-.06.3,0a9.2,9.2,0,0,1,1.9,2.14.2.2,0,0,1-.06.32l-.84.62a.21.21,0,0,1-.34-.06,9.92,9.92,0,0,0-2-2.32Zm1.78-1.3c.12-.08.18-.06.3,0a8.35,8.35,0,0,1,1.9,2.06.23.23,0,0,1-.06.36l-.8.62a.21.21,0,0,1-.34-.06,9.46,9.46,0,0,0-2-2.3Z"/><path class="cls-1" d="M4.82,66.64c.18.1.2.2.1.36a3.29,3.29,0,0,0-.52,1.52c0,1.26,1.3,1.88,4.74,1.88a25.44,25.44,0,0,0,5.42-.58c.28-.06.38,0,.42.18a16.72,16.72,0,0,1,.32,2c0,.18-.1.26-.34.3a30.16,30.16,0,0,1-6,.48c-4.48,0-6.78-1.44-6.78-4a5.28,5.28,0,0,1,1.06-2.86C3.8,66.1,4.3,66.36,4.82,66.64ZM9.34,58.8c1.46,0,3-.1,4.24-.18.2,0,.28.06.3.22a13.17,13.17,0,0,1,.1,1.7c0,.28-.1.4-.34.42a11.65,11.65,0,0,0-4.9,2,.85.85,0,0,1-.5.18A.84.84,0,0,1,7.82,63a4.78,4.78,0,0,0-1.4-.64c1-.68,1.92-1.24,2.62-1.66a13.75,13.75,0,0,1-1.64.06,25,25,0,0,1-3.5-.34c-.18,0-.26-.12-.26-.36,0-.48,0-1.06.08-1.78A25.23,25.23,0,0,0,9.34,58.8Z"/><path class="cls-1" d="M27.22,58.46a6.64,6.64,0,0,0,0-1.94,13.09,13.09,0,0,1,2.4.42c.26.08.4.2.4.36a.66.66,0,0,1-.14.32,2.08,2.08,0,0,0-.34.74c-.1.54-.18.94-.28,1.64A36.57,36.57,0,0,0,33,59.26c.28-.08.38-.06.42.2a9.05,9.05,0,0,1,.14,1.48c0,.22-.06.28-.24.32-1.72.38-2.8.6-4.48.82-.28,1.66-.56,3-.92,4.4a8.65,8.65,0,0,1,5.74-2.12c2.66,0,4.46,1.72,4.46,3.78a4.48,4.48,0,0,1-2.28,4,13.32,13.32,0,0,1-5.1,1.6,9.26,9.26,0,0,1-1.48.14c-.2,0-.34-.1-.5-.48A3.82,3.82,0,0,0,27.66,72a15.58,15.58,0,0,0,5.74-1.1c1.54-.64,2.28-1.56,2.28-2.82,0-1-.76-1.9-2.28-1.9a6.65,6.65,0,0,0-5.26,2.48c-.18.26-.38.5-.56.76s-.2.32-.38.3a5.62,5.62,0,0,1-1.5-.44c-.32-.14-.44-.22-.44-.4a1.36,1.36,0,0,1,.08-.4c.1-.34.18-.64.26-.94.44-1.76.72-3.24,1.06-5.24-1.08.08-2.34.18-3.36.18a.34.34,0,0,1-.38-.28c-.06-.24-.2-1.08-.28-1.74,1.56,0,2.8-.06,4.34-.18C27.08,59.6,27.16,58.94,27.22,58.46Z"/><path class="cls-1" d="M49.28,61.56c.22.1.32.22.32.38a.6.6,0,0,1-.1.3,3.75,3.75,0,0,0-.4,1.06,33.38,33.38,0,0,0-.48,3.64,9.75,9.75,0,0,1,6.68-3.16c2.92,0,4.66,1.7,4.66,4.28a4.9,4.9,0,0,1-3,4.48,17.34,17.34,0,0,1-5.12,1.38c-.44.06-.62,0-.8-.26A5.12,5.12,0,0,0,49.66,72a16.6,16.6,0,0,0,5.5-1.12c1.62-.7,2.36-1.74,2.36-3,0-1.08-.68-2.06-2.4-2.06s-3.88,1.14-5.76,3a5.47,5.47,0,0,0-.86,1.1c-.12.2-.2.2-.46.14a13.75,13.75,0,0,1-1.36-.54c-.2-.08-.28-.12-.28-.4.12-2.32.38-4.68.62-6.46a12.46,12.46,0,0,0,.18-1.8A11.25,11.25,0,0,1,49.28,61.56Zm.5-5.06a.33.33,0,0,1,.38-.1,13.12,13.12,0,0,1,3.92,2.38c.1.08.14.14.14.22a.55.55,0,0,1-.1.24,13.1,13.1,0,0,1-1,1.4c-.08.1-.16.16-.22.16s-.14,0-.24-.14a16,16,0,0,0-4-2.6A11,11,0,0,1,49.78,56.5Z"/><path class="cls-1" d="M72,59.08a13.61,13.61,0,0,0,.2-2.22,14.64,14.64,0,0,1,2.4.66.42.42,0,0,1,.32.4.42.42,0,0,1-.14.3,2.53,2.53,0,0,0-.4.76c-.26.82-.46,1.56-.72,2.4a15.08,15.08,0,0,1,1.56-.08c1.88,0,2.9,1.28,2.9,3.7A17.17,17.17,0,0,1,77,71.42a2.86,2.86,0,0,1-2.7,1.88,6.53,6.53,0,0,1-2-.22.52.52,0,0,1-.36-.56,5.71,5.71,0,0,0-.38-1.86,6,6,0,0,0,2.2.44c.66,0,1-.24,1.28-1.06a15.41,15.41,0,0,0,.78-5c0-1.42-.26-1.86-1.14-1.86a13.25,13.25,0,0,0-1.68.14,55.23,55.23,0,0,1-4,9.4.33.33,0,0,1-.52.18,9.1,9.1,0,0,1-1.38-.88.41.41,0,0,1-.16-.3.37.37,0,0,1,.08-.22,42.17,42.17,0,0,0,3.66-7.84c-.78.12-1.42.24-2,.34a5.88,5.88,0,0,0-1.1.32A.44.44,0,0,1,67,64.1,18.27,18.27,0,0,1,66.36,62c.88,0,1.76-.06,2.64-.14s1.58-.18,2.36-.3C71.68,60.46,71.82,59.76,72,59.08Zm8.14,1.34c.14-.08.24,0,.38.1a13.38,13.38,0,0,1,3.32,4.86.29.29,0,0,1-.08.4,8.16,8.16,0,0,1-1.5,1c-.2.1-.4.08-.46-.16a13.54,13.54,0,0,0-3.28-5.18A17,17,0,0,1,80.1,60.42Z"/><path class="cls-1" d="M93.28,61.56c.22.1.32.22.32.38a.6.6,0,0,1-.1.3,3.75,3.75,0,0,0-.4,1.06,33.38,33.38,0,0,0-.48,3.64,9.75,9.75,0,0,1,6.68-3.16c2.92,0,4.66,1.7,4.66,4.28a4.9,4.9,0,0,1-3,4.48,17.34,17.34,0,0,1-5.12,1.38c-.44.06-.62,0-.8-.26A5.12,5.12,0,0,0,93.66,72a16.6,16.6,0,0,0,5.5-1.12c1.62-.7,2.36-1.74,2.36-3,0-1.08-.68-2.06-2.4-2.06s-3.88,1.14-5.76,3a5.47,5.47,0,0,0-.86,1.1c-.12.2-.2.2-.46.14a13.75,13.75,0,0,1-1.36-.54c-.2-.08-.28-.12-.28-.4.12-2.32.38-4.68.62-6.46a12.46,12.46,0,0,0,.18-1.8A11.25,11.25,0,0,1,93.28,61.56Zm.5-5.06a.33.33,0,0,1,.38-.1,13.12,13.12,0,0,1,3.92,2.38c.1.08.14.14.14.22a.55.55,0,0,1-.1.24,13.1,13.1,0,0,1-1,1.4c-.08.1-.16.16-.22.16s-.14,0-.24-.14a16,16,0,0,0-4-2.6A11,11,0,0,1,93.78,56.5Z"/><path class="cls-1" d="M114.4,67.12c.18.1.2.2.1.36A3.29,3.29,0,0,0,114,69c0,1.26,1.3,1.88,4.74,1.88a25.44,25.44,0,0,0,5.42-.58c.28-.06.38,0,.42.18a16.72,16.72,0,0,1,.32,2c0,.18-.1.26-.34.3a31.74,31.74,0,0,1-5.86.48c-4.62,0-6.88-1.44-6.88-4a5.28,5.28,0,0,1,1.06-2.86C113.38,66.58,113.88,66.84,114.4,67.12Zm4.52-7.84c1.46,0,2.88-.08,4.16-.18.2,0,.28.06.3.22a11.67,11.67,0,0,1,.18,1.7c0,.28-.1.4-.34.42a11.65,11.65,0,0,0-4.9,2,.85.85,0,0,1-.5.18.84.84,0,0,1-.42-.12,4.78,4.78,0,0,0-1.4-.64c1-.68,1.92-1.24,2.62-1.66a12.21,12.21,0,0,1-1.46.06,23.93,23.93,0,0,1-3.68-.34c-.18,0-.26-.12-.26-.36,0-.48,0-1.06.08-1.78A25.23,25.23,0,0,0,118.92,59.28Zm5.44-2.22c.1-.08.18-.06.3,0a9.2,9.2,0,0,1,1.9,2.14.2.2,0,0,1-.06.32l-.84.62a.21.21,0,0,1-.34-.06,9.92,9.92,0,0,0-2-2.32Zm1.78-1.3c.12-.08.18-.06.3,0a8.35,8.35,0,0,1,1.9,2.06.23.23,0,0,1-.06.36l-.8.62a.21.21,0,0,1-.34-.06,9.46,9.46,0,0,0-2-2.3Z"/><path class="cls-1" d="M136.12,70a3.11,3.11,0,0,0,1.74,1.64,11.92,11.92,0,0,0,3.78.4c2.58,0,5.62-.12,8.6-.42a3.11,3.11,0,0,0-.54,1.42c-.12.64-.1.64-.74.68-2.58.14-5,.18-7,.18a13.84,13.84,0,0,1-4.68-.54,4.26,4.26,0,0,1-2.12-1.8,22.3,22.3,0,0,1-1.9,1.68,1.79,1.79,0,0,0-.44.42.33.33,0,0,1-.28.2c-.12,0-.22-.14-.3-.28a15.62,15.62,0,0,1-.78-1.78,10.47,10.47,0,0,0,1.18-.64,10.92,10.92,0,0,0,1.54-1.26V65.48h-.84c-1,0-1.32,0-1.42,0s-.24,0-.24-.24V63.76c0-.2,0-.22.24-.22s.38,0,1.42,0h1.14c1,0,1.36,0,1.46,0s.22,0,.22.22,0,.7,0,1.94Zm-2.8-13.28c.22-.14.28-.14.42,0a16,16,0,0,1,2.52,3c.1.16.08.2-.12.36l-1.08.88a.44.44,0,0,1-.24.12c-.06,0-.12,0-.18-.14a15.55,15.55,0,0,0-2.46-3.12c-.16-.14-.14-.2.1-.34Zm6.5,13.16c-1.94,0-2.62,0-2.74,0s-.24,0-.24-.22V68.46c0-.2,0-.22.24-.22s.8,0,2.74,0h2.26V67.16h-1.44c-1.84,0-2.5,0-2.64,0s-.2,0-.2-.22,0-.62,0-1.8V62.5c0-1.18,0-1.68,0-1.8s0-.24.2-.24.8,0,2.64,0h1.44V59.42H139.9c-1.94,0-2.6,0-2.72,0s-.22,0-.22-.22V58c0-.2,0-.22.22-.22s.78,0,2.72,0h2.18a11.69,11.69,0,0,0-.16-1.68,15.72,15.72,0,0,1,2,.12c.2,0,.32.1.32.22a1.08,1.08,0,0,1-.12.36,2.54,2.54,0,0,0-.12,1h2.48c1.94,0,2.62,0,2.74,0s.22,0,.22.22v1.26c0,.2,0,.22-.22.22s-.8,0-2.74,0H144V60.5h1.56c1.84,0,2.48,0,2.62,0s.22,0,.22.24,0,.62,0,1.8v2.68c0,1.18,0,1.68,0,1.8s0,.22-.22.22-.78,0-2.62,0H144v1.12h2.58c2,0,2.64,0,2.76,0s.22,0,.22.22v1.28c0,.2,0,.22-.22.22s-.8,0-2.76,0H144c0,1,0,1.46,0,1.56s0,.22-.22.22h-1.54c-.18,0-.22,0-.22-.22s0-.52,0-1.56Zm2.26-6.82V61.94h-2.42V63.1Zm0,2.64V64.48h-2.42v1.26Zm1.9-3.8V63.1h2.5V61.94Zm2.5,2.54H144v1.26h2.5Z"/><path class="cls-1" d="M159.9,62.38c.2-.1.22-.08.3.12a17.79,17.79,0,0,1,1.12,3.08,15.75,15.75,0,0,0,3.7-2.14,12.3,12.3,0,0,1-1.52-2,13.34,13.34,0,0,1-1.24,1.36c-.2.2-.32.3-.4.3s-.22-.14-.42-.42a4.4,4.4,0,0,0-1-.88,12.7,12.7,0,0,0,3.38-4.54,6.52,6.52,0,0,0,.38-1.22,15.81,15.81,0,0,1,1.88.36c.2.06.26.14.26.26a.48.48,0,0,1-.2.32,1,1,0,0,0-.38.56c-.08.18-.16.36-.26.54h3.24a1.24,1.24,0,0,0,.52-.08.53.53,0,0,1,.24-.06c.18,0,.3.06.74.48s.58.66.58.82a.36.36,0,0,1-.22.34c-.16.08-.24.2-.48.6a18.53,18.53,0,0,1-2.4,3.26,13.31,13.31,0,0,0,4.64,2.08,5.28,5.28,0,0,0-.6,1.26c-.18.6-.2.6-.76.44a4.61,4.61,0,0,1-.56-.2v.08c0,.14,0,.68,0,2v1.78c0,2.74,0,3.2,0,3.3s0,.22-.24.22H168.7c-.22,0-.24,0-.24-.22v-.86H164.4v.88c0,.2,0,.22-.24.22h-1.5c-.2,0-.22,0-.22-.22s0-.58,0-3.32V69.28c0-1.22,0-1.82,0-2.08l-.44.2a1.15,1.15,0,0,1-.44.14c-.16,0-.22-.14-.36-.52l-.2-.46-.76.28c-.28.1-.32.1-.34-.14l-.18-.8-1.14.12v5.5c0,1.84,0,2.52,0,2.62s0,.22-.22.22h-1.52c-.2,0-.22,0-.22-.22s0-.78,0-2.62V66.18l-1.64.12a2.07,2.07,0,0,0-.76.16.56.56,0,0,1-.3.08c-.12,0-.2-.12-.24-.32-.1-.52-.18-1.06-.24-1.7a13.26,13.26,0,0,0,1.5.08c.38-.48.74-1,1.08-1.46a22.77,22.77,0,0,0-2.6-3,.27.27,0,0,1-.1-.18c0-.08.06-.14.14-.26l.74-1c.16-.2.22-.22.36-.06s.34.34.5.5a17.12,17.12,0,0,0,1.2-2.24,5.53,5.53,0,0,0,.36-1.06,14.27,14.27,0,0,1,1.66.72c.18.1.26.2.26.32a.31.31,0,0,1-.18.26,1.09,1.09,0,0,0-.38.48,32.1,32.1,0,0,1-1.74,2.82c.28.34.58.66.86,1q.72-1.17,1.38-2.34a8.93,8.93,0,0,0,.56-1.26,13.91,13.91,0,0,1,1.66.74c.18.1.24.16.24.28s-.06.22-.22.32a2.61,2.61,0,0,0-.62.78c-1.06,1.68-2.12,3.24-3.08,4.48.72,0,1.44-.06,2.18-.12-.14-.44-.32-.88-.5-1.3-.08-.18,0-.24.2-.34Zm-5.62,6.26a8.94,8.94,0,0,0,0-1.28c.6.1,1.2.22,1.56.32s.32.16.32.24a.54.54,0,0,1-.1.3,2.59,2.59,0,0,0-.16.74,21,21,0,0,1-.66,3.6c-.1.32-.14.48-.26.48a1.24,1.24,0,0,1-.46-.24,6.83,6.83,0,0,0-1.1-.52A11.18,11.18,0,0,0,154.28,68.64Zm5.94-1.38c.24-.08.28-.06.34.14a21.34,21.34,0,0,1,1,3.9c0,.2,0,.26-.26.36l-1,.36c-.3.08-.34.06-.36-.14a19.44,19.44,0,0,0-.82-4c-.06-.2,0-.22.2-.3Zm7.8-.38c1.26,0,1.84,0,2.08,0a14.57,14.57,0,0,1-3.72-2.12,16,16,0,0,1-3.24,2.14c.34,0,.88,0,1.74,0Zm-3.62,4.7h4.06V68.66H164.4Zm.26-11.88-.08.12a9.84,9.84,0,0,0,1.78,2.4,11.33,11.33,0,0,0,1.82-2.52Z"/><path class="cls-1" d="M184.44,69.44c-1.86,0-2.48,0-2.6,0s-.24,0-.24-.22V67.8a14,14,0,0,1-4.26,5.88c-.22.18-.34.26-.44.26s-.22-.12-.4-.42a4.91,4.91,0,0,0-1.06-1.22,11,11,0,0,0,4.64-6.18H178.5c-1.78,0-2.38,0-2.5,0s-.22,0-.22-.22V64.52c0-.2,0-.22.22-.22s.72,0,2.5,0h5V63.06H180.7c-1.94,0-2.62,0-2.74,0s-.22,0-.22-.22V61.6c0-.2,0-.22.22-.22s.8,0,2.74,0h2.82V60.26h-3.78c-1.92,0-2.56,0-2.68,0s-.22,0-.22-.24V58.72c0-.22,0-.24.22-.24s.76,0,2.68,0h1.34a10.5,10.5,0,0,0-1-1.48.41.41,0,0,1-.14-.22c0-.06.06-.12.2-.18l1.34-.6c.22-.1.28-.08.42.06a10.76,10.76,0,0,1,1.12,1.5c.14.24.14.28-.14.42l-1.08.5h3.9a10.82,10.82,0,0,0,.84-1.48,5.5,5.5,0,0,0,.34-1,16.77,16.77,0,0,1,2,.44c.16.06.26.14.26.28a.4.4,0,0,1-.22.32,1.3,1.3,0,0,0-.34.4c-.2.32-.46.68-.72,1.06h1.66c1.92,0,2.58,0,2.7,0s.22,0,.22.24v1.34c0,.22,0,.24-.22.24s-.78,0-2.7,0h-4v1.16h3.1c1.94,0,2.62,0,2.74,0s.2,0,.2.22v1.28c0,.2,0,.22-.2.22s-.8,0-2.74,0h-3.1v1.28h5.28c1.78,0,2.38,0,2.5,0s.22,0,.22.22v1.42c0,.2,0,.22-.22.22s-.72,0-2.5,0h-8.7q-.24.84-.54,1.62s.1,0,.22,0,.74,0,2.6,0h4.66c1.86,0,2.46,0,2.58,0s.22,0,.22.22v1.34c0,.2,0,.22-.22.22s-.72,0-2.58,0h-1.72V71.9h2.8c2,0,2.66,0,2.78,0s.22,0,.22.2V73.5c0,.2,0,.22-.22.22s-.8,0-2.78,0h-7.56c-2,0-2.64,0-2.76,0s-.24,0-.24-.22V72.06c0-.18,0-.2.24-.2s.8,0,2.76,0h2.7V69.44Z"/><path class="cls-1" d="M204.52,57.36c.34.08.48.18.48.38a1.94,1.94,0,0,1-.2.66,12,12,0,0,0-.28,2.44c-.2,3.08-.3,5.12-.3,7.74,0,2,.24,2.48,1.84,2.48,1.78,0,4.56-1.08,7-3.68a7,7,0,0,0,.46,1.9,1.31,1.31,0,0,1,.16.48c0,.18-.08.34-.4.62a11.43,11.43,0,0,1-7.58,3c-2.56,0-3.76-1-3.76-4.08,0-3.36.18-6.24.28-8.64A13.3,13.3,0,0,0,202,57,20.69,20.69,0,0,1,204.52,57.36Z"/><path class="cls-1" d="M222.74,73.24c-1.8,0-2.42,0-2.54,0s-.22,0-.22-.22V71.24c0-.2,0-.22.22-.22s.74,0,2.54,0H227V59.78a20.87,20.87,0,0,0-.16-3.34c.76,0,1.66.06,2.34.14.2,0,.36.14.36.26a1.35,1.35,0,0,1-.14.46,7,7,0,0,0-.14,1.92v3.16h3.92c1.74,0,2.34,0,2.46,0s.22,0,.22.22v1.82c0,.2,0,.22-.22.22s-.72,0-2.46,0h-3.92v6.5h5.46c1.8,0,2.42,0,2.54,0s.22,0,.22.22v1.82c0,.2,0,.22-.22.22s-.74,0-2.54,0Z"/><path class="cls-1" d="M246.4,72.62c0,.14-.06.2-.26.28a5,5,0,0,1-1.38.42c-.24,0-.34,0-.46-.26a17,17,0,0,1-1.18-6.16,45.55,45.55,0,0,1,.6-6.44,21.62,21.62,0,0,0,.22-3,9.81,9.81,0,0,1,2.1.7c.32.16.44.3.44.44a.72.72,0,0,1-.12.4A11.36,11.36,0,0,0,246,60.5a37.27,37.27,0,0,0-.76,6,17,17,0,0,0,.2,3.16c.5-1.06.86-1.74,1.34-2.86a5.81,5.81,0,0,0,.66,1.34.6.6,0,0,1,.18.38,1.5,1.5,0,0,1-.24.66,15,15,0,0,0-.9,2.44,2.44,2.44,0,0,0-.06.52Zm6.92-9.06c-1.06.08-1.82.12-2.4.12-.42,0-.94,0-1.68,0-.28,0-.44-.1-.46-.32-.08-.4-.12-.94-.22-1.82.74.08,1.74.1,2.48.1.56,0,1.5,0,2.22-.08,0-1,0-1.9-.12-2.66a6.24,6.24,0,0,0-.34-1.64,12.19,12.19,0,0,1,2.58.28c.22.06.32.16.32.32a.81.81,0,0,1-.14.4,2.44,2.44,0,0,0-.1.84v2.22c.86-.12,1.72-.26,2.56-.44.24-.06.34,0,.36.18.08.5.12,1,.16,1.5,0,.26-.08.34-.26.36-1,.18-1.84.3-2.76.4l0,3.08a10.44,10.44,0,0,1-.88,4.64,7,7,0,0,1-2.86,3.1.89.89,0,0,1-.5.18.42.42,0,0,1-.4-.18,6.6,6.6,0,0,0-1.56-1,6.49,6.49,0,0,0,3.38-3.32,11.05,11.05,0,0,0,.62-4.46Zm3.52-7.1a.21.21,0,0,1,.28.08A9.33,9.33,0,0,1,258.66,59c.06.14,0,.22-.12.3l-.82.42a.22.22,0,0,1-.34-.12,9.52,9.52,0,0,0-1.62-2.6Zm1.84-.84c.12-.06.18,0,.28.08A8.45,8.45,0,0,1,260.5,58a.22.22,0,0,1-.12.34l-.8.4c-.18.08-.26,0-.32-.1a9.58,9.58,0,0,0-1.62-2.6Z"/><path class="cls-1" d="M271.76,66a35.41,35.41,0,0,1-4.12-.08c-.22,0-.3-.08-.32-.34a11.94,11.94,0,0,1-.12-1.7,28.14,28.14,0,0,0,4.5.16c0-.76,0-1.54,0-2.3a32.91,32.91,0,0,1-4.78-.1c-.22,0-.32-.08-.34-.28-.06-.5-.1-1-.14-1.8a45.73,45.73,0,0,0,5.24.2c0-.74,0-1.26,0-1.94a5.75,5.75,0,0,0-.24-1.34,11.59,11.59,0,0,1,2.52.36.41.41,0,0,1,.22.6,2.57,2.57,0,0,0-.3,1c0,.4,0,.68,0,1.28a33.65,33.65,0,0,0,4.38-.6c.24-.06.32,0,.34.24a10.69,10.69,0,0,1,.1,1.46c0,.26-.06.3-.22.32a40.91,40.91,0,0,1-4.62.52c0,.8,0,1.54,0,2.26,1.52-.1,2.48-.3,3.92-.52.24-.06.3,0,.32.16,0,.38.06,1,.06,1.64,0,.2-.08.26-.3.28a36.22,36.22,0,0,1-3.92.48c0,.92.08,1.9.14,2.82a17.83,17.83,0,0,1,5.3,2.42c.2.18.2.24.14.48a6,6,0,0,1-.88,1.48.29.29,0,0,1-.26.16.31.31,0,0,1-.22-.1,15.87,15.87,0,0,0-4-2.28c0,2.16-1.32,3-4.06,3s-4.08-1.14-4.08-2.8,1.58-2.84,4-2.84c.5,0,1,0,1.92.08C271.82,67.5,271.78,66.68,271.76,66ZM270,70c-1.46,0-2.16.42-2.16,1.06s.6.9,2,.9a2.47,2.47,0,0,0,1.82-.6,1.92,1.92,0,0,0,.22-1.12A8.63,8.63,0,0,0,270,70Z"/><path class="cls-1" d="M294.58,58a6.36,6.36,0,0,0-.24-1.46,20.32,20.32,0,0,1,2.34.28c.34.06.56.2.56.38a.84.84,0,0,1-.18.46,2.09,2.09,0,0,0-.16.58c0,.26,0,.52,0,1.28,2.16-.08,4.22-.1,6.14-.1.24,0,.28,0,.3.3,0,.5,0,1,0,1.52,0,.22-.1.28-.34.26-2.08-.06-4-.06-6.1,0,0,1.22,0,2.5,0,3.72a6.23,6.23,0,0,1,.3,2,7.47,7.47,0,0,1-3.56,6.46,1.91,1.91,0,0,1-.78.38,1.13,1.13,0,0,1-.6-.3,4.46,4.46,0,0,0-1.52-.8,6.68,6.68,0,0,0,4.1-4.4,2.31,2.31,0,0,1-1.88.8,2.77,2.77,0,0,1-2.78-3.06,2.91,2.91,0,0,1,3-3,2.45,2.45,0,0,1,1.52.4c0-.7,0-1.38,0-2-2.52.14-5.34.38-6.92.6-.44.06-.76.24-.94.24s-.28-.08-.34-.28a14,14,0,0,1-.5-2,13.19,13.19,0,0,0,2.44-.08c1.22-.1,3.8-.26,6.2-.4C294.6,59.06,294.6,58.56,294.58,58ZM292,66.12a1.24,1.24,0,0,0,1.28,1.36,1.28,1.28,0,0,0,1.36-1.38,1.2,1.2,0,0,0-1.32-1.28A1.27,1.27,0,0,0,292,66.12Z"/><path class="cls-1" d="M313.28,71.88a2.9,2.9,0,1,1-2.9-2.88A2.89,2.89,0,0,1,313.28,71.88Zm-4.56,0a1.66,1.66,0,1,0,1.66-1.66A1.63,1.63,0,0,0,308.72,71.88Z"/></g></g></svg>