<svg xmlns="http://www.w3.org/2000/svg" viewBox="0 0 70 56.17"><defs><style>.cls-1{fill:#20b97b;}</style></defs><title>アセット 30</title><g id="レイヤー_2" data-name="レイヤー 2"><g id="レイヤー_1-2" data-name="レイヤー 1"><path class="cls-1" d="M8.34,36.24h2.94a8.34,8.34,0,0,0,8.34-8.34V8.34A8.34,8.34,0,0,0,11.28,0H8.34A8.35,8.35,0,0,0,0,8.34V27.9A8.35,8.35,0,0,0,8.34,36.24Z"/><path class="cls-1" d="M59.67,2.83h-36V27.9A12.55,12.55,0,0,1,11.14,40.45H8.2A12.49,12.49,0,0,1,0,37.37v8.47A10.33,10.33,0,0,0,10.33,56.17H59.67A10.33,10.33,0,0,0,70,45.84V13.16A10.34,10.34,0,0,0,59.67,2.83ZM32,43.39a2.73,2.73,0,1,1,2.73-2.72A2.72,2.72,0,0,1,32,43.39Zm0-8.88a2.73,2.73,0,1,1,2.73-2.72A2.72,2.72,0,0,1,32,34.51Zm0-8.88a2.73,2.73,0,1,1,2.73-2.72A2.72,2.72,0,0,1,32,25.63ZM46,43.39a2.73,2.73,0,1,1,2.72-2.72A2.72,2.72,0,0,1,46,43.39Zm0-8.88a2.73,2.73,0,1,1,2.72-2.72A2.72,2.72,0,0,1,46,34.51Zm0-8.88a2.73,2.73,0,1,1,2.72-2.72A2.72,2.72,0,0,1,46,25.63ZM60,43.39a2.73,2.73,0,1,1,2.72-2.72A2.72,2.72,0,0,1,60,43.39Zm0-8.88a2.73,2.73,0,1,1,2.72-2.72A2.72,2.72,0,0,1,60,34.51Zm0-8.88a2.73,2.73,0,1,1,2.72-2.72A2.72,2.72,0,0,1,60,25.63Zm.14-9.57h-28a2.81,2.81,0,0,1,0-5.61h28a2.81,2.81,0,0,1,0,5.61Z"/></g></g></svg>