<svg xmlns="http://www.w3.org/2000/svg" viewBox="0 0 922 91.5"><defs><style>.cls-1{fill:none;stroke:#ff9e73;stroke-miterlimit:10;}.cls-2{fill:#ff9e73;}.cls-3{fill:#fff;}</style></defs><title>アセット 24</title><g id="レイヤー_2" data-name="レイヤー 2"><g id="レイヤー_1-2" data-name="レイヤー 1"><rect class="cls-1" x="0.5" y="1" width="921" height="90" rx="20" ry="20"/><path class="cls-2" d="M20,0H290a0,0,0,0,1,0,0V91a0,0,0,0,1,0,0H20A20,20,0,0,1,0,71V20A20,20,0,0,1,20,0Z"/><path class="cls-3" d="M70.27,48.36c-.85.78-2.78,2.45-3.41,2.45a1,1,0,0,1-1-1A1.13,1.13,0,0,1,66.2,49a30.55,30.55,0,0,0,6-10.43c.55-1.56.81-2.37,2.51-2.37,1.37,0,3,.85,3,2.29,0,1.26-1.15,2.74-2.78,4.74v17.1c0,1.4,0,3.07-2.4,3.07s-2.33-1.71-2.33-3.07ZM77.45,30.9c0,1.59-3,4.22-5.33,6.14-1.19,1-4.55,3.59-5.22,3.59a1,1,0,0,1-1-1c0-.4.12-.55.74-1.25a34.24,34.24,0,0,0,5.3-7.92c.51-1.15,1.11-1.74,2.25-1.74C76.48,28.68,77.45,30,77.45,30.9ZM91.17,48h6.11c.37,0,1.26.08,1.26,1s-.89,1-1.26,1H91.17V60.57h8.44c.37,0,1.26.12,1.26,1s-.89,1-1.26,1H77.22c-.44,0-1.25-.11-1.25-1s.85-1,1.25-1H86V50H79.52c-.45,0-1.26-.11-1.26-1s.85-1,1.26-1H86V38.52H79.26c-.41,0-1.26-.11-1.26-1s.89-1,1.26-1h10a1.69,1.69,0,0,1-1.19-.82,27,27,0,0,0-5-5.18,1,1,0,0,1-.41-.77,1,1,0,0,1,1-1,25,25,0,0,1,4.58,1.48c2.34,1,4.93,2.26,4.93,3.7a2.92,2.92,0,0,1-2.56,2.63h8c.37,0,1.26.11,1.26,1s-.89,1-1.26,1H91.17Z"/><path class="cls-3" d="M111,48.36c-.82.71-2.78,2.45-3.41,2.45a1,1,0,0,1-1-1,1.13,1.13,0,0,1,.37-.78,30.55,30.55,0,0,0,6-10.43c.55-1.56.81-2.37,2.51-2.37,1.37,0,3,.85,3,2.29,0,1-.63,2.11-2.78,4.74v17.1c0,1.4,0,3.07-2.4,3.07S111,61.68,111,60.32Zm7.18-17.46c0,1.59-3,4.22-5.33,6.14-1.19,1-4.55,3.59-5.22,3.59a1,1,0,0,1-1-1c0-.4.12-.55.74-1.25a34.24,34.24,0,0,0,5.3-7.92,2.44,2.44,0,0,1,2.25-1.74C117.18,28.68,118.15,30,118.15,30.9Zm3.33,8a4.81,4.81,0,0,1,0-.71c-1.11,1-1.44,1.15-1.81,1.15a1.06,1.06,0,0,1-1-1c0-.3.08-.37.6-1.19A23.22,23.22,0,0,0,122,30.68c.22-.85.59-2.15,2.15-2.15.89,0,2.92.52,2.92,2.22a2.13,2.13,0,0,1-.26,1h13.43c.48,0,1.26.14,1.26,1s-.85,1-1.26,1h-14.8c-.29.37-.7.92-2,2.4a7.18,7.18,0,0,1,1.29-.14H136.5c1.89,0,3.26.81,3.26,2.81v5.88c0,2.18-1.63,2.81-3.26,2.81h-7.36a26.6,26.6,0,0,1-1.67,2.19h9.18c1.85,0,2.48,1.14,2.48,2,0,1.37-2.33,4-5.59,6.3a24,24,0,0,0,7.55,3,1.1,1.1,0,0,1,1,1.07,1.06,1.06,0,0,1-1.07,1,31.78,31.78,0,0,1-10.58-3.33,42.37,42.37,0,0,1-11.77,3.51,1,1,0,0,1-1-1,1.1,1.1,0,0,1,1-1,33.08,33.08,0,0,0,8.92-3.25,16.48,16.48,0,0,1-4.11-4.67c-1,.74-3.88,2.74-4.66,2.74a1,1,0,0,1-1-1c0-.52.22-.7.81-1.18a16.33,16.33,0,0,0,5.07-6.44,2.5,2.5,0,0,1-2.25-2.74ZM135,40.82V39.15c0-.74-.15-1-1-1h-6.85c-.81,0-1,.22-1,1v1.67Zm-8.77,2.07v1.7c0,.74.15,1,1,1h6.85c.81,0,1-.22,1-1v-1.7Zm1.81,9a15.06,15.06,0,0,0,2.7,4c.93-.89,2.59-2.77,2.59-3.29a.66.66,0,0,0-.7-.67Z"/><path class="cls-3" d="M156.51,40.89h-4.73c-.41,0-1.26-.11-1.26-1a.93.93,0,0,1,.41-.81c-2.33,0-2.33-1.59-2.33-2.78V35.08c0-2.37,1.88-2.66,3-2.66h4.95v-1c0-1.22,0-2.81,2.34-2.81s2.29,1.67,2.29,2.81v1h5c1.66,0,3,.74,3,2.66v1.18c0,1.23,0,2.78-2.34,2.78a.93.93,0,0,1,.41.81c0,.89-.81,1-1.26,1h-4.77v2.44h5.66c.41,0,1.26.11,1.26,1s-.81,1-1.26,1h-5.66V48h7.29c.41,0,1.26.08,1.26,1s-.82,1-1.26,1H149.08c-.41,0-1.26-.11-1.26-1s.81-1,1.26-1h7.43V45.37h-5.62c-.41,0-1.26-.11-1.26-1s.82-1,1.26-1h5.62ZM167.39,59.8c0,2.18-1.62,2.81-3.25,2.81H153.59c-1.89,0-3.25-.81-3.25-2.81V55.17c0-2.22,1.59-2.81,3.25-2.81h10.55c1.88,0,3.25.78,3.25,2.81Zm-6.25-21h4.66c-1.18-.52-1.18-1.3-1.18-2.56v-.88c0-.78-.15-.89-.89-.89H154c-.66,0-.89,0-.89.89v.88c0,1.34,0,2-1.18,2.56h4.62V38c0-1.18,0-2.77,2.34-2.77s2.29,1.63,2.29,2.77Zm1.44,16.57c0-.77-.18-1-1-1h-5.44c-.81,0-1,.25-1,1v4.19c0,.74.15,1,1,1h5.44c.82,0,1-.22,1-1Zm11.92-2.22c0,1.23,0,2.56-1.93,2.56s-2-1.22-2-2.56V33c0-1.22,0-2.56,1.88-2.56s2,1.23,2,2.56Zm.59,7.63c1.15,0,1.44-.52,1.44-1.45V31.71c0-1.18,0-3.07,2.19-3.07a2.62,2.62,0,0,1,1.81.78c.44.48.44.85.44,2.29V59.32c0,2-1,3.55-3.85,3.55h-4.73c-.45,0-1.26-.15-1.26-1s.85-1,1.26-1Z"/><path class="cls-3" d="M202.25,38.45c.85,0,1.07-.37,1.07-1.08V33.08c0-.66-.22-1.07-1.07-1.07H190.41c-.45,0-1.26-.11-1.26-1s.85-1,1.26-1h14.17c2.81,0,3.85,1.56,3.85,3.56v3.4c0,2-1,3.59-3.85,3.59h-8.14c-.67,0-1,.3-1,.78s-.92,4.73-.92,4.88a.92.92,0,0,0,1,.93h8.84c2.56,0,3.81,1.51,3.81,3.25,0,1.93-.74,8-1.77,10C205,62.91,202.51,63,200.51,63h-7c-.44,0-1.26-.11-1.26-1s.85-1,1.26-1h4.81c1.85,0,2.74,0,3.48-2a45.37,45.37,0,0,0,1.22-8.21c0-.37,0-1.52-1.22-1.52h-9.36c-2.63,0-3.18-1.93-3.18-2.63,0-.33.88-4.51,1-5.29.48-2.81,1.51-2.81,3.44-2.81Zm18.24,21.61c0,1.37,0,3.25-2.55,3.25s-2.56-1.74-2.56-3.25V31.86c0-1.44,0-3.26,2.52-3.26s2.59,1.78,2.59,3.26Z"/><path d="M345.47,49c-.82.76-2.7,2.38-3.31,2.38a1,1,0,0,1-1-1,1.09,1.09,0,0,1,.36-.76,29.67,29.67,0,0,0,5.87-10.15c.54-1.51.79-2.3,2.45-2.3,1.33,0,2.95.82,2.95,2.23,0,1.22-1.12,2.66-2.7,4.61V60.62c0,1.36,0,3-2.34,3s-2.27-1.65-2.27-3Zm7-17c0,1.55-2.92,4.1-5.19,6-1.15,1-4.42,3.5-5.07,3.5a1,1,0,0,1-1-1c0-.4.11-.54.72-1.23a32.89,32.89,0,0,0,5.15-7.7c.5-1.11,1.08-1.69,2.19-1.69C351.52,29.84,352.46,31.14,352.46,32Zm13.35,16.63h5.94c.36,0,1.22.07,1.22,1s-.86,1-1.22,1h-5.94V60.87H374c.36,0,1.22.11,1.22,1s-.86,1-1.22,1H352.24c-.43,0-1.22-.1-1.22-1s.82-1,1.22-1h8.57V50.61h-6.34c-.43,0-1.22-.11-1.22-1s.83-1,1.22-1h6.34V39.42h-6.59c-.4,0-1.22-.11-1.22-1s.86-1,1.22-1H364a1.66,1.66,0,0,1-1.16-.79,25.6,25.6,0,0,0-4.86-5,1,1,0,0,1-.39-.76,1,1,0,0,1,1-1A24.89,24.89,0,0,1,363,31.24c2.27.94,4.79,2.2,4.79,3.6a2.84,2.84,0,0,1-2.49,2.56h7.81c.36,0,1.23.11,1.23,1s-.87,1-1.23,1h-7.34Z"/><path d="M384.17,49c-.79.68-2.7,2.38-3.31,2.38a1,1,0,0,1-1-1,1.09,1.09,0,0,1,.36-.76,29.67,29.67,0,0,0,5.87-10.15c.54-1.51.79-2.3,2.45-2.3,1.33,0,3,.82,3,2.23,0,.93-.61,2-2.7,4.61V60.62c0,1.36,0,3-2.34,3s-2.27-1.65-2.27-3Zm7-17c0,1.55-2.92,4.1-5.19,6-1.15,1-4.42,3.5-5.07,3.5a1,1,0,0,1-1-1c0-.4.11-.54.72-1.23a32.89,32.89,0,0,0,5.15-7.7A2.38,2.38,0,0,1,388,29.84C390.22,29.84,391.16,31.14,391.16,32Zm3.24,7.81a4.38,4.38,0,0,1,0-.68c-1.08,1-1.4,1.11-1.76,1.11a1,1,0,0,1-1-1c0-.28.07-.35.58-1.15a22.81,22.81,0,0,0,2.7-6.3c.21-.82.57-2.08,2.08-2.08.87,0,2.85.5,2.85,2.16a2.08,2.08,0,0,1-.25,1h13.06c.47,0,1.23.15,1.23,1s-.83,1-1.23,1h-14.4c-.28.36-.68.9-2,2.34a6.15,6.15,0,0,1,1.26-.14H409c1.84,0,3.17.79,3.17,2.73v5.72c0,2.13-1.59,2.74-3.17,2.74h-7.16a26.59,26.59,0,0,1-1.62,2.12h8.92c1.8,0,2.42,1.12,2.42,2,0,1.33-2.27,3.88-5.44,6.12a23.5,23.5,0,0,0,7.34,2.95,1.07,1.07,0,0,1,1,1,1,1,0,0,1-1,1,30.93,30.93,0,0,1-10.3-3.24,41,41,0,0,1-11.44,3.42,1,1,0,0,1-1-1c0-.75.68-.93,1-1a32,32,0,0,0,8.68-3.16,15.88,15.88,0,0,1-4-4.54c-.94.72-3.78,2.66-4.54,2.66a.94.94,0,0,1-.93-1c0-.5.21-.68.79-1.15a15.94,15.94,0,0,0,4.93-6.26,2.43,2.43,0,0,1-2.19-2.67Zm13.17,1.84V40c0-.72-.14-.94-.94-.94H400c-.8,0-.94.22-.94.94v1.62Zm-8.53,2v1.66c0,.72.14,1,.94,1h6.65c.8,0,.94-.22.94-1V43.66Zm1.76,8.71a14.49,14.49,0,0,0,2.63,3.85c.9-.86,2.52-2.69,2.52-3.2a.64.64,0,0,0-.68-.65Z"/><path d="M435.69,52.16c-1.59,4.71-3.46,7.56-7.35,7.56-5.25,0-8.38-5.44-8.38-11,0-7.49,5.47-16,17-16,7.85,0,15.08,4.07,15.08,13.64,0,13-12.81,14.51-13.57,14.51a1.21,1.21,0,0,1-1.22-1.22c0-.87.36-1,1.87-1.52,5-1.8,7.52-7.88,7.52-12.41,0-7.28-5-9.22-8.24-10.16C437.63,44.31,437.38,47.19,435.69,52.16ZM427.62,40a20.41,20.41,0,0,0-3.09,10.72c0,5.36,2.3,6.26,3.17,6.26,1.58,0,2.7-3.49,3.09-4.82,1.77-5.69,2.09-12.06,2.38-16.49A10.15,10.15,0,0,0,427.62,40Z"/><path d="M484.65,60.44a79.48,79.48,0,0,1-10.12.61c-3.71,0-13.53,0-13.53-6.12a8.7,8.7,0,0,1,3-6.08,1.37,1.37,0,0,1,1-.51,1.25,1.25,0,0,1,1.23,1.23c0,.36,0,.43-.47,1a5,5,0,0,0-1.15,3.1c0,2.37,2.3,3.27,7.3,3.27a54,54,0,0,0,9.47-.86c.54-.11,2.88-.65,3.38-.65,1.41,0,2.09,1.08,2.09,2.45A2.34,2.34,0,0,1,484.65,60.44Zm-2.6-22.5a28.53,28.53,0,0,1-3.81-1,45.53,45.53,0,0,0-10.87-1.55c-.72,0-2.66,0-2.81,0a1.2,1.2,0,0,1-.75-1.11c0-1.08.86-1.23,1.44-1.34a66.24,66.24,0,0,1,8.35-.61,47.87,47.87,0,0,1,8.45.76,2.34,2.34,0,0,1,2.16,2.34A2.31,2.31,0,0,1,482.05,37.94Zm7.06-3.46a1.53,1.53,0,0,1-1.37,1.37c-.61,0-.72-.14-1.65-1.44a19.91,19.91,0,0,0-1.8-2.09,1,1,0,0,1-.33-.72,1.05,1.05,0,0,1,1.23-1C485.73,30.67,489.11,33.3,489.11,34.48Zm3.17-2.34a1.41,1.41,0,0,1-1.37,1.37c-.47,0-.61-.18-1.76-1.47-.22-.26-1.34-1.34-1.55-1.55a1,1,0,0,1-.29-.69,1,1,0,0,1,1.12-1C488.79,28.76,492.28,30.88,492.28,32.14Z"/><path d="M503.19,50.14a31,31,0,0,1-5.33,6.55,1,1,0,0,1-.79.4,1,1,0,0,1-1-1c0-.29.11-.43,1.05-1.66a32.87,32.87,0,0,0,5.75-12.59h-5.11c-.36,0-1.22-.08-1.22-1s.83-1,1.22-1h5.44V34.77c-.54,0-3.24.11-4.68.11-.61,0-1.62,0-1.62-1s.86-1,1.22-1a36.38,36.38,0,0,0,10.3-2,17,17,0,0,1,2.3-.76,2.3,2.3,0,0,1,2.05,2.13c0,1.08-.61,1.62-4.86,2.12v5.51h4.9c.36,0,1.22.07,1.22,1s-.82,1-1.22,1h-4.9a28.41,28.41,0,0,0,5.08,10,1.08,1.08,0,0,1,.36.79,1,1,0,0,1-1,1c-.93,0-3.49-3.31-4.43-4.64V60.47c0,1.44,0,3.06-2.41,3.06s-2.3-1.65-2.3-3.13Zm17.2,3.78c0,1.44,0,3.13-2.41,3.13s-2.41-1.62-2.41-3.13V35c0-1.48,0-3.17,2.38-3.17s2.44,1.66,2.44,3.17Zm1.91,7.2c1.15,0,1.41-.5,1.41-1.4V33.19c0-1.55,0-3.31,2.44-3.31s2.56,1.72,2.56,3.31V59.68c0,1.87-1,3.46-3.74,3.46h-6.38c-.39,0-1.22-.11-1.22-1s.86-1,1.22-1Z"/><path d="M554.6,59.57c0,1.41,0,3.17-2.42,3.17s-2.52-1.8-2.52-3.17V51h-7.38c-1,6.33-3.45,9.43-5.18,11.23-.72.72-.86.9-1.33.9a1,1,0,0,1-1-.94c0-.28,0-.36.54-1.33,2-3.78,2.41-8,2.41-14.25V34.7c0-1.87.94-3.46,3.74-3.46h21.85c2.74,0,3.75,1.52,3.75,3.46V59.54c0,1.9-.94,3.45-3.75,3.45h-5c-.43,0-1.22-.14-1.22-1s.83-1,1.22-1h2.49c1.15,0,1.4-.51,1.4-1.41V51H554.6Zm-4.94-17.49h-7v3.35c0,1.15-.07,2.55-.14,3.56h7.12Zm0-8.82h-5.94c-.82,0-1,.36-1,1v5.8h7Zm4.94,6.84h7.59V34.3c0-.68-.22-1-1-1H554.6Zm0,8.89h7.59V42.08H554.6Z"/><path d="M582.35,33.87c0,.36-.75,6-.86,7.16-.15,1.59-.43,4.72-.43,8.68,0,1.94.07,4.07.25,5.94.14,1.22.36,3.31.36,3.6,0,1.62-1.3,2.09-2.92,2.09a2.25,2.25,0,0,1-2.19-2.2,78.47,78.47,0,0,1-.51-9.39,124.59,124.59,0,0,1,.72-13.18c.4-4,.51-4.86,2.92-4.86C579.91,31.71,582.35,31.71,582.35,33.87Zm20,4.46c.64-.07,1.76-.25,2-.25a1.11,1.11,0,0,1,1.08,1.19c0,1.22-.51,1.26-5.83,1.62,0,6.84,0,8.06.18,11A25.9,25.9,0,0,1,604.2,54c1.59.93,2.23,1.44,2.23,2.52s-.64,2.52-2.08,2.52c-.8,0-1.12-.29-2.45-1.48a21.11,21.11,0,0,0-1.77-1.47,5.16,5.16,0,0,1-1,3.27c-1.69,2.23-5.4,2.52-6.91,2.52-2.56,0-8-.57-8-5.25,0-3.67,3.42-6,8.78-6a14.33,14.33,0,0,1,1.84.11c-.18-3.64-.22-5.73-.29-9.58-1.44,0-4.75.15-6,.15a30.61,30.61,0,0,1-3.64-.11,1.2,1.2,0,0,1,.51-2.3l3.42,0c1.29,0,2.7,0,5.69-.11,0-.75-.08-4.14-.08-4.82,0-1.51.36-2.92,2.6-2.92,2.77,0,2.77,1.73,2.77,2.7,0,.29-.15,4-.15,4.79C600.39,38.51,601.68,38.41,602.37,38.33Zm-9.22,14.91c-3.45,0-4.25,2-4.25,3.45,0,2.59,2.78,2.59,3.28,2.59,2.59,0,2.84-1.8,2.84-3.06,0-.43-.07-2.48-.07-2.69A6.46,6.46,0,0,0,593.15,53.24Z"/><path d="M623.72,35c0-1.23.57-3.31,3.88-3.31h14.94a1.16,1.16,0,0,1,1.19,1.15A1.18,1.18,0,0,1,642.54,34H630.59c-.72,0-1.15.32-1.19,1l-.28,7.49a9.24,9.24,0,0,1,6-1.88c6.12,0,9.9,4.18,9.9,9.9,0,3.31-1.19,10.3-11.23,10.3-8.64,0-11.38-5-11.38-6.88a2.57,2.57,0,0,1,2.77-2.34A2.75,2.75,0,0,1,628,53.49c.22,1.26.86,5,5.36,5,5.62,0,5.76-6.08,5.76-8.06,0-5.36-2.77-7.31-5.58-7.31a5.48,5.48,0,0,0-4.89,3.06c-.65,1.26-1.12,2.2-2.84,2.2-.69,0-2.56-.33-2.49-2.23Z"/><path d="M674.62,46c0,7.71-3.78,14.87-11.52,14.87S651.62,53.67,651.62,46s3.71-14.86,11.48-14.86S674.62,38.41,674.62,46Zm-17.1,0c0,11.12,2.77,12.46,5.58,12.46,2.66,0,5.62-1,5.62-12.46,0-11.16-2.81-12.45-5.62-12.45C660.51,33.55,657.52,34.48,657.52,46Z"/><path d="M704,46c0,7.71-3.78,14.87-11.51,14.87S681,53.67,681,46s3.71-14.86,11.49-14.86S704,38.41,704,46ZM686.9,46c0,11.12,2.77,12.46,5.58,12.46,2.66,0,5.61-1,5.61-12.46,0-11.16-2.81-12.45-5.61-12.45C689.88,33.55,686.9,34.48,686.9,46Z"/><path d="M725.42,48.23v12c0,1.51,0,2.05-.69,2.59a3.26,3.26,0,0,1-1.8.57,2.73,2.73,0,0,1-2.16-1c-.32-.47-.32-.72-.32-2.19v-25c0-3.56,2.73-4,4.32-4h21.56c2.48,0,4.36,1.15,4.36,4V59.07c0,3.56-2.78,4-4.36,4h-6.19c-.4,0-1.23-.11-1.23-1s.8-1,1.23-1h4.25a1.24,1.24,0,0,0,1.18-1.22V48.23Zm7.56-2v-13h-6.34a1.28,1.28,0,0,0-1.22,1.19V46.22Zm12.59,0V34.41a1.24,1.24,0,0,0-1.18-1.19h-6.34v13Z"/><path d="M765.92,41.72h-4.61c-.4,0-1.23-.11-1.23-1a.92.92,0,0,1,.4-.79c-2.27,0-2.27-1.55-2.27-2.7V36.07c0-2.31,1.84-2.59,2.88-2.59h4.83v-.94c0-1.19,0-2.74,2.26-2.74s2.24,1.62,2.24,2.74v.94h4.85c1.63,0,2.88.72,2.88,2.59v1.15c0,1.19,0,2.7-2.26,2.7a.92.92,0,0,1,.39.79c0,.86-.79,1-1.22,1h-4.64v2.37h5.5c.4,0,1.23.11,1.23,1s-.8,1-1.23,1h-5.5v2.56h7.09c.39,0,1.22.07,1.22,1s-.79,1-1.22,1H758.68c-.39,0-1.22-.11-1.22-1s.79-1,1.22-1h7.24V46.07h-5.48c-.39,0-1.22-.1-1.22-1s.79-1,1.22-1h5.48ZM776.5,60.11c0,2.13-1.58,2.74-3.17,2.74H763.07c-1.83,0-3.17-.79-3.17-2.74v-4.5c0-2.16,1.55-2.73,3.17-2.73h10.26c1.84,0,3.17.75,3.17,2.73ZM770.42,39.7H775c-1.15-.5-1.15-1.26-1.15-2.48v-.86c0-.76-.14-.87-.86-.87h-9.51c-.65,0-.86,0-.86.87v.86c0,1.29,0,1.94-1.15,2.48h4.5v-.79c0-1.15,0-2.7,2.26-2.7s2.24,1.58,2.24,2.7Zm1.4,16.13c0-.76-.18-1-1-1h-5.29c-.8,0-.94.25-.94,1V59.9c0,.72.14.93.94.93h5.29c.79,0,1-.21,1-.93Zm11.59-2.16c0,1.19,0,2.48-1.87,2.48s-1.95-1.19-1.95-2.48V34.05c0-1.19,0-2.48,1.84-2.48s2,1.19,2,2.48Zm.58,7.41c1.11,0,1.4-.5,1.4-1.4V32.79c0-1.15,0-3,2.12-3a2.55,2.55,0,0,1,1.77.76c.43.47.43.83.43,2.23V59.64c0,1.91-1,3.46-3.74,3.46h-4.61c-.43,0-1.23-.14-1.23-1s.83-1,1.23-1Z"/><path d="M809.51,39.34c.83,0,1-.36,1-1V34.12c0-.64-.22-1-1-1H798c-.43,0-1.22-.11-1.22-1s.83-1,1.22-1h13.79c2.73,0,3.74,1.51,3.74,3.46v3.31c0,1.9-.93,3.49-3.74,3.49h-7.92c-.65,0-.94.29-1,.75s-.9,4.61-.9,4.76a.89.89,0,0,0,.94.9h8.6c2.48,0,3.71,1.47,3.71,3.16,0,1.87-.72,7.78-1.73,9.69-1.3,2.52-3.71,2.59-5.65,2.59h-6.77c-.43,0-1.22-.11-1.22-1s.83-1,1.22-1h4.68c1.8,0,2.67,0,3.39-2a44.39,44.39,0,0,0,1.18-8c0-.36,0-1.48-1.18-1.48H800c-2.56,0-3.1-1.87-3.1-2.55,0-.33.87-4.4,1-5.15.47-2.74,1.48-2.74,3.35-2.74Zm17.75,21c0,1.34,0,3.17-2.49,3.17s-2.48-1.69-2.48-3.17V32.94c0-1.41,0-3.17,2.45-3.17s2.52,1.73,2.52,3.17Z"/><path d="M850.84,38c-6.59.32-7.31.36-9.76.36a1.22,1.22,0,0,1-1.36-1.29c0-1.16.93-1.12,2.34-1.16,1.22,0,6.69-.21,7.81-.21-1-2.27-1.08-2.52-1.08-3.24,0-1.33,1.4-2.2,2.91-2.2,1.7,0,1.95.36,3.67,5.11,1.88-.14,4.29-.43,5.19-.54a11.86,11.86,0,0,1,1.4-.18A1.18,1.18,0,0,1,863,35.92c0,1-.75,1.12-1.44,1.23-1.4.18-3.85.39-5.33.5.54,1.4.94,2.34,1.48,3.64,1.66-.15,3.2-.29,4.75-.47l1.41-.18A1.16,1.16,0,0,1,865,41.83a1.21,1.21,0,0,1-1.11,1.22c-.51.07-4.61.5-5.15.54.07.18,1.26,2.81,2.3,5,.54,1.11.72,1.4.72,2A2.61,2.61,0,0,1,859.05,53c-.62,0-.8-.11-2.24-1a13,13,0,0,0-6.15-1.66c-1.33,0-5.76.22-5.76,4.43,0,3,2.52,4.54,6,4.54a31.58,31.58,0,0,0,7.13-1,7.65,7.65,0,0,1,1.65-.36,1.46,1.46,0,0,1,1.37,1.52c0,1.26-1,1.47-1.94,1.69a48.68,48.68,0,0,1-8.1.83c-4,0-11.74-.62-11.74-7.13,0-4.79,5-7,10.37-7a20.74,20.74,0,0,1,5.8.83c-.29-.72-1.37-3.17-2.05-4.79-4.43.25-9.33.43-13.76.43a1.18,1.18,0,0,1-1.29-1.26c0-1.19,1-1.19,1.47-1.19,5.08,0,5.22,0,12.57-.32C852,40.6,851.27,39,850.84,38Z"/><path d="M886.41,57.63a3.28,3.28,0,1,1-3.28-3.28A3.26,3.26,0,0,1,886.41,57.63Zm-1.51-6.8a1.67,1.67,0,0,1-1.77,1.76,1.62,1.62,0,0,1-1.76-1.76l-1.19-17c-.11-1.34.86-2.7,3-2.7,1.8,0,3.06,1.11,3,2.7Z"/></g></g></svg>