<svg xmlns="http://www.w3.org/2000/svg" viewBox="0 0 276.29 31.07"><defs><style>.cls-1{fill:#20b97b;}</style></defs><title>アセット 35</title><g id="レイヤー_2" data-name="レイヤー 2"><g id="レイヤー_1-2" data-name="レイヤー 1"><path class="cls-1" d="M4.06,13.89C3.1,15,1.54,16.8.86,16.8A.83.83,0,0,1,0,16a1.17,1.17,0,0,1,.32-.77A36.56,36.56,0,0,0,5.76,3.49C6.34,1.28,6.46.83,8.1.83s2.81.9,2.81,2.08c0,1-1.89,4.1-2.62,5.31V28.13c0,1.31,0,2.75-2.15,2.75s-2.08-1.47-2.08-2.72Zm25.22-3.68c.54,0,1.12.19,1.12.86,0,.83-.83.9-1,.9L21,12.38c1.34,13.47,4.77,14,4.8,14,.67,0,1-1,1.28-1.7.64-2,.73-2.21,1.69-2.21.58,0,2.08.39,2.08,1.67,0,.64-1.21,6.78-5.15,6.78-1.89,0-7.58-1.79-9.21-18.3l-6,.32c-.54,0-1.12-.2-1.12-.9s.58-.86,1.06-.9l5.95-.28c0-.32-.32-5.31-.32-7.2,0-1.22,0-2.91,2.3-2.91a2.12,2.12,0,0,1,2.08,1.31c.13.45.35,7.23.45,8.57ZM27.49,9c-1.28,0-1.57-.67-2.4-2.53A12.47,12.47,0,0,0,22.85,3.1a.72.72,0,0,1-.26-.57.87.87,0,0,1,.9-.87c.67,0,6.49,2.85,6.49,4.67A2.63,2.63,0,0,1,27.49,9Z"/><path class="cls-1" d="M54.91,15.68a18.48,18.48,0,0,0,1.66,5.09,30.9,30.9,0,0,0,4-3.4,2.15,2.15,0,0,1,1.67-.86,2.36,2.36,0,0,1,2.37,2.14c0,.8-.68,1.22-1.67,1.73a36.75,36.75,0,0,1-5.31,2.21A19.31,19.31,0,0,0,65,29a.84.84,0,0,1,.58.83.89.89,0,0,1-.87.87c-.35,0-11.45-3.56-14.36-14.31a20.59,20.59,0,0,1-3,2.5v6.88c.86-.19,5.41-1.35,5.47-1.35a.87.87,0,0,1,.83.87c0,.67-.22.77-2.27,1.63a61.69,61.69,0,0,1-12.45,3.81,1.77,1.77,0,0,1-1.69-1.92,1.44,1.44,0,0,1,1.12-1.54c.64-.13,3.87-.54,4.61-.67V21.28a38.44,38.44,0,0,1-6.44,2.53.9.9,0,0,1-.86-.9c0-.58.42-.74.77-.9a30,30,0,0,0,9.12-6.33H37c-.35,0-1.09-.07-1.09-.87s.71-.89,1.09-.89H48.51V10.69H39.62c-.36,0-1.06-.1-1.06-.9s.67-.9,1.09-.9h8.86V6H38.37c-.35,0-1.09-.06-1.09-.86s.7-.9,1.09-.9H48.51V3.62c0-1.25,0-2.76,2.18-2.76S52.9,2.5,52.9,3.62v.57H63c.35,0,1.09.1,1.09.9S63.42,6,63,6H52.9V8.89h8.83c.35,0,1.08.1,1.08.9s-.7.9-1.08.9H52.9v3.23H64.48c.35,0,1.09.09,1.09.89s-.71.87-1.09.87Z"/><path class="cls-1" d="M86.24,8.22c4.83,0,6.24,2.31,6.24,7.43s-1.25,13.82-6.37,13.82a11.26,11.26,0,0,1-4.29-1.31C80.45,27.49,80,27.1,80,26.46a1.17,1.17,0,0,1,1.15-1.15,4.86,4.86,0,0,1,1.22.54,4.5,4.5,0,0,0,2,.84c1.63,0,3.51-5,3.51-11.43,0-3.68-.35-5.09-2.81-5.09a17,17,0,0,0-2.18.2c-1.79,5.44-3.58,10.84-5.31,16.28-.38,1.19-.8,2.43-2.4,2.43-.73,0-2.56-.41-2.56-2.11a13.73,13.73,0,0,1,.87-3.1c1.21-3.42,2.72-7.62,4.38-12.51-2.75.83-3.07.93-3.42,1.06a4.38,4.38,0,0,1-1.35.35A1.18,1.18,0,0,1,72,11.55c0-1,.8-1.18,1.25-1.31,1.12-.32,3.52-.86,5.5-1.25.32-.93,1.7-5.05,2-5.89a1.88,1.88,0,0,1,1.92-1.47c1,0,2.43.67,2.43,1.89a7.9,7.9,0,0,1-.61,2.21c0,.13-.8,2.27-.93,2.69C84.06,8.38,85.92,8.22,86.24,8.22Zm11.65.52c1.08,1.4,2.94,3.83,2.94,5.15a2.65,2.65,0,0,1-2.72,2.49c-1.44,0-1.6-.61-2.34-3.17a20.39,20.39,0,0,0-2.49-5.75c-.61-1-.67-1.06-.67-1.48a1.27,1.27,0,0,1,1.31-1.21C94.81,4.77,96.77,7.29,97.89,8.74Z"/><path class="cls-1" d="M124.13,12.16c4.38,0,9.21,2.14,9.21,8,0,5.25-3.77,8.29-10.46,9.53a39.74,39.74,0,0,1-6.4.68c-.42,0-1.44,0-1.44-1.16s1.06-1.15,1.89-1.18c2.24,0,11.45-.29,11.45-7.84,0-4.51-3.52-5.57-5.63-5.57-3.49,0-8,3.2-9.5,6.4a2.12,2.12,0,0,1-4.1-.48c0-.73,1.31-9.15,1.47-10.27.52-3.2.71-4.22,2.66-4.22,1.38,0,2.59.61,2.59,2,0,.22-.61,2.88-.7,3.29-.35,1.54-.61,3-.93,4.55A16.1,16.1,0,0,1,124.13,12.16Zm2.33-4.45c-.67,0-1-.16-2.21-.89a25.92,25.92,0,0,0-7.83-3.17c-.61-.16-1.44-.36-1.44-1.22,0-1.05,1-1.05,1.34-1.05A64,64,0,0,1,125,2.66c2.24.57,3.39.86,3.39,2.81C128.35,5.89,128,7.71,126.46,7.71Z"/><path class="cls-1" d="M156.13,20.8c-1.41,4.19-3.08,6.72-6.53,6.72-4.67,0-7.46-4.83-7.46-9.76,0-6.66,4.87-14.18,15.07-14.18,7,0,13.41,3.62,13.41,12.13,0,11.52-11.39,12.9-12.06,12.9a1.08,1.08,0,0,1-1.09-1.09c0-.77.32-.87,1.66-1.35,4.42-1.6,6.69-7,6.69-11,0-6.46-4.41-8.19-7.33-9C157.85,13.82,157.63,16.38,156.13,20.8ZM149,10a18.13,18.13,0,0,0-2.75,9.54c0,4.76,2,5.56,2.81,5.56,1.41,0,2.4-3.1,2.75-4.28,1.57-5.06,1.86-10.72,2.12-14.66A9,9,0,0,0,149,10Z"/><path class="cls-1" d="M200.45,28.16a70.79,70.79,0,0,1-9,.54c-3.29,0-12,0-12-5.44a7.75,7.75,0,0,1,2.66-5.41,1.21,1.21,0,0,1,.9-.44,1.09,1.09,0,0,1,1.08,1.08c0,.32,0,.39-.41.9a4.49,4.49,0,0,0-1,2.75c0,2.11,2,2.91,6.5,2.91a48.77,48.77,0,0,0,8.41-.76c.48-.1,2.56-.58,3-.58,1.25,0,1.86,1,1.86,2.18A2.08,2.08,0,0,1,200.45,28.16Zm-2.31-20a24.25,24.25,0,0,1-3.39-.93,41,41,0,0,0-9.66-1.37c-.64,0-2.37,0-2.5,0a1.07,1.07,0,0,1-.67-1c0-1,.77-1.09,1.28-1.18a57.63,57.63,0,0,1,7.42-.55,41.91,41.91,0,0,1,7.52.68,2.09,2.09,0,0,1,1.92,2.08A2.06,2.06,0,0,1,198.14,8.16Zm6.27-3.07A1.35,1.35,0,0,1,203.2,6.3c-.55,0-.64-.13-1.47-1.28a16.71,16.71,0,0,0-1.6-1.85.91.91,0,0,1-.29-.64.94.94,0,0,1,1.09-.9C201.41,1.7,204.41,4,204.41,5.09ZM207.23,3A1.25,1.25,0,0,1,206,4.22c-.41,0-.54-.16-1.56-1.31-.2-.22-1.19-1.18-1.38-1.37A.91.91,0,0,1,203.81,0C204.13,0,207.23,1.89,207.23,3Z"/><path class="cls-1" d="M219.26,28.09c0,1.89-1.37,2.44-2.81,2.44h-3.62c-.32,0-1.09-.1-1.09-.9s.77-.86,1.09-.86h1.41c.67,0,.83-.23.83-.87V20.45c-1.85,1.12-2,1.12-2.33,1.12a1.8,1.8,0,0,1-1.57-1.86,1.53,1.53,0,0,1,.64-1.28c.19-.1,1.12-.48,3.26-1.34V9.54H213c-.35,0-1.09-.1-1.09-.9s.74-.9,1.09-.9h2.11V3.33c0-.77,0-2.4,2.08-2.4s2.11,1.6,2.11,2.4V7.74h1.25c.42,0,1.09.13,1.09.9s-.7.9-1.09.9h-1.25v5.79a11.3,11.3,0,0,1,1.57-.68.9.9,0,0,1,.51,1.64c-.28.19-1.72,1.24-2.08,1.5Zm21.22-8.51c.35,0,1.05.1,1.05.87s-.73.89-1.05.89h-5.95c1.08,4.9,5.34,7,6.62,7.55.32.16.7.32.7.9a.88.88,0,0,1-.83.9c-.29,0-6.53-1.64-9.41-5.89-3.23,4.32-9.53,6-9.76,6a.91.91,0,0,1-.89-.89.88.88,0,0,1,.61-.84A12.86,12.86,0,0,0,229,21.34H222.5c-.36,0-1.09-.06-1.09-.86s.77-.9,1.09-.9h6.84a19.62,19.62,0,0,0,.1-2.24V15.1h-1.83c-1.82,2-4.15,3.91-4.76,3.91a.9.9,0,0,1-.9-.9c0-.29.1-.42.39-.86a20.35,20.35,0,0,0,2.49-5.48,3.56,3.56,0,0,1,.42-.83l-2.05.23a1.58,1.58,0,0,1-1.41-1.67,1.22,1.22,0,0,1,1.15-1.34L226.05,8a41.92,41.92,0,0,0,1.5-5.37c.16-.8.39-1.8,2.3-1.8.68,0,2.5.2,2.5,1.67,0,1.15-2,3.77-3.26,5.4l7.36-.44c-.36-.9-.71-1.67-1.64-3.59a1.24,1.24,0,0,1-.12-.44.91.91,0,0,1,.89-.9c.61,0,2.31,1.86,3.27,2.88,2.65,2.85,2.72,3.26,2.72,3.94,0,1.43-1.57,2.2-2.6,2.2s-1.31-.64-1.88-2.3c-2.15.35-6.76,1-8.58,1.25a1.5,1.5,0,0,1,1,1.4,2.45,2.45,0,0,1-.45,1.38h10.24a.94.94,0,0,1,1.06.9.92.92,0,0,1-1.06.89h-5.53v2.34a16.29,16.29,0,0,1-.1,2.14Z"/><path class="cls-1" d="M254.88,28.13c0,1.91-1.38,2.43-2.82,2.43h-3.8c-.36,0-1.09-.1-1.09-.87s.77-.89,1.09-.89h1.47c.67,0,.83-.19.83-.87V20.45c-1.7.89-1.89,1-2.46,1a1.63,1.63,0,0,1-1.6-1.7,1.69,1.69,0,0,1,1.18-1.6c.45-.12,2.46-.76,2.88-.92V9.31h-2.43c-.35,0-1.09-.1-1.09-.86s.74-.9,1.09-.9h2.43v-4c0-1.28,0-1.47.29-1.88A2.3,2.3,0,0,1,252.7.86a2.57,2.57,0,0,1,1.57.52c.61.48.61,1,.61,2.2v4h2c.35,0,1.08.07,1.08.87s-.76.89-1.08.89h-2v6.34c.45-.16,2.53-1.09,2.75-1.09a.86.86,0,0,1,.9.86.92.92,0,0,1-.45.77c-.8.58-2.56,1.6-3.2,1.95Zm19-12.84a2.06,2.06,0,0,1,2.21,1.92c0,.16-.2,3.62-4.2,7.43a25.53,25.53,0,0,1-14.2,6.43.91.91,0,0,1-.87-.9.89.89,0,0,1,.84-.89,21.67,21.67,0,0,0,8.73-4.1,1.21,1.21,0,0,1-.61-.13c-.29-.12-.57-.64-1.31-1.92-.25-.44-1.86-2.62-1.89-2.75-2.3,2.05-4.8,3.36-5.28,3.36a.91.91,0,0,1-.86-.89,1,1,0,0,1,.38-.74,22.7,22.7,0,0,0,4.48-6,27.43,27.43,0,0,1,1.51-3.27,2.45,2.45,0,0,1-.58.1,1.62,1.62,0,0,1-1.5-.8c-.23-.39-1.28-2.24-1.54-2.66C258.08,7.81,258,7.62,258,7.33a1.31,1.31,0,0,1,.29-.83,18.21,18.21,0,0,0,2.18-4.13c.31-.87.57-1.51,1.92-1.51a2.19,2.19,0,0,1,2.3,1.8c0,.89-2,2.72-3.68,4.31a.5.5,0,0,0-.19.36c0,.22.09.29.83.83,2.56,1.89,2.82,2.08,2.82,2.75a2,2,0,0,1-.74,1.51,2.08,2.08,0,0,1,.54-.07c1.44,0,2.72,1,2.72,2.14a2.28,2.28,0,0,1-.19.8Zm-7-8.6c-.19.16-.32.28-.32.51s.13.26.61.64c.93.74,2.62,2.08,2.82,2.27a1.28,1.28,0,0,1,.44,1,2.24,2.24,0,0,1-2.24,2.08c-1,0-1.21-.32-2.2-2.05a28,28,0,0,0-2-3,1.2,1.2,0,0,1-.32-.83,1.29,1.29,0,0,1,.36-.89,28,28,0,0,0,2.39-4.58A1.57,1.57,0,0,1,268.1.9a2.13,2.13,0,0,1,2.23,1.82C270.33,3.58,268.13,5.6,266.94,6.69Zm-1.28,10.36a20.84,20.84,0,0,1-1.82,2.18c1.18.35,4.7,1.66,5.06,3.26.89-1.24,2.43-4,2.43-4.86a.57.57,0,0,0-.58-.58Zm6.95-10.23c-.16.12-.29.22-.29.41a.52.52,0,0,0,.25.42c1.83,1.34,2.88,2.14,3.3,2.52a1.46,1.46,0,0,1,.42,1A2.31,2.31,0,0,1,274,13.31a1.63,1.63,0,0,1-1.66-1A45.51,45.51,0,0,0,269.66,8a1.5,1.5,0,0,1-.19-.71,1.72,1.72,0,0,1,.42-1,29.63,29.63,0,0,0,2.2-4.22A1.7,1.7,0,0,1,273.92.86a2.12,2.12,0,0,1,2.21,1.86C276.13,3.68,274,5.66,272.61,6.82Z"/></g></g></svg>