<svg xmlns="http://www.w3.org/2000/svg" viewBox="0 0 136.09 30.27"><defs><style>.cls-1{fill:#b48e1f;}</style></defs><title>アセット 34</title><g id="レイヤー_2" data-name="レイヤー 2"><g id="レイヤー_1-2" data-name="レイヤー 1"><path class="cls-1" d="M3.1,16.57c0-.64-.12-.83-.86-.83H1.41c-.39,0-1.09-.13-1.09-.89s.74-.9,1.09-.9h3c1.63,0,2.81.7,2.81,2.43V24c.39,3.52,3.68,3.77,6.88,3.77h15c.32,0,1.09.1,1.09.9s-.77.9-1.09.9H12.54c-3.74,0-5.69-.48-7.52-2.95-.83,1.15-2.4,3.3-3.48,3.3-.87,0-1.54-.8-1.54-2.27a1.6,1.6,0,0,1,.83-1.6c.35-.2,1.95-1,2.27-1.19ZM5,10C3.87,10,3.68,9.44,2.94,7.2A21.63,21.63,0,0,0,.67,2.11C.45,1.79.42,1.73.42,1.5A.88.88,0,0,1,1.31.67c.83,0,6.15,5,6.15,6.72A2.6,2.6,0,0,1,5,10Zm16.1,12.16h7.39c.35,0,1.09.1,1.09.9s-.77.89-1.09.89H21.09v.77c0,1.28,0,2.75-2.12,2.75S16.86,26,16.86,24.67V23.9H9.41c-.35,0-1.09-.09-1.09-.89s.74-.9,1.09-.9h7.45V20.06H12.74c-1.64,0-2.82-.67-2.82-2.43V12.7c0-1.89,1.41-2.43,2.82-2.43h4.12V8.45H11.17c-.35,0-1.09-.1-1.09-.9s.77-.89,1.09-.89h5.69V6.14c0-1.28,0-2.75,2.08-2.75s2.15,1.44,2.15,2.75v.52h5.66c.38,0,1.09.09,1.09.89s-.74.9-1.09.9H21.09v1.82h4.12c1.64,0,2.82.7,2.82,2.43v4.93c0,1.89-1.38,2.43-2.82,2.43H21.09ZM25.34,3.78c0-.74-.22-.8-.77-.8H13.34c-.64,0-.8.09-.8.8v.83a1.85,1.85,0,0,1-2.08,2c-2.08,0-2.08-1.56-2.08-2.24V3.52c0-1.66,1.09-2.3,2.56-2.3H27a2.23,2.23,0,0,1,2.56,2.3V4.77c0,1.85-2,1.85-2.12,1.85A1.86,1.86,0,0,1,25.34,4.7ZM16.86,14.3V12.06h-2c-.74,0-.87.19-.87.83V14.3ZM14,16v1.41c0,.64.13.83.87.83h2V16ZM24,14.3V12.89c0-.64-.16-.83-.86-.83H21.09V14.3ZM21.09,16v2.24h2.08c.7,0,.86-.19.86-.83V16Z"/><path class="cls-1" d="M55.42,6.33a.75.75,0,0,1-.16-.41c0-.1.07-.19.55-1a14.25,14.25,0,0,0,1.4-3,1.9,1.9,0,0,1,2-1.44c1.25,0,2.43.8,2.43,1.85s-2.43,3-4.44,4.06h4.83c1.63,0,2.81.71,2.81,2.44v1.6c0,1,0,2.56-2.14,2.56s-2.18-1.57-2.18-2.56V9.05c0-.6-.19-.92-.92-.92H41.54c-.74,0-.93.32-.93.92v1.32c0,1,0,2.56-2.11,2.56s-2.18-1.57-2.18-2.56V8.77c0-1.89,1.38-2.44,2.82-2.44h2.43c-.45-.25-.58-.47-1.06-1.63a19,19,0,0,0-1.69-3.1.55.55,0,0,1-.16-.38.92.92,0,0,1,.92-.84C40.13.38,45,2.72,45,4.64c0,.74-.51,1.34-1.5,1.69ZM43.49,18.24c-1.63,0-2.82-.67-2.82-2.43V13.28c0-1.89,1.38-2.43,2.82-2.43H57.73c1.63,0,2.81.67,2.81,2.43v2.53c0,1.88-1.37,2.43-2.81,2.43H52.45A27,27,0,0,1,50,21h9.89c2.46,0,3.36,1.34,3.36,3.07v2.5c0,1.66-.86,3.07-3.36,3.07H41.31c-2.43,0-3.33-1.38-3.33-3.07v-2.5c0-1.69.84-3.07,3.33-3.07h5.35a21.47,21.47,0,0,0,.8-2.75Zm15.32,5.44c0-.61-.19-.93-.92-.93H43.33c-.77,0-.93.35-.93.93v3.23c0,.61.19.93.93.93H57.89c.73,0,.92-.35.92-.93ZM56.19,13.47c0-.64-.16-.86-.86-.86H45.76c-.7,0-.83.22-.83.86v2.14c0,.64.13.87.83.87h9.57c.73,0,.86-.23.86-.87Zm-6.08-7.2c-1.18,0-1.44-.64-1.76-1.53a19.77,19.77,0,0,0-1.41-3c-.41-.7-.48-.8-.48-1a.89.89,0,0,1,.93-.8c.58,0,5.22,2.4,5.22,4.29A2.32,2.32,0,0,1,50.11,6.27Z"/><path class="cls-1" d="M83.94,7.39v3.46c0,1.21,0,1.44,0,2H94.49c.74,0,3.36,0,3.36,2.79a76.13,76.13,0,0,1-.8,9.34c-.8,4.45-2.72,4.87-5.24,4.87H86.33c-.35,0-1.08-.1-1.08-.9s.7-.86,1.08-.86h3.59c1.92,0,2.3-1.16,2.69-3a68.21,68.21,0,0,0,.76-9.54.76.76,0,0,0-.83-.86H83.81a17.57,17.57,0,0,1-3.23,9.37,18,18,0,0,1-8.42,6.21.9.9,0,0,1-.86-.9.92.92,0,0,1,.51-.83c7.17-4.29,7.61-11.07,7.61-18.11v-3H71.94c-.36,0-1.09-.1-1.09-.89s.7-.87,1.09-.87H83.55V2.94c0-1.08,0-2.72,2.27-2.72S88,1.89,88,2.94V5.63H99.61c.36,0,1.09.07,1.09.87s-.7.89-1.09.89Z"/><path class="cls-1" d="M112,16.38h-4.8c-.38,0-1.09-.13-1.09-.89s.74-.9,1.09-.9H112V11.17h-2a.93.93,0,0,1-1.09-.9,6,6,0,0,1-2.43,1.41.94.94,0,0,1-.9-.9c0-.38.23-.61.74-1.12a25.82,25.82,0,0,0,4.74-7C112,.9,112.32.22,114.53.22s2.3.45,3.61,3.33a15.82,15.82,0,0,0,2.72,4.16c.42.48.61.74.61,1a1,1,0,0,1-1,.87c-.86,0-3.78-2.5-5.28-4.71-.09-.12-.25-.38-.51-.38a.73.73,0,0,0-.48.32,25.88,25.88,0,0,1-4.16,4.61h8.16c.38,0,1.09.09,1.09.86s-.74.9-1.09.9h-2v3.42h3.75c.41,0,1.08.13,1.08.9s-.7.89-1.08.89h-3.75v8.8c.9-.22,4.22-1,4.42-1a.89.89,0,0,1,.86.9c0,.48-.29.7-.77.89a68.83,68.83,0,0,1-13.21,4,1.7,1.7,0,0,1-1.44-1.79,1.37,1.37,0,0,1,1-1.41l5-.77ZM108,23.55a23.53,23.53,0,0,0-1.25-4.86.84.84,0,0,1-.1-.39.88.88,0,0,1,.9-.89c.45,0,1.09.67,1.6,1.21,1,1.09,2.69,3.17,2.69,4.23a2.31,2.31,0,0,1-2.11,2.27C108.38,25.12,108.1,24.38,108,23.55ZM121.53,19c0,1.06-2.84,4.87-3.9,4.87a.91.91,0,0,1-.9-.8c0-.19.64-2.21.71-2.56s.32-2.11.45-2.43a1.41,1.41,0,0,1,1.47-1A2.07,2.07,0,0,1,121.53,19ZM135,10.59c.35,0,1.08.1,1.08.9s-.76.89-1.08.89h-3.84v15c0,1.15,0,2.85-2.24,2.85s-2.24-1.57-2.24-2.85v-15h-4.87c-.35,0-1.09-.09-1.09-.89s.77-.9,1.09-.9h4.87V3c0-1.25,0-2.88,2.2-2.88s2.28,1.66,2.28,2.88v7.55Z"/></g></g></svg>