<svg xmlns="http://www.w3.org/2000/svg" viewBox="0 0 136.22 29.92"><defs><style>.cls-1{fill:#b48e1f;}</style></defs><title>アセット 33</title><g id="レイヤー_2" data-name="レイヤー 2"><g id="レイヤー_1-2" data-name="レイヤー 1"><path class="cls-1" d="M3.1,16.57c0-.64-.12-.83-.86-.83H1.41c-.39,0-1.09-.13-1.09-.89s.74-.9,1.09-.9h3c1.63,0,2.81.7,2.81,2.43V24c.39,3.52,3.68,3.77,6.88,3.77h15c.32,0,1.09.1,1.09.9s-.77.9-1.09.9H12.54c-3.74,0-5.69-.48-7.52-2.95-.83,1.15-2.4,3.3-3.48,3.3-.87,0-1.54-.8-1.54-2.27a1.6,1.6,0,0,1,.83-1.6c.35-.2,1.95-1,2.27-1.19ZM5,10C3.87,10,3.68,9.44,2.94,7.2A21.63,21.63,0,0,0,.67,2.11C.45,1.79.42,1.73.42,1.5A.88.88,0,0,1,1.31.67c.83,0,6.15,5,6.15,6.72A2.6,2.6,0,0,1,5,10Zm16.1,12.16h7.39c.35,0,1.09.1,1.09.9s-.77.89-1.09.89H21.09v.77c0,1.28,0,2.75-2.12,2.75S16.86,26,16.86,24.67V23.9H9.41c-.35,0-1.09-.09-1.09-.89s.74-.9,1.09-.9h7.45V20.06H12.74c-1.64,0-2.82-.67-2.82-2.43V12.7c0-1.89,1.41-2.43,2.82-2.43h4.12V8.45H11.17c-.35,0-1.09-.1-1.09-.9s.77-.89,1.09-.89h5.69V6.14c0-1.28,0-2.75,2.08-2.75s2.15,1.44,2.15,2.75v.52h5.66c.38,0,1.09.09,1.09.89s-.74.9-1.09.9H21.09v1.82h4.12c1.64,0,2.82.7,2.82,2.43v4.93c0,1.89-1.38,2.43-2.82,2.43H21.09ZM25.34,3.78c0-.74-.22-.8-.77-.8H13.34c-.64,0-.8.09-.8.8v.83a1.85,1.85,0,0,1-2.08,2c-2.08,0-2.08-1.56-2.08-2.24V3.52c0-1.66,1.09-2.3,2.56-2.3H27a2.23,2.23,0,0,1,2.56,2.3V4.77c0,1.85-2,1.85-2.12,1.85A1.86,1.86,0,0,1,25.34,4.7ZM16.86,14.3V12.06h-2c-.74,0-.87.19-.87.83V14.3ZM14,16v1.41c0,.64.13.83.87.83h2V16ZM24,14.3V12.89c0-.64-.16-.83-.86-.83H21.09V14.3ZM21.09,16v2.24h2.08c.7,0,.86-.19.86-.83V16Z"/><path class="cls-1" d="M55.42,6.33a.75.75,0,0,1-.16-.41c0-.1.07-.19.55-1a14.25,14.25,0,0,0,1.4-3,1.9,1.9,0,0,1,2-1.44c1.25,0,2.43.8,2.43,1.85s-2.43,3-4.44,4.06h4.83c1.63,0,2.81.71,2.81,2.44v1.6c0,1,0,2.56-2.14,2.56s-2.18-1.57-2.18-2.56V9.05c0-.6-.19-.92-.92-.92H41.54c-.74,0-.93.32-.93.92v1.32c0,1,0,2.56-2.11,2.56s-2.18-1.57-2.18-2.56V8.77c0-1.89,1.38-2.44,2.82-2.44h2.43c-.45-.25-.58-.47-1.06-1.63a19,19,0,0,0-1.69-3.1.55.55,0,0,1-.16-.38.92.92,0,0,1,.92-.84C40.13.38,45,2.72,45,4.64c0,.74-.51,1.34-1.5,1.69ZM43.49,18.24c-1.63,0-2.82-.67-2.82-2.43V13.28c0-1.89,1.38-2.43,2.82-2.43H57.73c1.63,0,2.81.67,2.81,2.43v2.53c0,1.88-1.37,2.43-2.81,2.43H52.45A27,27,0,0,1,50,21h9.89c2.46,0,3.36,1.34,3.36,3.07v2.5c0,1.66-.86,3.07-3.36,3.07H41.31c-2.43,0-3.33-1.38-3.33-3.07v-2.5c0-1.69.84-3.07,3.33-3.07h5.35a21.47,21.47,0,0,0,.8-2.75Zm15.32,5.44c0-.61-.19-.93-.92-.93H43.33c-.77,0-.93.35-.93.93v3.23c0,.61.19.93.93.93H57.89c.73,0,.92-.35.92-.93ZM56.19,13.47c0-.64-.16-.86-.86-.86H45.76c-.7,0-.83.22-.83.86v2.14c0,.64.13.87.83.87h9.57c.73,0,.86-.23.86-.87Zm-6.08-7.2c-1.18,0-1.44-.64-1.76-1.53a19.77,19.77,0,0,0-1.41-3c-.41-.7-.48-.8-.48-1a.89.89,0,0,1,.93-.8c.58,0,5.22,2.4,5.22,4.29A2.32,2.32,0,0,1,50.11,6.27Z"/><path class="cls-1" d="M78.62,11.58h1.76c.39,0,1.09.13,1.09.9s-.73.9-1.09.9H78.62v8.09c.26-.06,2.79-.67,2.85-.67a.89.89,0,0,1,.9.89c0,.45-.16.58-2.18,1.48-1.73.76-7.45,3.1-8.32,3.1a1.66,1.66,0,0,1-1.57-1.76,1.64,1.64,0,0,1,1-1.63c.09,0,2.75-.48,3.07-.55V13.38H72.29c-.39,0-1.09-.13-1.09-.9s.74-.9,1.09-.9h2.08V3.17H72c-.42,0-1.09-.13-1.09-.9s.71-.89,1.09-.89h8.9c.41,0,1.08.12,1.08.89s-.7.9-1.08.9H78.62Zm14.79,9.67h5.18c.38,0,1.09.12,1.09.89s-.74.9-1.09.9H93.41v4.8h6.2c.39,0,1.06.09,1.06.86s-.7.9-1.06.9H80.8c-.38,0-1.09-.1-1.09-.9s.74-.86,1.09-.86h8.13V23h-5c-.39,0-1.09-.13-1.09-.9s.73-.89,1.09-.89h5v-4.2h-3.4c-1.63,0-2.81-.7-2.81-2.43v-11c0-1.89,1.41-2.44,2.81-2.44H97c1.63,0,2.82.68,2.82,2.44v11c0,1.89-1.41,2.43-2.82,2.43H93.41ZM89,2.94h-1.5c-.71,0-.83.23-.83.87V8.19H89Zm0,7H86.69v4.48c0,.64.12.83.83.83H89Zm4.29-1.76h2.37V3.81c0-.64-.13-.87-.83-.87H93.31Zm0,7.07h1.54c.7,0,.83-.19.83-.83V10H93.31Z"/><path class="cls-1" d="M115.74,10.08c-.32,0-1.09-.1-1.09-.9s.77-.89,1.09-.89h10.5a1.75,1.75,0,0,1,.57.09,26.25,26.25,0,0,1-5.28-4c-.22-.2-.28-.26-.57-.26a.64.64,0,0,0-.55.26A34,34,0,0,1,109.73,11a28.19,28.19,0,0,1-3.14,1.05.88.88,0,0,1-.83-.92c0-.51.35-.71.8-.93a29.75,29.75,0,0,0,11-8.67C118.37.64,118.78.13,121,.13s2.43.35,3.93,2.14a29.79,29.79,0,0,0,10.47,8c.48.26.83.42.83.93a.88.88,0,0,1-.83.92,33.77,33.77,0,0,1-8.45-3.64.89.89,0,0,1,.42.73c0,.8-.77.9-1.09.9Zm-9.76,17c0-.64.26-1,.84-1.72a24.19,24.19,0,0,0,3.07-5.12.89.89,0,0,1,.89-.64.88.88,0,0,1,.87.92,25.9,25.9,0,0,1-.9,5.67c-.54,1.92-1,2.91-2.43,2.91A2.27,2.27,0,0,1,106,27.13Zm4.71-12.48c-.32,0-1.09-.06-1.09-.89s.77-.9,1.09-.9h19.13c1.54,0,1.83,1,1.83,1.44,0,.9-2,3-3.46,4.61s-1.82,1.95-2.88,1.95a2,2,0,0,1-2.14-1.76c0-.45.12-.61,1.31-2,.7-.83,1.37-1.63,1.37-2.05a.42.42,0,0,0-.48-.42ZM118,27.17c0,.57.19.92.92.92h4.29c1.66,0,1.92-1.6,2.08-2.4.32-1.82.45-2.46,1.92-2.46.54,0,2.72.22,2.72,2a9,9,0,0,1-.64,2.6c-.86,2-2.56,2-3.74,2H117c-2.46,0-3.33-1.34-3.33-3.07V21.12c0-.83,0-2.43,2.15-2.43S118,20.06,118,21.12Zm4.6-2.18c-1.12,0-1.41-.77-1.69-1.44a22,22,0,0,0-2.15-4,1.1,1.1,0,0,1-.19-.61.86.86,0,0,1,.86-.86c.68,0,5.6,3,5.6,4.64A2.44,2.44,0,0,1,122.62,25Zm9,1.76a22.77,22.77,0,0,0-2.43-5.63,1.12,1.12,0,0,1-.16-.55.91.91,0,0,1,.9-.89c1,0,6.33,4.7,6.33,6.69a2.68,2.68,0,0,1-2.69,2.36C132.16,28.73,131.84,27.58,131.58,26.75Z"/></g></g></svg>